NobotoFlex-Spacing-max.ufo
<glyph name="quotedbl" format="1">
  <advance width="1056"/>
  <unicode hex="0022"/>
  <outline>
    <contour>
      <point x="477" y="1536" type="line"/>
      <point x="337" y="1536" type="line"/>
      <point x="337" y="1391" type="line"/>
      <point x="337" y="1042" type="line"/>
      <point x="448" y="1042" type="line"/>
      <point x="477" y="1400" type="line"/>
    </contour>
    <contour>
      <point x="747" y="1536" type="line"/>
      <point x="607" y="1536" type="line"/>
      <point x="607" y="1398" type="line"/>
      <point x="607" y="1042" type="line"/>
      <point x="718" y="1042" type="line"/>
      <point x="747" y="1400" type="line"/>
    </contour>
  </outline>
</glyph>
<glyph name="dollar" format="1">
  <advance width="1551"/>
  <unicode hex="0024"/>
  <outline>
    <contour>
      <point x="874" y="1693" type="line"/>
      <point x="724" y="1693" type="line"/>
      <point x="724" y="1387" type="line"/>
      <point x="874" y="1387" type="line"/>
    </contour>
    <contour>
      <point x="856" y="59" type="line"/>
      <point x="708" y="59" type="line"/>
      <point x="708" y="-208" type="line"/>
      <point x="856" y="-208" type="line"/>
    </contour>
    <contour>
      <point x="1056" y="375" type="curve"/>
      <point x="1056" y="232"/>
      <point x="954" y="141"/>
      <point x="775" y="141" type="curve" smooth="yes"/>
      <point x="644" y="141"/>
      <point x="495" y="203"/>
      <point x="495" y="429" type="curve"/>
      <point x="310" y="429" type="line"/>
      <point x="310" y="92"/>
      <point x="547" y="-21"/>
      <point x="775" y="-21" type="curve" smooth="yes"/>
      <point x="1057" y="-21"/>
      <point x="1241" y="120"/>
      <point x="1241" y="377" type="curve"/>
      <point x="1241" y="614"/>
      <point x="1095" y="726"/>
      <point x="839" y="809" type="curve" smooth="yes"/>
      <point x="618" y="883"/>
      <point x="551" y="954"/>
      <point x="551" y="1082" type="curve"/>
      <point x="551" y="1221"/>
      <point x="629" y="1315"/>
      <point x="797" y="1315" type="curve" smooth="yes"/>
      <point x="957" y="1315"/>
      <point x="1045" y="1186"/>
      <point x="1045" y="1008" type="curve"/>
      <point x="1229" y="1008" type="line"/>
      <point x="1229" y="1311"/>
      <point x="1068" y="1477"/>
      <point x="797" y="1477" type="curve" smooth="yes"/>
      <point x="535" y="1477"/>
      <point x="366" y="1325"/>
      <point x="366" y="1079" type="curve"/>
      <point x="366" y="843"/>
      <point x="521" y="722"/>
      <point x="774" y="645" type="curve" smooth="yes"/>
      <point x="982" y="577"/>
      <point x="1056" y="494"/>
    </contour>
  </outline>
</glyph>
<glyph name="percent" format="1">
  <advance width="1900"/>
  <unicode hex="0025"/>
  <outline>
    <contour>
      <point x="305" y="1099" type="line"/>
      <point x="305" y="936"/>
      <point x="419" y="800"/>
      <point x="605" y="800" type="curve" smooth="yes"/>
      <point x="790" y="800"/>
      <point x="902" y="936"/>
      <point x="902" y="1099" type="curve" smooth="yes"/>
      <point x="902" y="1176" type="line" smooth="yes"/>
      <point x="902" y="1341"/>
      <point x="790" y="1477"/>
      <point x="603" y="1477" type="curve" smooth="yes"/>
      <point x="419" y="1477"/>
      <point x="305" y="1341"/>
      <point x="305" y="1176" type="curve" smooth="yes"/>
    </contour>
    <contour>
      <point x="443" y="1176" type="line"/>
      <point x="443" y="1269"/>
      <point x="496" y="1356"/>
      <point x="603" y="1356" type="curve" smooth="yes"/>
      <point x="711" y="1356"/>
      <point x="763" y="1269"/>
      <point x="763" y="1176" type="curve" smooth="yes"/>
      <point x="763" y="1099" type="line" smooth="yes"/>
      <point x="763" y="1007"/>
      <point x="712" y="921"/>
      <point x="605" y="921" type="curve" smooth="yes"/>
      <point x="496" y="921"/>
      <point x="443" y="1008"/>
      <point x="443" y="1099" type="curve" smooth="yes"/>
    </contour>
    <contour>
      <point x="1014" y="279" type="line"/>
      <point x="1014" y="115"/>
      <point x="1128" y="-21"/>
      <point x="1314" y="-21" type="curve" smooth="yes"/>
      <point x="1499" y="-21"/>
      <point x="1611" y="115"/>
      <point x="1611" y="279" type="curve" smooth="yes"/>
      <point x="1611" y="357" type="line" smooth="yes"/>
      <point x="1611" y="521"/>
      <point x="1499" y="657"/>
      <point x="1312" y="657" type="curve" smooth="yes"/>
      <point x="1128" y="657"/>
      <point x="1014" y="521"/>
      <point x="1014" y="357" type="curve" smooth="yes"/>
    </contour>
    <contour>
      <point x="1153" y="357" type="line"/>
      <point x="1153" y="450"/>
      <point x="1205" y="536"/>
      <point x="1312" y="536" type="curve" smooth="yes"/>
      <point x="1421" y="536"/>
      <point x="1473" y="450"/>
      <point x="1473" y="357" type="curve" smooth="yes"/>
      <point x="1473" y="279" type="line" smooth="yes"/>
      <point x="1473" y="186"/>
      <point x="1422" y="100"/>
      <point x="1314" y="100" type="curve" smooth="yes"/>
      <point x="1205" y="100"/>
      <point x="1153" y="187"/>
      <point x="1153" y="279" type="curve" smooth="yes"/>
    </contour>
    <contour>
      <point x="1358" y="1249" type="line"/>
      <point x="1254" y="1315" type="line"/>
      <point x="543" y="177" type="line"/>
      <point x="647" y="111" type="line"/>
    </contour>
  </outline>
</glyph>
<glyph name="ampersand" format="1">
  <advance width="1674"/>
  <unicode hex="0026"/>
  <outline>
    <contour>
      <point x="610" y="808" type="line"/>
      <point x="430" y="683"/>
      <point x="302" y="575"/>
      <point x="302" y="392" type="curve"/>
      <point x="302" y="152"/>
      <point x="482" y="-20"/>
      <point x="772" y="-20" type="curve"/>
      <point x="918" y="-20"/>
      <point x="1076" y="34"/>
      <point x="1176" y="142" type="curve" smooth="yes"/>
      <point x="1188" y="154"/>
      <point x="1192" y="172"/>
      <point x="1204" y="184" type="curve" smooth="yes"/>
      <point x="1326" y="307"/>
      <point x="1382" y="474"/>
      <point x="1382" y="673" type="curve"/>
      <point x="1216" y="673" type="line"/>
      <point x="1216" y="350"/>
      <point x="996" y="132"/>
      <point x="772" y="132" type="curve" smooth="yes"/>
      <point x="579" y="132"/>
      <point x="487" y="250"/>
      <point x="487" y="392" type="curve"/>
      <point x="487" y="435"/>
      <point x="500" y="531"/>
      <point x="644" y="637" type="curve" smooth="yes"/>
      <point x="933" y="851" type="line" smooth="yes"/>
      <point x="1049" y="938"/>
      <point x="1130" y="1028"/>
      <point x="1130" y="1169" type="curve" smooth="yes"/>
      <point x="1130" y="1334"/>
      <point x="998" y="1476"/>
      <point x="784" y="1476" type="curve" smooth="yes"/>
      <point x="565" y="1476"/>
      <point x="420" y="1350"/>
      <point x="420" y="1123" type="curve" smooth="yes"/>
      <point x="420" y="974"/>
      <point x="529" y="851"/>
      <point x="680" y="676" type="curve" smooth="yes"/>
      <point x="1246" y="0" type="line"/>
      <point x="1467" y="0" type="line"/>
      <point x="778" y="826" type="line" smooth="yes"/>
      <point x="677" y="941"/>
      <point x="605" y="1038"/>
      <point x="605" y="1128" type="curve" smooth="yes"/>
      <point x="605" y="1234"/>
      <point x="666" y="1324"/>
      <point x="784" y="1324" type="curve" smooth="yes"/>
      <point x="896" y="1324"/>
      <point x="960" y="1247"/>
      <point x="960" y="1169" type="curve" smooth="yes"/>
      <point x="960" y="1068"/>
      <point x="912" y="1020"/>
      <point x="828" y="963" type="curve" smooth="yes"/>
    </contour>
  </outline>
</glyph>
<glyph name="parenright" format="1">
  <advance width="1113"/>
  <unicode hex="0029"/>
  <outline>
    <contour>
      <point x="767" y="592" type="line"/>
      <point x="767" y="1174"/>
      <point x="467" y="1538"/>
      <point x="278" y="1643" type="curve"/>
      <point x="239" y="1530" type="line"/>
      <point x="381" y="1413"/>
      <point x="582" y="1101"/>
      <point x="582" y="594" type="curve" smooth="yes"/>
      <point x="582" y="580" type="line" smooth="yes"/>
      <point x="582" y="73"/>
      <point x="395" y="-239"/>
      <point x="239" y="-358" type="curve"/>
      <point x="278" y="-470" type="line"/>
      <point x="467" y="-365"/>
      <point x="767" y="-2"/>
      <point x="767" y="582" type="curve" smooth="yes"/>
    </contour>
  </outline>
</glyph>
<glyph name="comma" format="1">
  <advance width="803"/>
  <unicode hex="002C"/>
  <outline>
    <contour>
      <point x="509" y="220" type="line"/>
      <point x="328" y="220" type="line"/>
      <point x="328" y="68" type="line"/>
      <point x="328" y="-40"/>
      <point x="292" y="-130"/>
      <point x="229" y="-218" type="curve"/>
      <point x="334" y="-291" type="line"/>
      <point x="445" y="-200"/>
      <point x="509" y="-50"/>
      <point x="509" y="71" type="curve"/>
    </contour>
    <contour>
      <point x="506" y="224" type="move" name="_bottom"/>
    </contour>
    <contour>
      <point x="328" y="68" type="move" name="_right"/>
    </contour>
  </outline>
</glyph>
<glyph name="period" format="1">
  <advance width="939"/>
  <unicode hex="002E"/>
  <outline>
    <contour>
      <point x="334" y="106" type="curve" smooth="yes"/>
      <point x="334" y="39"/>
      <point x="376" y="-12"/>
      <point x="458" y="-12" type="curve" smooth="yes"/>
      <point x="539" y="-12"/>
      <point x="583" y="39"/>
      <point x="583" y="106" type="curve" smooth="yes"/>
      <point x="583" y="175"/>
      <point x="539" y="228"/>
      <point x="458" y="228" type="curve" smooth="yes"/>
      <point x="376" y="228"/>
      <point x="334" y="175"/>
    </contour>
  </outline>
</glyph>
<glyph name="zero" format="1">
  <advance width="1551"/>
  <unicode hex="0030"/>
  <outline>
    <contour>
      <point x="1235" y="844" type="line"/>
      <point x="1235" y="1321"/>
      <point x="1056" y="1476"/>
      <point x="774" y="1476" type="curve" smooth="yes"/>
      <point x="495" y="1476"/>
      <point x="315" y="1321"/>
      <point x="315" y="844" type="curve"/>
      <point x="315" y="622" type="line"/>
      <point x="315" y="145"/>
      <point x="497" y="-20"/>
      <point x="776" y="-20" type="curve" smooth="yes"/>
      <point x="1058" y="-20"/>
      <point x="1235" y="145"/>
      <point x="1235" y="622" type="curve"/>
    </contour>
    <contour>
      <point x="1050" y="592" type="line"/>
      <point x="1050" y="266"/>
      <point x="957" y="132"/>
      <point x="776" y="132" type="curve" smooth="yes"/>
      <point x="599" y="132"/>
      <point x="500" y="266"/>
      <point x="500" y="592" type="curve" smooth="yes"/>
      <point x="500" y="875" type="line" smooth="yes"/>
      <point x="500" y="1203"/>
      <point x="597" y="1324"/>
      <point x="774" y="1324" type="curve" smooth="yes"/>
      <point x="954" y="1324"/>
      <point x="1050" y="1203"/>
      <point x="1050" y="875" type="curve"/>
    </contour>
  </outline>
</glyph>
<glyph name="three" format="1">
  <advance width="1551"/>
  <unicode hex="0033"/>
  <outline>
    <contour>
      <point x="591" y="819" type="line"/>
      <point x="591" y="707" type="line"/>
      <point x="749" y="707" type="line"/>
      <point x="1065" y="707"/>
      <point x="1196" y="916"/>
      <point x="1196" y="1064" type="curve"/>
      <point x="1196" y="1335"/>
      <point x="1018" y="1476"/>
      <point x="756" y="1476" type="curve" smooth="yes"/>
      <point x="487" y="1476"/>
      <point x="307" y="1297"/>
      <point x="307" y="1075" type="curve"/>
      <point x="492" y="1075" type="line"/>
      <point x="492" y="1227"/>
      <point x="599" y="1324"/>
      <point x="756" y="1324" type="curve" smooth="yes"/>
      <point x="927" y="1324"/>
      <point x="1011" y="1235"/>
      <point x="1011" y="1068" type="curve"/>
      <point x="1011" y="925"/>
      <point x="916" y="819"/>
      <point x="723" y="819" type="curve" smooth="yes"/>
    </contour>
    <contour>
      <point x="591" y="667" type="line"/>
      <point x="723" y="667" type="line" smooth="yes"/>
      <point x="911" y="667"/>
      <point x="1033" y="583"/>
      <point x="1033" y="402" type="curve" smooth="yes"/>
      <point x="1033" y="220"/>
      <point x="927" y="132"/>
      <point x="757" y="132" type="curve" smooth="yes"/>
      <point x="586" y="132"/>
      <point x="480" y="232"/>
      <point x="480" y="385" type="curve"/>
      <point x="295" y="385" type="line"/>
      <point x="295" y="126"/>
      <point x="504" y="-20"/>
      <point x="757" y="-20" type="curve" smooth="yes"/>
      <point x="1020" y="-20"/>
      <point x="1218" y="134"/>
      <point x="1218" y="406" type="curve" smooth="yes"/>
      <point x="1218" y="579"/>
      <point x="1119" y="778"/>
      <point x="749" y="778" type="curve" smooth="yes"/>
      <point x="591" y="778" type="line"/>
    </contour>
  </outline>
</glyph>
<glyph name="six" format="1">
  <advance width="1551"/>
  <unicode hex="0036"/>
  <outline>
    <contour>
      <point x="1031" y="1458" type="line"/>
      <point x="470" y="1458"/>
      <point x="332" y="1035"/>
      <point x="332" y="626" type="curve"/>
      <point x="332" y="539" type="line"/>
      <point x="332" y="269"/>
      <point x="486" y="-20"/>
      <point x="801" y="-20" type="curve" smooth="yes"/>
      <point x="1096" y="-20"/>
      <point x="1252" y="199"/>
      <point x="1252" y="475" type="curve"/>
      <point x="1252" y="714"/>
      <point x="1126" y="955"/>
      <point x="835" y="955" type="curve"/>
      <point x="622" y="955"/>
      <point x="444" y="834"/>
      <point x="406" y="536" type="curve"/>
      <point x="503" y="535" type="line"/>
      <point x="515" y="676"/>
      <point x="649" y="801"/>
      <point x="805" y="801" type="curve"/>
      <point x="985" y="801"/>
      <point x="1070" y="639"/>
      <point x="1070" y="466" type="curve" smooth="yes"/>
      <point x="1070" y="272"/>
      <point x="973" y="134"/>
      <point x="801" y="134" type="curve" smooth="yes"/>
      <point x="655" y="134"/>
      <point x="518" y="274"/>
      <point x="518" y="534" type="curve" smooth="yes"/>
      <point x="518" y="748" type="line" smooth="yes"/>
      <point x="518" y="1019"/>
      <point x="639" y="1300"/>
      <point x="1031" y="1300" type="curve"/>
      <point x="1047" y="1300" type="line"/>
      <point x="1047" y="1458" type="line"/>
    </contour>
  </outline>
</glyph>
<glyph name="nine" format="1">
  <advance width="1551"/>
  <unicode hex="0039"/>
  <outline>
    <contour>
      <point x="505" y="156" type="line"/>
      <point x="505" y="-2" type="line"/>
      <point x="524" y="-2" type="line"/>
      <point x="1128" y="-2"/>
      <point x="1216" y="443"/>
      <point x="1216" y="820" type="curve"/>
      <point x="1216" y="887" type="line"/>
      <point x="1216" y="1182"/>
      <point x="1085" y="1476"/>
      <point x="752" y="1476" type="curve" smooth="yes"/>
      <point x="455" y="1476"/>
      <point x="300" y="1250"/>
      <point x="300" y="973" type="curve"/>
      <point x="300" y="736"/>
      <point x="428" y="487"/>
      <point x="716" y="487" type="curve"/>
      <point x="961" y="487"/>
      <point x="1145" y="721"/>
      <point x="1145" y="942" type="curve"/>
      <point x="1058" y="943" type="line"/>
      <point x="1047" y="785"/>
      <point x="910" y="641"/>
      <point x="745" y="641" type="curve"/>
      <point x="567" y="641"/>
      <point x="482" y="811"/>
      <point x="482" y="983" type="curve"/>
      <point x="482" y="1176"/>
      <point x="580" y="1322"/>
      <point x="752" y="1322" type="curve" smooth="yes"/>
      <point x="900" y="1322"/>
      <point x="1032" y="1177"/>
      <point x="1032" y="912" type="curve" smooth="yes"/>
      <point x="1032" y="688" type="line" smooth="yes"/>
      <point x="1032" y="421"/>
      <point x="951" y="156"/>
      <point x="524" y="156" type="curve"/>
    </contour>
  </outline>
</glyph>
<glyph name="question" format="1">
  <advance width="1367"/>
  <unicode hex="003F"/>
  <outline>
    <contour>
      <point x="742" y="410" type="line"/>
      <point x="742" y="509"/>
      <point x="763" y="595"/>
      <point x="836" y="663" type="curve" smooth="yes"/>
      <point x="963" y="782"/>
      <point x="1086" y="916"/>
      <point x="1086" y="1096" type="curve" smooth="yes"/>
      <point x="1086" y="1330"/>
      <point x="941" y="1476"/>
      <point x="687" y="1476" type="curve" smooth="yes"/>
      <point x="456" y="1476"/>
      <point x="278" y="1341"/>
      <point x="275" y="1115" type="curve"/>
      <point x="460" y="1115" type="line"/>
      <point x="460" y="1253"/>
      <point x="570" y="1314"/>
      <point x="687" y="1314" type="curve" smooth="yes"/>
      <point x="826" y="1314"/>
      <point x="901" y="1229"/>
      <point x="901" y="1091" type="curve" smooth="yes"/>
      <point x="901" y="955"/>
      <point x="821" y="890"/>
      <point x="730" y="796" type="curve" smooth="yes"/>
      <point x="603" y="666"/>
      <point x="559" y="603"/>
      <point x="557" y="410" type="curve"/>
    </contour>
    <component base="period" xOffset="202"/>
  </outline>
</glyph>
<glyph name="at" format="1">
  <advance width="2239"/>
  <unicode hex="0040"/>
  <outline>
    <contour>
      <point x="1936" y="503" type="curve"/>
      <point x="1959" y="1071"/>
      <point x="1682" y="1431"/>
      <point x="1169" y="1431" type="curve" smooth="yes"/>
      <point x="666" y="1431"/>
      <point x="340" y="1026"/>
      <point x="316" y="478" type="curve" smooth="yes"/>
      <point x="292" y="-96"/>
      <point x="586" y="-453"/>
      <point x="1093" y="-453" type="curve" smooth="yes"/>
      <point x="1217" y="-453"/>
      <point x="1372" y="-424"/>
      <point x="1465" y="-364" type="curve"/>
      <point x="1427" y="-250" type="line"/>
      <point x="1345" y="-298"/>
      <point x="1214" y="-328"/>
      <point x="1097" y="-328" type="curve" smooth="yes"/>
      <point x="671" y="-328"/>
      <point x="437" y="-21"/>
      <point x="460" y="478" type="curve" smooth="yes"/>
      <point x="481" y="966"/>
      <point x="745" y="1299"/>
      <point x="1165" y="1299" type="curve" smooth="yes"/>
      <point x="1629" y="1299"/>
      <point x="1829" y="1001"/>
      <point x="1807" y="503" type="curve" smooth="yes"/>
      <point x="1798" y="278"/>
      <point x="1709" y="99"/>
      <point x="1548" y="99" type="curve" smooth="yes"/>
      <point x="1483" y="99"/>
      <point x="1403" y="135"/>
      <point x="1420" y="330" type="curve"/>
      <point x="1471" y="884" type="line"/>
      <point x="1324" y="884" type="line"/>
      <point x="1273" y="330" type="line" smooth="yes"/>
      <point x="1252" y="116"/>
      <point x="1342" y="-21"/>
      <point x="1527" y="-21" type="curve"/>
      <point x="1816" y="-21"/>
      <point x="1926" y="257"/>
    </contour>
    <contour>
      <point x="909" y="418" type="curve" smooth="yes"/>
      <point x="935" y="710"/>
      <point x="1053" y="861"/>
      <point x="1199" y="861" type="curve" smooth="yes"/>
      <point x="1284" y="861"/>
      <point x="1347" y="821"/>
      <point x="1386" y="785" type="curve"/>
      <point x="1471" y="884" type="line"/>
      <point x="1396" y="941"/>
      <point x="1327" y="990"/>
      <point x="1183" y="990" type="curve" smooth="yes"/>
      <point x="977" y="990"/>
      <point x="781" y="769"/>
      <point x="750" y="418" type="curve" smooth="yes"/>
      <point x="726" y="155"/>
      <point x="823" y="-21"/>
      <point x="1019" y="-21" type="curve" smooth="yes"/>
      <point x="1157" y="-21"/>
      <point x="1296" y="94"/>
      <point x="1358" y="312" type="curve"/>
      <point x="1292" y="384" type="line"/>
      <point x="1243" y="196"/>
      <point x="1143" y="124"/>
      <point x="1065" y="124" type="curve" smooth="yes"/>
      <point x="947" y="124"/>
      <point x="891" y="230"/>
    </contour>
  </outline>
</glyph>
<glyph name="C" format="1">
  <advance width="1733"/>
  <unicode hex="0043"/>
  <outline>
    <contour>
      <point x="1248" y="463" type="line"/>
      <point x="1215" y="258"/>
      <point x="1134" y="138"/>
      <point x="888" y="138" type="curve" smooth="yes"/>
      <point x="629" y="138"/>
      <point x="512" y="370"/>
      <point x="512" y="655" type="curve" smooth="yes"/>
      <point x="512" y="802" type="line" smooth="yes"/>
      <point x="512" y="1110"/>
      <point x="647" y="1318"/>
      <point x="905" y="1318" type="curve" smooth="yes"/>
      <point x="1130" y="1318"/>
      <point x="1219" y="1191"/>
      <point x="1248" y="989" type="curve"/>
      <point x="1440" y="989" type="line"/>
      <point x="1410" y="1276"/>
      <point x="1235" y="1476"/>
      <point x="905" y="1476" type="curve" smooth="yes"/>
      <point x="545" y="1476"/>
      <point x="320" y="1208"/>
      <point x="320" y="800" type="curve"/>
      <point x="320" y="655" type="line"/>
      <point x="320" y="247"/>
      <point x="546" y="-20"/>
      <point x="888" y="-20" type="curve" smooth="yes"/>
      <point x="1237" y="-20"/>
      <point x="1409" y="187"/>
      <point x="1440" y="463" type="curve"/>
    </contour>
    <contour>
      <point x="1533" y="1633" type="move" name="top0315"/>
    </contour>
    <contour>
      <point x="1533" y="1600" type="move" name="top_dd"/>
    </contour>
    <contour>
      <point x="880" y="1633" type="move" name="top"/>
    </contour>
    <contour>
      <point x="1533" y="-407" type="move" name="bottom_dd"/>
    </contour>
    <contour>
      <point x="880" y="-10" type="move" name="bottom"/>
    </contour>
  </outline>
</glyph>
<glyph name="E" format="1">
  <advance width="1564"/>
  <unicode hex="0045"/>
  <outline>
    <contour>
      <point x="1294" y="158" type="line"/>
      <point x="523" y="158" type="line"/>
      <point x="523" y="0" type="line"/>
      <point x="1294" y="0" type="line"/>
    </contour>
    <contour>
      <point x="562" y="1456" type="line"/>
      <point x="369" y="1456" type="line"/>
      <point x="369" y="0" type="line"/>
      <point x="562" y="0" type="line"/>
    </contour>
    <contour>
      <point x="1192" y="831" type="line"/>
      <point x="523" y="831" type="line"/>
      <point x="523" y="673" type="line"/>
      <point x="1192" y="673" type="line"/>
    </contour>
    <contour>
      <point x="1284" y="1456" type="line"/>
      <point x="523" y="1456" type="line"/>
      <point x="523" y="1298" type="line"/>
      <point x="1284" y="1298" type="line"/>
    </contour>
    <contour>
      <point x="1222" y="0" type="move" name="ogonek"/>
    </contour>
    <contour>
      <point x="1364" y="1600" type="move" name="top_dd"/>
    </contour>
    <contour>
      <point x="819" y="10" type="move" name="bottom"/>
    </contour>
    <contour>
      <point x="1364" y="-407" type="move" name="bottom_dd"/>
    </contour>
    <contour>
      <point x="1364" y="1612" type="move" name="top0315"/>
    </contour>
    <contour>
      <point x="819" y="1612" type="move" name="top"/>
    </contour>
    <contour>
      <point x="158" y="1455" type="move" name="tonos"/>
    </contour>
  </outline>
</glyph>
<glyph name="M" format="1">
  <advance width="2188"/>
  <unicode hex="004D"/>
  <outline>
    <contour>
      <point x="429" y="1456" type="line"/>
      <point x="1020" y="0" type="line"/>
      <point x="1166" y="0" type="line"/>
      <point x="1758" y="1456" type="line"/>
      <point x="1570" y="1456" type="line"/>
      <point x="1094" y="269" type="line"/>
      <point x="617" y="1456" type="line"/>
    </contour>
    <contour>
      <point x="369" y="1456" type="line"/>
      <point x="369" y="0" type="line"/>
      <point x="561" y="0" type="line"/>
      <point x="561" y="567" type="line"/>
      <point x="534" y="1456" type="line"/>
    </contour>
    <contour>
      <point x="1654" y="1456" type="line"/>
      <point x="1627" y="567" type="line"/>
      <point x="1627" y="0" type="line"/>
      <point x="1818" y="0" type="line"/>
      <point x="1818" y="1456" type="line"/>
    </contour>
    <contour>
      <point x="1988" y="1601" type="move" name="top0315"/>
    </contour>
    <contour>
      <point x="1988" y="1600" type="move" name="top_dd"/>
    </contour>
    <contour>
      <point x="1090" y="1601" type="move" name="top"/>
    </contour>
    <contour>
      <point x="1988" y="-407" type="move" name="bottom_dd"/>
    </contour>
    <contour>
      <point x="1804" y="0" type="move" name="right"/>
    </contour>
    <contour>
      <point x="1093" y="10" type="move" name="bottom"/>
    </contour>
  </outline>
</glyph>
<glyph name="N" format="1">
  <advance width="1861"/>
  <unicode hex="004E"/>
  <outline>
    <contour>
      <point x="1488" y="1456" type="line"/>
      <point x="1300" y="1456" type="line"/>
      <point x="1300" y="328" type="line"/>
      <point x="562" y="1456" type="line"/>
      <point x="369" y="1456" type="line"/>
      <point x="369" y="0" type="line"/>
      <point x="558" y="0" type="line"/>
      <point x="558" y="1127" type="line"/>
      <point x="1295" y="0" type="line"/>
      <point x="1488" y="0" type="line"/>
    </contour>
    <contour>
      <point x="1661" y="1601" type="move" name="top0315"/>
    </contour>
    <contour>
      <point x="1661" y="1600" type="move" name="top_dd"/>
    </contour>
    <contour>
      <point x="926" y="1601" type="move" name="top"/>
    </contour>
    <contour>
      <point x="1661" y="-407" type="move" name="bottom_dd"/>
    </contour>
    <contour>
      <point x="1488" y="0" type="move" name="right"/>
    </contour>
    <contour>
      <point x="920" y="10" type="move" name="bottom"/>
    </contour>
  </outline>
</glyph>
<glyph name="P" format="1">
  <advance width="1692"/>
  <unicode hex="0050"/>
  <outline>
    <contour>
      <point x="906" y="571" type="line"/>
      <point x="1236" y="571"/>
      <point x="1417" y="731"/>
      <point x="1417" y="1012" type="curve"/>
      <point x="1417" y="1270"/>
      <point x="1236" y="1456"/>
      <point x="906" y="1456" type="curve"/>
      <point x="369" y="1456" type="line"/>
      <point x="369" y="0" type="line"/>
      <point x="562" y="0" type="line"/>
      <point x="562" y="1298" type="line"/>
      <point x="906" y="1298" type="line"/>
      <point x="1132" y="1298"/>
      <point x="1224" y="1159"/>
      <point x="1224" y="1010" type="curve"/>
      <point x="1224" y="845"/>
      <point x="1132" y="728"/>
      <point x="906" y="728" type="curve"/>
      <point x="517" y="728" type="line"/>
      <point x="517" y="571" type="line"/>
    </contour>
    <contour>
      <point x="1492" y="1612" type="move" name="top0315"/>
    </contour>
    <contour>
      <point x="1492" y="1600" type="move" name="top_dd"/>
    </contour>
    <contour>
      <point x="806" y="1612" type="move" name="top"/>
    </contour>
    <contour>
      <point x="222" y="1454" type="move" name="tonos"/>
    </contour>
    <contour>
      <point x="1492" y="-407" type="move" name="bottom_dd"/>
    </contour>
    <contour>
      <point x="730" y="10" type="move" name="bottom"/>
    </contour>
  </outline>
</glyph>
<glyph name="R" format="1">
  <advance width="1662"/>
  <unicode hex="0052"/>
  <outline>
    <contour>
      <point x="369" y="1456" type="line"/>
      <point x="369" y="0" type="line"/>
      <point x="561" y="0" type="line"/>
      <point x="561" y="1298" type="line"/>
      <point x="851" y="1298" type="line" smooth="yes"/>
      <point x="1073" y="1298"/>
      <point x="1169" y="1186"/>
      <point x="1169" y="1018" type="curve" smooth="yes"/>
      <point x="1169" y="868"/>
      <point x="1065" y="747"/>
      <point x="857" y="747" type="curve" smooth="yes"/>
      <point x="515" y="747" type="line"/>
      <point x="517" y="590" type="line"/>
      <point x="969" y="590" type="line"/>
      <point x="1024" y="611" type="line"/>
      <point x="1233" y="666"/>
      <point x="1361" y="818"/>
      <point x="1361" y="1018" type="curve" smooth="yes"/>
      <point x="1361" y="1303"/>
      <point x="1178" y="1456"/>
      <point x="851" y="1456" type="curve" smooth="yes"/>
    </contour>
    <contour>
      <point x="1220" y="0" type="line"/>
      <point x="1426" y="0" type="line"/>
      <point x="1426" y="12" type="line"/>
      <point x="1067" y="661" type="line"/>
      <point x="866" y="660" type="line"/>
    </contour>
    <contour>
      <point x="1462" y="1601" type="move" name="top0315"/>
    </contour>
    <contour>
      <point x="1462" y="1600" type="move" name="top_dd"/>
    </contour>
    <contour>
      <point x="810" y="1601" type="move" name="top"/>
    </contour>
    <contour>
      <point x="1462" y="-407" type="move" name="bottom_dd"/>
    </contour>
    <contour>
      <point x="810" y="10" type="move" name="bottom"/>
    </contour>
  </outline>
</glyph>
<glyph name="X" format="1">
  <advance width="1684"/>
  <unicode hex="0058"/>
  <outline>
    <contour>
      <point x="494" y="1456" type="line"/>
      <point x="269" y="1456" type="line"/>
      <point x="729" y="735" type="line"/>
      <point x="258" y="0" type="line"/>
      <point x="484" y="0" type="line"/>
      <point x="844" y="568" type="line"/>
      <point x="1203" y="0" type="line"/>
      <point x="1430" y="0" type="line"/>
      <point x="959" y="735" type="line"/>
      <point x="1419" y="1456" type="line"/>
      <point x="1194" y="1456" type="line"/>
      <point x="844" y="899" type="line"/>
    </contour>
    <contour>
      <point x="1484" y="1600" type="move" name="top_dd"/>
    </contour>
    <contour>
      <point x="843" y="742" type="move" name="cross"/>
    </contour>
    <contour>
      <point x="845" y="10" type="move" name="bottom"/>
    </contour>
    <contour>
      <point x="1484" y="-407" type="move" name="bottom_dd"/>
    </contour>
    <contour>
      <point x="1484" y="1612" type="move" name="top0315"/>
    </contour>
    <contour>
      <point x="853" y="1612" type="move" name="top"/>
    </contour>
    <contour>
      <point x="1310" y="0" type="move" name="right"/>
    </contour>
  </outline>
</glyph>
<glyph name="bracketleft" format="1">
  <advance width="943"/>
  <unicode hex="005B"/>
  <outline>
    <contour>
      <point x="723" y="1664" type="line"/>
      <point x="347" y="1664" type="line"/>
      <point x="347" y="-312" type="line"/>
      <point x="723" y="-312" type="line"/>
      <point x="723" y="-160" type="line"/>
      <point x="532" y="-160" type="line"/>
      <point x="532" y="1512" type="line"/>
      <point x="723" y="1512" type="line"/>
    </contour>
  </outline>
</glyph>
<glyph name="grave" format="1">
  <advance width="1033"/>
  <unicode hex="0060"/>
  <outline>
    <contour>
      <point x="481" y="1536" type="line"/>
      <point x="257" y="1536" type="line"/>
      <point x="515" y="1242" type="line"/>
      <point x="674" y="1242" type="line"/>
    </contour>
    <contour>
      <point x="569" y="1642" type="move" name="mkmktop_acc"/>
    </contour>
    <contour>
      <point x="569" y="1290" type="move" name="_top"/>
    </contour>
  </outline>
</glyph>
<glyph name="a" format="1">
  <advance width="1514"/>
  <unicode hex="0061"/>
  <outline>
    <contour>
      <point x="979" y="185" type="line"/>
      <point x="979" y="124"/>
      <point x="990" y="42"/>
      <point x="1009" y="0" type="curve"/>
      <point x="1202" y="0" type="line"/>
      <point x="1202" y="16" type="line"/>
      <point x="1177" y="74"/>
      <point x="1164" y="164"/>
      <point x="1164" y="236" type="curve" smooth="yes"/>
      <point x="1164" y="740" type="line"/>
      <point x="1164" y="982"/>
      <point x="997" y="1102"/>
      <point x="761" y="1102" type="curve" smooth="yes"/>
      <point x="500" y="1102"/>
      <point x="332" y="937"/>
      <point x="332" y="782" type="curve"/>
      <point x="517" y="782" type="line"/>
      <point x="517" y="872"/>
      <point x="611" y="953"/>
      <point x="751" y="953" type="curve" smooth="yes"/>
      <point x="901" y="953"/>
      <point x="979" y="870"/>
      <point x="979" y="742" type="curve"/>
    </contour>
    <contour>
      <point x="1011" y="657" type="line"/>
      <point x="796" y="657" type="line"/>
      <point x="499" y="657"/>
      <point x="309" y="534"/>
      <point x="309" y="301" type="curve" smooth="yes"/>
      <point x="309" y="121"/>
      <point x="454" y="-20"/>
      <point x="674" y="-20" type="curve" smooth="yes"/>
      <point x="909" y="-20"/>
      <point x="1056" y="168"/>
      <point x="1076" y="278" type="curve"/>
      <point x="997" y="368" type="line"/>
      <point x="991" y="269"/>
      <point x="871" y="142"/>
      <point x="701" y="142" type="curve" smooth="yes"/>
      <point x="565" y="142"/>
      <point x="494" y="223"/>
      <point x="494" y="326" type="curve" smooth="yes"/>
      <point x="494" y="460"/>
      <point x="614" y="526"/>
      <point x="826" y="526" type="curve"/>
      <point x="1013" y="526" type="line"/>
    </contour>
    <contour>
      <point x="1170" y="0" type="move" name="ogonek"/>
    </contour>
    <contour>
      <point x="1314" y="1600" type="move" name="top_dd"/>
    </contour>
    <contour>
      <point x="900" y="1288" type="move" name="rhalfring"/>
    </contour>
    <contour>
      <point x="702" y="0" type="move" name="bottom"/>
    </contour>
    <contour>
      <point x="1314" y="-407" type="move" name="bottom_dd"/>
    </contour>
    <contour>
      <point x="1314" y="1290" type="move" name="top0315"/>
    </contour>
    <contour>
      <point x="1079" y="654" type="move" name="rhotichook"/>
    </contour>
    <contour>
      <point x="781" y="1290" type="move" name="top"/>
    </contour>
  </outline>
</glyph>
<glyph name="d" format="1">
  <advance width="1555"/>
  <unicode hex="0064"/>
  <outline>
    <contour>
      <point x="1023" y="210" type="line"/>
      <point x="1039" y="0" type="line"/>
      <point x="1208" y="0" type="line"/>
      <point x="1208" y="1536" type="line"/>
      <point x="1023" y="1536" type="line"/>
    </contour>
    <contour>
      <point x="295" y="529" type="line"/>
      <point x="295" y="213"/>
      <point x="467" y="-20"/>
      <point x="721" y="-20" type="curve" smooth="yes"/>
      <point x="995" y="-20"/>
      <point x="1129" y="177"/>
      <point x="1159" y="494" type="curve"/>
      <point x="1159" y="585" type="line"/>
      <point x="1128" y="905"/>
      <point x="995" y="1102"/>
      <point x="723" y="1102" type="curve" smooth="yes"/>
      <point x="465" y="1102"/>
      <point x="295" y="880"/>
      <point x="295" y="550" type="curve" smooth="yes"/>
    </contour>
    <contour>
      <point x="480" y="550" type="line"/>
      <point x="480" y="765"/>
      <point x="566" y="945"/>
      <point x="768" y="945" type="curve" smooth="yes"/>
      <point x="955" y="945"/>
      <point x="1039" y="806"/>
      <point x="1070" y="659" type="curve"/>
      <point x="1070" y="419" type="line"/>
      <point x="1030" y="269"/>
      <point x="950" y="138"/>
      <point x="766" y="138" type="curve" smooth="yes"/>
      <point x="566" y="138"/>
      <point x="480" y="314"/>
      <point x="480" y="529" type="curve" smooth="yes"/>
    </contour>
    <contour>
      <point x="1355" y="1600" type="move" name="top_dd"/>
    </contour>
    <contour>
      <point x="1075" y="1306" type="move" name="cross"/>
    </contour>
    <contour>
      <point x="817" y="0" type="move" name="bottom"/>
    </contour>
    <contour>
      <point x="1355" y="-407" type="move" name="bottom_dd"/>
    </contour>
    <contour>
      <point x="1355" y="1612" type="move" name="top0315"/>
    </contour>
    <contour>
      <point x="1315" y="1536" type="move" name="caron"/>
    </contour>
    <contour>
      <point x="749" y="1612" type="move" name="top"/>
    </contour>
  </outline>
</glyph>
<glyph name="f" format="1">
  <advance width="1111"/>
  <unicode hex="0066"/>
  <outline>
    <contour>
      <point x="617" y="0" type="line"/>
      <point x="617" y="1196" type="line"/>
      <point x="617" y="1326"/>
      <point x="686" y="1399"/>
      <point x="804" y="1399" type="curve" smooth="yes"/>
      <point x="840" y="1399"/>
      <point x="876" y="1395"/>
      <point x="905" y="1390" type="curve"/>
      <point x="914" y="1541" type="line"/>
      <point x="873" y="1551"/>
      <point x="829" y="1557"/>
      <point x="787" y="1557" type="curve" smooth="yes"/>
      <point x="566" y="1557"/>
      <point x="432" y="1429"/>
      <point x="432" y="1196" type="curve"/>
      <point x="432" y="0" type="line"/>
    </contour>
    <contour>
      <point x="847" y="1082" type="line"/>
      <point x="261" y="1082" type="line"/>
      <point x="261" y="939" type="line"/>
      <point x="847" y="939" type="line"/>
    </contour>
    <contour>
      <point x="911" y="1754" type="move" name="top0315"/>
    </contour>
    <contour>
      <point x="911" y="1600" type="move" name="top_dd"/>
    </contour>
    <contour>
      <point x="702" y="1754" type="move" name="top"/>
    </contour>
    <contour>
      <point x="911" y="-407" type="move" name="bottom_dd"/>
    </contour>
    <contour>
      <point x="530" y="10" type="move" name="bottom"/>
    </contour>
  </outline>
</glyph>
<glyph name="g" format="1">
  <advance width="1550"/>
  <unicode hex="0067"/>
  <outline>
    <contour>
      <point x="1042" y="1082" type="line"/>
      <point x="1025" y="844" type="line"/>
      <point x="1025" y="-11" type="line" smooth="yes"/>
      <point x="1025" y="-184"/>
      <point x="913" y="-277"/>
      <point x="738" y="-277" type="curve" smooth="yes"/>
      <point x="640" y="-277"/>
      <point x="538" y="-241"/>
      <point x="447" y="-131" type="curve"/>
      <point x="351" y="-242" type="line"/>
      <point x="448" y="-383"/>
      <point x="640" y="-429"/>
      <point x="752" y="-429" type="curve" smooth="yes"/>
      <point x="1022" y="-429"/>
      <point x="1210" y="-274"/>
      <point x="1210" y="-1" type="curve" smooth="yes"/>
      <point x="1210" y="1082" type="line"/>
    </contour>
    <contour>
      <point x="297" y="529" type="line"/>
      <point x="297" y="235"/>
      <point x="462" y="18"/>
      <point x="722" y="18" type="curve" smooth="yes"/>
      <point x="996" y="18"/>
      <point x="1130" y="211"/>
      <point x="1160" y="522" type="curve"/>
      <point x="1160" y="585" type="line"/>
      <point x="1129" y="905"/>
      <point x="995" y="1102"/>
      <point x="724" y="1102" type="curve" smooth="yes"/>
      <point x="460" y="1102"/>
      <point x="297" y="880"/>
      <point x="297" y="550" type="curve" smooth="yes"/>
    </contour>
    <contour>
      <point x="482" y="550" type="line"/>
      <point x="482" y="765"/>
      <point x="567" y="945"/>
      <point x="769" y="945" type="curve" smooth="yes"/>
      <point x="956" y="945"/>
      <point x="1040" y="806"/>
      <point x="1071" y="659" type="curve"/>
      <point x="1071" y="446" type="line"/>
      <point x="1030" y="302"/>
      <point x="951" y="176"/>
      <point x="767" y="176" type="curve" smooth="yes"/>
      <point x="567" y="176"/>
      <point x="482" y="335"/>
      <point x="482" y="529" type="curve" smooth="yes"/>
    </contour>
    <contour>
      <point x="1350" y="1290" type="move" name="top0315"/>
    </contour>
    <contour>
      <point x="1350" y="1600" type="move" name="top_dd"/>
    </contour>
    <contour>
      <point x="756" y="1290" type="move" name="top"/>
    </contour>
    <contour>
      <point x="1350" y="-407" type="move" name="bottom_dd"/>
    </contour>
    <contour>
      <point x="754" y="-447" type="move" name="bottom"/>
    </contour>
  </outline>
</glyph>
<glyph name="k" format="1">
  <advance width="1438"/>
  <unicode hex="006B"/>
  <outline>
    <contour>
      <point x="526" y="1536" type="line"/>
      <point x="341" y="1536" type="line"/>
      <point x="341" y="0" type="line"/>
      <point x="526" y="0" type="line"/>
    </contour>
    <contour>
      <point x="1188" y="1082" type="line"/>
      <point x="962" y="1082" type="line"/>
      <point x="626" y="727" type="line"/>
      <point x="436" y="500" type="line"/>
      <point x="452" y="302" type="line"/>
      <point x="716" y="577" type="line"/>
    </contour>
    <contour>
      <point x="1019" y="0" type="line"/>
      <point x="1236" y="0" type="line"/>
      <point x="728" y="681" type="line"/>
      <point x="632" y="516" type="line"/>
    </contour>
    <contour>
      <point x="1238" y="1600" type="move" name="top_dd"/>
    </contour>
    <contour>
      <point x="450" y="1289" type="move" name="cross"/>
    </contour>
    <contour>
      <point x="749" y="1611" type="move" name="marktop"/>
    </contour>
    <contour>
      <point x="729" y="71" type="move" name="bottom"/>
    </contour>
    <contour>
      <point x="1238" y="-407" type="move" name="bottom_dd"/>
    </contour>
    <contour>
      <point x="1108" y="1611" type="move" name="top0315"/>
    </contour>
    <contour>
      <point x="749" y="1611" type="move" name="top"/>
    </contour>
  </outline>
</glyph>
<glyph name="q" format="1">
  <advance width="1564"/>
  <unicode hex="0071"/>
  <outline>
    <contour>
      <point x="1023" y="-418" type="line"/>
      <point x="1208" y="-418" type="line"/>
      <point x="1208" y="1082" type="line"/>
      <point x="1038" y="1082" type="line"/>
      <point x="1023" y="874" type="line"/>
    </contour>
    <contour>
      <point x="295" y="529" type="line"/>
      <point x="295" y="213"/>
      <point x="457" y="-20"/>
      <point x="724" y="-20" type="curve" smooth="yes"/>
      <point x="999" y="-20"/>
      <point x="1139" y="177"/>
      <point x="1168" y="494" type="curve"/>
      <point x="1168" y="585" type="line"/>
      <point x="1137" y="905"/>
      <point x="998" y="1102"/>
      <point x="726" y="1102" type="curve" smooth="yes"/>
      <point x="455" y="1102"/>
      <point x="295" y="880"/>
      <point x="295" y="550" type="curve" smooth="yes"/>
    </contour>
    <contour>
      <point x="480" y="550" type="line"/>
      <point x="480" y="765"/>
      <point x="570" y="950"/>
      <point x="772" y="950" type="curve" smooth="yes"/>
      <point x="959" y="950"/>
      <point x="1049" y="805"/>
      <point x="1079" y="659" type="curve"/>
      <point x="1079" y="419" type="line"/>
      <point x="1039" y="269"/>
      <point x="954" y="132"/>
      <point x="770" y="132" type="curve" smooth="yes"/>
      <point x="570" y="132"/>
      <point x="480" y="314"/>
      <point x="480" y="529" type="curve" smooth="yes"/>
    </contour>
    <contour>
      <point x="737" y="1290" type="move" name="marktop"/>
    </contour>
    <contour>
      <point x="1364" y="1290" type="move" name="top0315"/>
    </contour>
    <contour>
      <point x="737" y="1290" type="move" name="top"/>
    </contour>
    <contour>
      <point x="1364" y="1600" type="move" name="top_dd"/>
    </contour>
    <contour>
      <point x="1364" y="-407" type="move" name="bottom_dd"/>
    </contour>
    <contour>
      <point x="1116" y="-407" type="move" name="bottom"/>
    </contour>
  </outline>
</glyph>
<glyph name="r" format="1">
  <advance width="1094"/>
  <unicode hex="0072"/>
  <outline>
    <contour>
      <point x="526" y="912" type="line"/>
      <point x="520" y="1082" type="line"/>
      <point x="341" y="1082" type="line"/>
      <point x="341" y="0" type="line"/>
      <point x="526" y="0" type="line"/>
    </contour>
    <contour>
      <point x="864" y="1088" type="line"/>
      <point x="851" y="1094"/>
      <point x="808" y="1102"/>
      <point x="782" y="1102" type="curve"/>
      <point x="548" y="1102"/>
      <point x="445" y="884"/>
      <point x="445" y="624" type="curve"/>
      <point x="498" y="654" type="line"/>
      <point x="514" y="811"/>
      <point x="601" y="923"/>
      <point x="773" y="923" type="curve"/>
      <point x="808" y="923"/>
      <point x="832" y="921"/>
      <point x="863" y="915" type="curve"/>
    </contour>
    <contour>
      <point x="894" y="1290" type="move" name="top0315"/>
    </contour>
    <contour>
      <point x="894" y="1600" type="move" name="top_dd"/>
    </contour>
    <contour>
      <point x="608" y="1290" type="move" name="top"/>
    </contour>
    <contour>
      <point x="894" y="-407" type="move" name="bottom_dd"/>
    </contour>
    <contour>
      <point x="446" y="11" type="move" name="bottom"/>
    </contour>
  </outline>
</glyph>
<glyph name="s" format="1">
  <advance width="1457"/>
  <unicode hex="0073"/>
  <outline>
    <contour>
      <point x="971" y="287" type="curve" smooth="yes"/>
      <point x="971" y="198"/>
      <point x="889" y="132"/>
      <point x="738" y="132" type="curve" smooth="yes"/>
      <point x="622" y="132"/>
      <point x="489" y="181"/>
      <point x="480" y="334" type="curve"/>
      <point x="295" y="334" type="line"/>
      <point x="295" y="155"/>
      <point x="451" y="-20"/>
      <point x="738" y="-20" type="curve" smooth="yes"/>
      <point x="990" y="-20"/>
      <point x="1156" y="111"/>
      <point x="1156" y="301" type="curve"/>
      <point x="1156" y="476"/>
      <point x="1032" y="563"/>
      <point x="767" y="624" type="curve" smooth="yes"/>
      <point x="562" y="670"/>
      <point x="517" y="711"/>
      <point x="517" y="791" type="curve"/>
      <point x="517" y="870"/>
      <point x="578" y="950"/>
      <point x="733" y="950" type="curve" smooth="yes"/>
      <point x="879" y="950"/>
      <point x="960" y="853"/>
      <point x="960" y="764" type="curve"/>
      <point x="1145" y="764" type="line"/>
      <point x="1145" y="950"/>
      <point x="992" y="1102"/>
      <point x="733" y="1102" type="curve" smooth="yes"/>
      <point x="490" y="1102"/>
      <point x="332" y="957"/>
      <point x="332" y="786" type="curve"/>
      <point x="332" y="608"/>
      <point x="481" y="524"/>
      <point x="722" y="474" type="curve" smooth="yes"/>
      <point x="936" y="431"/>
      <point x="971" y="367"/>
    </contour>
    <contour>
      <point x="1257" y="1290" type="move" name="top0315"/>
    </contour>
    <contour>
      <point x="1257" y="1600" type="move" name="top_dd"/>
    </contour>
    <contour>
      <point x="762" y="1290" type="move" name="top"/>
    </contour>
    <contour>
      <point x="1257" y="-407" type="move" name="bottom_dd"/>
    </contour>
    <contour>
      <point x="762" y="-10" type="move" name="bottom"/>
    </contour>
  </outline>
</glyph>
<glyph name="u" format="1">
  <advance width="1529"/>
  <unicode hex="0075"/>
  <outline>
    <contour>
      <point x="1004" y="250" type="line"/>
      <point x="1013" y="0" type="line"/>
      <point x="1189" y="0" type="line"/>
      <point x="1189" y="1082" type="line"/>
      <point x="1004" y="1082" type="line"/>
    </contour>
    <contour>
      <point x="1038" y="478" type="line"/>
      <point x="1038" y="288"/>
      <point x="957" y="138"/>
      <point x="721" y="138" type="curve" smooth="yes"/>
      <point x="620" y="138"/>
      <point x="522" y="187"/>
      <point x="522" y="382" type="curve"/>
      <point x="522" y="1082" type="line"/>
      <point x="337" y="1082" type="line"/>
      <point x="337" y="384" type="line"/>
      <point x="337" y="96"/>
      <point x="480" y="-20"/>
      <point x="692" y="-20" type="curve" smooth="yes"/>
      <point x="1002" y="-20"/>
      <point x="1115" y="192"/>
      <point x="1115" y="480" type="curve"/>
    </contour>
    <contour>
      <point x="1179" y="0" type="move" name="ogonek"/>
    </contour>
    <contour>
      <point x="1329" y="1600" type="move" name="top_dd"/>
    </contour>
    <contour>
      <point x="763" y="0" type="move" name="bottom"/>
    </contour>
    <contour>
      <point x="1329" y="-407" type="move" name="bottom_dd"/>
    </contour>
    <contour>
      <point x="1329" y="1290" type="move" name="top0315"/>
    </contour>
    <contour>
      <point x="1120" y="654" type="move" name="rhotichook"/>
    </contour>
    <contour>
      <point x="709" y="0" type="move" name="bottomu"/>
    </contour>
    <contour>
      <point x="767" y="1290" type="move" name="top"/>
    </contour>
  </outline>
</glyph>
<glyph name="y" format="1">
  <advance width="1369"/>
  <unicode hex="0079"/>
  <outline>
    <contour>
      <point x="645" y="112" type="line"/>
      <point x="562" y="-106" type="line" smooth="yes"/>
      <point x="513" y="-238"/>
      <point x="454" y="-283"/>
      <point x="328" y="-283" type="curve" smooth="yes"/>
      <point x="318" y="-283"/>
      <point x="289" y="-281"/>
      <point x="278" y="-279" type="curve"/>
      <point x="278" y="-430" type="line"/>
      <point x="298" y="-435"/>
      <point x="352" y="-446"/>
      <point x="383" y="-446" type="curve" smooth="yes"/>
      <point x="579" y="-446"/>
      <point x="667" y="-282"/>
      <point x="703" y="-176" type="curve" smooth="yes"/>
      <point x="1144" y="1082" type="line"/>
      <point x="947" y="1082" type="line"/>
    </contour>
    <contour>
      <point x="424" y="1082" type="line"/>
      <point x="222" y="1082" type="line"/>
      <point x="620" y="-21" type="line"/>
      <point x="753" y="47" type="line"/>
      <point x="705" y="243" type="line"/>
    </contour>
    <contour>
      <point x="1169" y="1600" type="move" name="top_dd"/>
    </contour>
    <contour>
      <point x="912" y="-158" type="move" name="bottom"/>
    </contour>
    <contour>
      <point x="708" y="1290" type="move" name="marktop"/>
    </contour>
    <contour>
      <point x="1169" y="-407" type="move" name="bottom_dd"/>
    </contour>
    <contour>
      <point x="1169" y="1290" type="move" name="top0315"/>
    </contour>
    <contour>
      <point x="938" y="654" type="move" name="rhotichook"/>
    </contour>
    <contour>
      <point x="708" y="1290" type="move" name="top"/>
    </contour>
  </outline>
</glyph>
<glyph name="z" format="1">
  <advance width="1416"/>
  <unicode hex="007A"/>
  <outline>
    <contour>
      <point x="1147" y="152" type="line"/>
      <point x="359" y="152" type="line"/>
      <point x="359" y="0" type="line"/>
      <point x="1147" y="0" type="line"/>
    </contour>
    <contour>
      <point x="1118" y="951" type="line"/>
      <point x="1118" y="1082" type="line"/>
      <point x="1000" y="1082" type="line"/>
      <point x="289" y="136" type="line"/>
      <point x="289" y="0" type="line"/>
      <point x="402" y="0" type="line"/>
    </contour>
    <contour>
      <point x="1036" y="1082" type="line"/>
      <point x="297" y="1082" type="line"/>
      <point x="297" y="929" type="line"/>
      <point x="1036" y="929" type="line"/>
    </contour>
    <contour>
      <point x="1216" y="1290" type="move" name="top0315"/>
    </contour>
    <contour>
      <point x="1216" y="1600" type="move" name="top_dd"/>
    </contour>
    <contour>
      <point x="714" y="1290" type="move" name="top"/>
    </contour>
    <contour>
      <point x="1216" y="-407" type="move" name="bottom_dd"/>
    </contour>
    <contour>
      <point x="726" y="10" type="move" name="bottom"/>
    </contour>
  </outline>
</glyph>
<glyph name="braceright" format="1">
  <advance width="1093"/>
  <unicode hex="007D"/>
  <outline>
    <contour>
      <point x="220" y="1483" type="line"/>
      <point x="379" y="1433"/>
      <point x="429" y="1296"/>
      <point x="429" y="1132" type="curve" smooth="yes"/>
      <point x="429" y="926" type="line" smooth="yes"/>
      <point x="429" y="724"/>
      <point x="545" y="575"/>
      <point x="827" y="575" type="curve"/>
      <point x="827" y="689" type="line"/>
      <point x="677" y="689"/>
      <point x="614" y="781"/>
      <point x="614" y="926" type="curve" smooth="yes"/>
      <point x="614" y="1132" type="line" smooth="yes"/>
      <point x="614" y="1342"/>
      <point x="531" y="1520"/>
      <point x="258" y="1597" type="curve"/>
    </contour>
    <contour>
      <point x="258" y="-366" type="line"/>
      <point x="531" y="-289"/>
      <point x="614" y="-110"/>
      <point x="614" y="100" type="curve" smooth="yes"/>
      <point x="614" y="306" type="line" smooth="yes"/>
      <point x="614" y="450"/>
      <point x="677" y="543"/>
      <point x="827" y="543" type="curve"/>
      <point x="827" y="655" type="line"/>
      <point x="545" y="655"/>
      <point x="429" y="507"/>
      <point x="429" y="306" type="curve" smooth="yes"/>
      <point x="429" y="100" type="line" smooth="yes"/>
      <point x="429" y="-65"/>
      <point x="378" y="-200"/>
      <point x="220" y="-251" type="curve"/>
    </contour>
  </outline>
</glyph>
<glyph name="exclamdown" format="1">
  <advance width="899"/>
  <unicode hex="00A1"/>
  <outline>
    <contour>
      <point x="357" y="-361" type="line"/>
      <point x="551" y="-361" type="line"/>
      <point x="538" y="684" type="line"/>
      <point x="371" y="684" type="line"/>
    </contour>
    <contour>
      <point x="558" y="996" type="curve" smooth="yes"/>
      <point x="558" y="1055"/>
      <point x="521" y="1101"/>
      <point x="449" y="1101" type="curve" smooth="yes"/>
      <point x="378" y="1101"/>
      <point x="339" y="1055"/>
      <point x="339" y="996" type="curve" smooth="yes"/>
      <point x="339" y="937"/>
      <point x="378" y="889"/>
      <point x="449" y="889" type="curve" smooth="yes"/>
      <point x="521" y="889"/>
      <point x="558" y="937"/>
    </contour>
  </outline>
</glyph>
<glyph name="copyright" format="1">
  <advance width="2009"/>
  <unicode hex="00A9"/>
  <outline>
    <contour>
      <point x="1174" y="598" type="line"/>
      <point x="1174" y="464"/>
      <point x="1110" y="412"/>
      <point x="988" y="412" type="curve" smooth="yes"/>
      <point x="856" y="412"/>
      <point x="786" y="519"/>
      <point x="786" y="671" type="curve" smooth="yes"/>
      <point x="786" y="787" type="line" smooth="yes"/>
      <point x="786" y="937"/>
      <point x="856" y="1045"/>
      <point x="988" y="1045" type="curve" smooth="yes"/>
      <point x="1110" y="1045"/>
      <point x="1175" y="992"/>
      <point x="1175" y="860" type="curve"/>
      <point x="1321" y="860" type="line"/>
      <point x="1321" y="1069"/>
      <point x="1192" y="1173"/>
      <point x="988" y="1173" type="curve" smooth="yes"/>
      <point x="776" y="1173"/>
      <point x="642" y="1015"/>
      <point x="642" y="786" type="curve"/>
      <point x="642" y="671" type="line"/>
      <point x="642" y="441"/>
      <point x="776" y="284"/>
      <point x="988" y="284" type="curve" smooth="yes"/>
      <point x="1192" y="284"/>
      <point x="1320" y="388"/>
      <point x="1320" y="598" type="curve"/>
    </contour>
    <contour>
      <point x="407" y="729" type="curve"/>
      <point x="407" y="1085"/>
      <point x="673" y="1356"/>
      <point x="1002" y="1356" type="curve" smooth="yes"/>
      <point x="1329" y="1356"/>
      <point x="1595" y="1085"/>
      <point x="1595" y="729" type="curve" smooth="yes"/>
      <point x="1595" y="373"/>
      <point x="1329" y="99"/>
      <point x="1002" y="99" type="curve" smooth="yes"/>
      <point x="673" y="99"/>
      <point x="407" y="373"/>
    </contour>
    <contour>
      <point x="292" y="729" type="curve"/>
      <point x="292" y="306"/>
      <point x="610" y="-21"/>
      <point x="1002" y="-21" type="curve" smooth="yes"/>
      <point x="1393" y="-21"/>
      <point x="1711" y="306"/>
      <point x="1711" y="729" type="curve" smooth="yes"/>
      <point x="1711" y="1152"/>
      <point x="1393" y="1476"/>
      <point x="1002" y="1476" type="curve" smooth="yes"/>
      <point x="610" y="1476"/>
      <point x="292" y="1152"/>
    </contour>
  </outline>
</glyph>
<glyph name="ordfeminine" format="1">
  <advance width="1316"/>
  <unicode hex="00AA"/>
  <outline>
    <contour>
      <point x="795" y="862" type="line"/>
      <point x="795" y="807"/>
      <point x="804" y="753"/>
      <point x="819" y="706" type="curve"/>
      <point x="984" y="706" type="line"/>
      <point x="965" y="764"/>
      <point x="958" y="822"/>
      <point x="958" y="887" type="curve" smooth="yes"/>
      <point x="958" y="1201" type="line"/>
      <point x="958" y="1384"/>
      <point x="843" y="1477"/>
      <point x="671" y="1477" type="curve" smooth="yes"/>
      <point x="484" y="1477"/>
      <point x="362" y="1379"/>
      <point x="362" y="1244" type="curve"/>
      <point x="522" y="1231" type="line"/>
      <point x="522" y="1299"/>
      <point x="579" y="1336"/>
      <point x="671" y="1336" type="curve" smooth="yes"/>
      <point x="754" y="1336"/>
      <point x="795" y="1288"/>
      <point x="795" y="1202" type="curve"/>
    </contour>
    <contour>
      <point x="835" y="1150" type="line"/>
      <point x="686" y="1150" type="line"/>
      <point x="459" y="1150"/>
      <point x="347" y="1065"/>
      <point x="347" y="918" type="curve" smooth="yes"/>
      <point x="347" y="781"/>
      <point x="436" y="692"/>
      <point x="596" y="692" type="curve" smooth="yes"/>
      <point x="732" y="692"/>
      <point x="811" y="772"/>
      <point x="841" y="837" type="curve"/>
      <point x="823" y="949" type="line"/>
      <point x="823" y="898"/>
      <point x="721" y="829"/>
      <point x="635" y="829" type="curve" smooth="yes"/>
      <point x="549" y="829"/>
      <point x="510" y="865"/>
      <point x="510" y="922" type="curve" smooth="yes"/>
      <point x="510" y="985"/>
      <point x="566" y="1037"/>
      <point x="687" y="1037" type="curve"/>
      <point x="836" y="1037" type="line"/>
    </contour>
  </outline>
</glyph>
<glyph name="registered" format="1">
  <advance width="2010"/>
  <unicode hex="00AE"/>
  <outline>
    <contour>
      <point x="1027" y="655" type="line"/>
      <point x="1066" y="655"/>
      <point x="1047" y="655"/>
      <point x="1082" y="676" type="curve" smooth="yes"/>
      <point x="1086" y="676"/>
      <point x="1091" y="689"/>
      <point x="1095" y="689" type="curve" smooth="yes"/>
      <point x="1233" y="727"/>
      <point x="1310" y="801"/>
      <point x="1310" y="910" type="curve"/>
      <point x="1310" y="1081"/>
      <point x="1186" y="1165"/>
      <point x="989" y="1165" type="curve"/>
      <point x="712" y="1165" type="line"/>
      <point x="712" y="317" type="line"/>
      <point x="853" y="317" type="line"/>
      <point x="853" y="1038" type="line"/>
      <point x="989" y="1038" type="line"/>
      <point x="1124" y="1038"/>
      <point x="1170" y="1003"/>
      <point x="1170" y="904" type="curve"/>
      <point x="1170" y="826"/>
      <point x="1095" y="785"/>
      <point x="1010" y="783" type="curve"/>
      <point x="807" y="783" type="line"/>
      <point x="809" y="655" type="line"/>
    </contour>
    <contour>
      <point x="1017" y="655" type="line"/>
      <point x="1124" y="655"/>
      <point x="1164" y="610"/>
      <point x="1164" y="513" type="curve"/>
      <point x="1164" y="461" type="line"/>
      <point x="1164" y="432"/>
      <point x="1164" y="351"/>
      <point x="1177" y="317" type="curve"/>
      <point x="1322" y="317" type="line"/>
      <point x="1322" y="333" type="line"/>
      <point x="1310" y="363"/>
      <point x="1305" y="410"/>
      <point x="1305" y="460" type="curve"/>
      <point x="1305" y="514" type="line"/>
      <point x="1305" y="647"/>
      <point x="1243" y="745"/>
      <point x="1037" y="745" type="curve"/>
    </contour>
    <contour>
      <point x="406" y="729" type="curve" smooth="yes"/>
      <point x="406" y="1085"/>
      <point x="672" y="1356"/>
      <point x="1001" y="1356" type="curve" smooth="yes"/>
      <point x="1328" y="1356"/>
      <point x="1595" y="1085"/>
      <point x="1595" y="729" type="curve" smooth="yes"/>
      <point x="1595" y="373"/>
      <point x="1328" y="99"/>
      <point x="1001" y="99" type="curve" smooth="yes"/>
      <point x="672" y="99"/>
      <point x="406" y="373"/>
    </contour>
    <contour>
      <point x="291" y="729" type="curve" smooth="yes"/>
      <point x="291" y="306"/>
      <point x="609" y="-21"/>
      <point x="1001" y="-21" type="curve" smooth="yes"/>
      <point x="1392" y="-21"/>
      <point x="1710" y="306"/>
      <point x="1710" y="729" type="curve" smooth="yes"/>
      <point x="1710" y="1152"/>
      <point x="1392" y="1476"/>
      <point x="1001" y="1476" type="curve" smooth="yes"/>
      <point x="609" y="1476"/>
      <point x="291" y="1152"/>
    </contour>
  </outline>
</glyph>
<glyph name="macron" format="1">
  <advance width="1338"/>
  <unicode hex="00AF"/>
  <outline>
    <contour>
      <point x="1014" y="1445" type="line"/>
      <point x="343" y="1445" type="line"/>
      <point x="343" y="1303" type="line"/>
      <point x="1014" y="1303" type="line"/>
    </contour>
    <contour>
      <point x="673" y="1577" type="move" name="mkmktop_acc"/>
    </contour>
    <contour>
      <point x="673" y="1282" type="move" name="_top"/>
    </contour>
  </outline>
</glyph>
<glyph name="degree" format="1">
  <advance width="1165"/>
  <unicode hex="00B0"/>
  <outline>
    <contour>
      <point x="331" y="1217" type="curve"/>
      <point x="331" y="1073"/>
      <point x="447" y="960"/>
      <point x="586" y="960" type="curve" smooth="yes"/>
      <point x="723" y="960"/>
      <point x="837" y="1073"/>
      <point x="837" y="1217" type="curve" smooth="yes"/>
      <point x="837" y="1359"/>
      <point x="723" y="1477"/>
      <point x="586" y="1477" type="curve" smooth="yes"/>
      <point x="447" y="1477"/>
      <point x="331" y="1359"/>
    </contour>
    <contour>
      <point x="455" y="1217" type="curve"/>
      <point x="455" y="1292"/>
      <point x="514" y="1349"/>
      <point x="586" y="1349" type="curve" smooth="yes"/>
      <point x="658" y="1349"/>
      <point x="713" y="1292"/>
      <point x="713" y="1217" type="curve" smooth="yes"/>
      <point x="713" y="1143"/>
      <point x="658" y="1088"/>
      <point x="586" y="1088" type="curve" smooth="yes"/>
      <point x="514" y="1088"/>
      <point x="455" y="1143"/>
    </contour>
  </outline>
</glyph>
<glyph name="plusminus" format="1">
  <advance width="1495"/>
  <unicode hex="00B1"/>
  <outline>
    <contour>
      <point x="1213" y="855" type="line"/>
      <point x="297" y="855" type="line"/>
      <point x="297" y="703" type="line"/>
      <point x="1213" y="703" type="line"/>
    </contour>
    <contour>
      <point x="850" y="1267" type="line"/>
      <point x="683" y="1267" type="line"/>
      <point x="683" y="289" type="line"/>
      <point x="850" y="289" type="line"/>
    </contour>
    <component base="minus" xOffset="-33" yOffset="-650"/>
  </outline>
</glyph>
<glyph name="cedilla" format="1">
  <advance width="908"/>
  <unicode hex="00B8"/>
  <outline>
    <contour>
      <point x="352" y="0" type="line"/>
      <point x="321" y="-135" type="line"/>
      <point x="433" y="-144"/>
      <point x="482" y="-163"/>
      <point x="482" y="-229" type="curve" smooth="yes"/>
      <point x="482" y="-300"/>
      <point x="408" y="-328"/>
      <point x="316" y="-328" type="curve"/>
      <point x="323" y="-435" type="line"/>
      <point x="521" y="-435"/>
      <point x="626" y="-351"/>
      <point x="626" y="-226" type="curve" smooth="yes"/>
      <point x="626" y="-110"/>
      <point x="550" y="-66"/>
      <point x="473" y="-53" type="curve"/>
      <point x="485" y="0" type="line"/>
    </contour>
    <contour>
      <point x="413" y="0" type="move" name="_bottom"/>
    </contour>
    <contour>
      <point x="413" y="-440" type="move" name="mkmkbottom_acc"/>
    </contour>
  </outline>
</glyph>
<glyph name="Oslash" format="1">
  <advance width="1809"/>
  <unicode hex="00D8"/>
  <outline>
    <contour>
      <point x="1509" y="1516" type="line"/>
      <point x="1369" y="1516" type="line"/>
      <point x="364" y="-93" type="line"/>
      <point x="507" y="-93" type="line"/>
    </contour>
    <component base="O"/>
    <contour>
      <point x="915" y="1674" type="move" name="top"/>
    </contour>
    <contour>
      <point x="1609" y="1674" type="move" name="top0315"/>
    </contour>
    <contour>
      <point x="1609" y="1600" type="move" name="top_dd"/>
    </contour>
  </outline>
</glyph>
<glyph name="Thorn" format="1">
  <advance width="1610"/>
  <unicode hex="00DE"/>
  <outline>
    <contour>
      <point x="367" y="1456" type="line"/>
      <point x="367" y="0" type="line"/>
      <point x="552" y="0" type="line"/>
      <point x="552" y="1456" type="line"/>
    </contour>
    <contour>
      <point x="460" y="1163" type="line"/>
      <point x="550" y="1011" type="line"/>
      <point x="829" y="1011" type="line" smooth="yes"/>
      <point x="1045" y="1011"/>
      <point x="1132" y="876"/>
      <point x="1132" y="736" type="curve" smooth="yes"/>
      <point x="1132" y="601"/>
      <point x="1045" y="466"/>
      <point x="829" y="466" type="curve" smooth="yes"/>
      <point x="511" y="466" type="line"/>
      <point x="511" y="314" type="line"/>
      <point x="829" y="314" type="line" smooth="yes"/>
      <point x="1145" y="314"/>
      <point x="1317" y="494"/>
      <point x="1317" y="738" type="curve" smooth="yes"/>
      <point x="1317" y="983"/>
      <point x="1145" y="1163"/>
      <point x="829" y="1163" type="curve" smooth="yes"/>
    </contour>
  </outline>
</glyph>
<glyph name="germandbls" format="1">
  <advance width="1618"/>
  <unicode hex="00DF"/>
  <outline>
    <contour>
      <point x="524" y="1033" type="line"/>
      <point x="524" y="1232"/>
      <point x="605" y="1322"/>
      <point x="742" y="1322" type="curve" smooth="yes"/>
      <point x="852" y="1322"/>
      <point x="935" y="1264"/>
      <point x="935" y="1150" type="curve" smooth="yes"/>
      <point x="935" y="1009"/>
      <point x="796" y="949"/>
      <point x="796" y="802" type="curve" smooth="yes"/>
      <point x="796" y="542"/>
      <point x="1145" y="490"/>
      <point x="1145" y="308" type="curve" smooth="yes"/>
      <point x="1145" y="210"/>
      <point x="1082" y="132"/>
      <point x="926" y="132" type="curve" smooth="yes"/>
      <point x="833" y="132"/>
      <point x="734" y="179"/>
      <point x="688" y="208" type="curve"/>
      <point x="646" y="52" type="line"/>
      <point x="697" y="15"/>
      <point x="836" y="-20"/>
      <point x="945" y="-20" type="curve" smooth="yes"/>
      <point x="1168" y="-20"/>
      <point x="1330" y="89"/>
      <point x="1330" y="317" type="curve" smooth="yes"/>
      <point x="1330" y="565"/>
      <point x="981" y="624"/>
      <point x="981" y="800" type="curve" smooth="yes"/>
      <point x="981" y="926"/>
      <point x="1109" y="968"/>
      <point x="1109" y="1166" type="curve" smooth="yes"/>
      <point x="1109" y="1377"/>
      <point x="950" y="1474"/>
      <point x="732" y="1474" type="curve" smooth="yes"/>
      <point x="499" y="1474"/>
      <point x="340" y="1325"/>
      <point x="340" y="1033" type="curve" smooth="yes"/>
      <point x="340" y="0" type="line"/>
      <point x="524" y="0" type="line"/>
    </contour>
  </outline>
</glyph>
<glyph name="ae" format="1">
  <advance width="2130"/>
  <unicode hex="00E6"/>
  <outline>
    <contour>
      <point x="949" y="183" type="line"/>
      <point x="1129" y="218" type="line"/>
      <point x="1129" y="718" type="line"/>
      <point x="1129" y="973"/>
      <point x="970" y="1102"/>
      <point x="735" y="1102" type="curve" smooth="yes"/>
      <point x="480" y="1102"/>
      <point x="307" y="965"/>
      <point x="307" y="778" type="curve"/>
      <point x="491" y="760" type="line"/>
      <point x="491" y="862"/>
      <point x="586" y="950"/>
      <point x="735" y="950" type="curve" smooth="yes"/>
      <point x="873" y="950"/>
      <point x="949" y="862"/>
      <point x="949" y="720" type="curve"/>
    </contour>
    <contour>
      <point x="990" y="636" type="line"/>
      <point x="727" y="636" type="line"/>
      <point x="433" y="636"/>
      <point x="279" y="514"/>
      <point x="279" y="304" type="curve" smooth="yes"/>
      <point x="279" y="107"/>
      <point x="405" y="-21"/>
      <point x="634" y="-21" type="curve" smooth="yes"/>
      <point x="887" y="-21"/>
      <point x="1034" y="97"/>
      <point x="1088" y="195" type="curve"/>
      <point x="992" y="340" type="line"/>
      <point x="990" y="258"/>
      <point x="815" y="131"/>
      <point x="669" y="131" type="curve" smooth="yes"/>
      <point x="529" y="131"/>
      <point x="464" y="206"/>
      <point x="464" y="300" type="curve" smooth="yes"/>
      <point x="464" y="404"/>
      <point x="554" y="495"/>
      <point x="729" y="495" type="curve"/>
      <point x="990" y="495" type="line"/>
    </contour>
    <contour>
      <point x="1463" y="-21" type="curve"/>
      <point x="1677" y="-21"/>
      <point x="1798" y="67"/>
      <point x="1843" y="102" type="curve"/>
      <point x="1778" y="238" type="line"/>
      <point x="1711" y="193"/>
      <point x="1621" y="131"/>
      <point x="1463" y="131" type="curve" smooth="yes"/>
      <point x="1232" y="131"/>
      <point x="1133" y="306"/>
      <point x="1133" y="520" type="curve" smooth="yes"/>
      <point x="1133" y="564" type="line" smooth="yes"/>
      <point x="1133" y="777"/>
      <point x="1236" y="950"/>
      <point x="1419" y="950" type="curve"/>
      <point x="1606" y="950"/>
      <point x="1676" y="822"/>
      <point x="1676" y="671" type="curve"/>
      <point x="1676" y="640" type="line"/>
      <point x="1057" y="640" type="line"/>
      <point x="1057" y="497" type="line"/>
      <point x="1861" y="497" type="line"/>
      <point x="1861" y="616" type="line" smooth="yes"/>
      <point x="1861" y="915"/>
      <point x="1706" y="1102"/>
      <point x="1419" y="1102" type="curve" smooth="yes"/>
      <point x="1155" y="1104"/>
      <point x="958" y="880"/>
      <point x="958" y="564" type="curve" smooth="yes"/>
      <point x="958" y="520" type="line" smooth="yes"/>
      <point x="958" y="205"/>
      <point x="1137" y="-21"/>
    </contour>
    <contour>
      <point x="1059" y="1291" type="move" name="top"/>
    </contour>
    <contour>
      <point x="1930" y="1291" type="move" name="top0315"/>
    </contour>
    <contour>
      <point x="1930" y="1600" type="move" name="top_dd"/>
    </contour>
  </outline>
</glyph>
<glyph name="divide" format="1">
  <advance width="1570"/>
  <unicode hex="00F7"/>
  <outline>
    <contour>
      <point x="1269" y="784" type="line"/>
      <point x="271" y="784" type="line"/>
      <point x="271" y="600" type="line"/>
      <point x="1269" y="600" type="line"/>
    </contour>
    <contour>
      <point x="662" y="1098" type="curve" smooth="yes"/>
      <point x="662" y="1037"/>
      <point x="701" y="989"/>
      <point x="776" y="989" type="curve" smooth="yes"/>
      <point x="851" y="989"/>
      <point x="891" y="1037"/>
      <point x="891" y="1098" type="curve" smooth="yes"/>
      <point x="891" y="1162"/>
      <point x="851" y="1211"/>
      <point x="776" y="1211" type="curve" smooth="yes"/>
      <point x="701" y="1211"/>
      <point x="662" y="1162"/>
    </contour>
    <contour>
      <point x="662" y="282" type="curve" smooth="yes"/>
      <point x="662" y="220"/>
      <point x="701" y="172"/>
      <point x="776" y="172" type="curve" smooth="yes"/>
      <point x="851" y="172"/>
      <point x="891" y="220"/>
      <point x="891" y="282" type="curve" smooth="yes"/>
      <point x="891" y="345"/>
      <point x="851" y="394"/>
      <point x="776" y="394" type="curve" smooth="yes"/>
      <point x="701" y="394"/>
      <point x="662" y="345"/>
    </contour>
  </outline>
</glyph>
<glyph name="oslash" format="1">
  <advance width="1560"/>
  <unicode hex="00F8"/>
  <outline>
    <contour>
      <point x="1183" y="1209" type="line"/>
      <point x="1060" y="1209" type="line"/>
      <point x="397" y="-135" type="line"/>
      <point x="520" y="-135" type="line"/>
    </contour>
    <component base="o"/>
    <contour>
      <point x="737" y="1289" type="move" name="top"/>
    </contour>
    <contour>
      <point x="1360" y="1289" type="move" name="top0315"/>
    </contour>
    <contour>
      <point x="1360" y="1600" type="move" name="top_dd"/>
    </contour>
  </outline>
</glyph>
<glyph name="idotless" format="1">
  <advance width="906"/>
  <unicode hex="0131"/>
  <outline>
    <contour>
      <point x="541" y="1082" type="line"/>
      <point x="356" y="1082" type="line"/>
      <point x="356" y="0" type="line"/>
      <point x="541" y="0" type="line"/>
    </contour>
    <contour>
      <point x="356" y="921" type="line"/>
      <point x="541" y="921" type="line"/>
      <point x="541" y="1082" type="line"/>
      <point x="356" y="1082" type="line"/>
    </contour>
    <contour>
      <point x="356" y="0" type="line"/>
      <point x="541" y="0" type="line"/>
      <point x="541" y="161" type="line"/>
      <point x="356" y="161" type="line"/>
    </contour>
    <contour>
      <point x="706" y="1288" type="move" name="top0315"/>
    </contour>
    <contour>
      <point x="477" y="654" type="move" name="rhotichook"/>
    </contour>
    <contour>
      <point x="452" y="1288" type="move" name="top"/>
    </contour>
    <contour>
      <point x="449" y="10" type="move" name="bottom"/>
    </contour>
  </outline>
</glyph>
<glyph name="eng" format="1">
  <advance width="1560"/>
  <unicode hex="014B"/>
  <outline>
    <contour>
      <point x="531" y="851" type="line"/>
      <point x="511" y="1082" type="line"/>
      <point x="346" y="1082" type="line"/>
      <point x="346" y="0" type="line"/>
      <point x="531" y="0" type="line"/>
    </contour>
    <contour>
      <point x="474" y="576" type="line"/>
      <point x="474" y="779"/>
      <point x="565" y="945"/>
      <point x="788" y="945" type="curve" smooth="yes"/>
      <point x="939" y="945"/>
      <point x="1024" y="879"/>
      <point x="1024" y="679" type="curve" smooth="yes"/>
      <point x="1024" y="-89" type="line" smooth="yes"/>
      <point x="1024" y="-211"/>
      <point x="973" y="-275"/>
      <point x="886" y="-275" type="curve" smooth="yes"/>
      <point x="867" y="-275"/>
      <point x="807" y="-270"/>
      <point x="786" y="-262" type="curve"/>
      <point x="772" y="-420" type="line"/>
      <point x="812" y="-433"/>
      <point x="845" y="-437"/>
      <point x="886" y="-437" type="curve" smooth="yes"/>
      <point x="1087" y="-437"/>
      <point x="1209" y="-314"/>
      <point x="1209" y="-89" type="curve" smooth="yes"/>
      <point x="1209" y="682" type="line" smooth="yes"/>
      <point x="1209" y="979"/>
      <point x="1068" y="1102"/>
      <point x="843" y="1102" type="curve" smooth="yes"/>
      <point x="586" y="1102"/>
      <point x="432" y="880"/>
      <point x="432" y="574" type="curve"/>
    </contour>
    <contour>
      <point x="763" y="10" type="move" name="markbottom"/>
    </contour>
    <contour>
      <point x="1360" y="1290" type="move" name="top0315"/>
    </contour>
    <contour>
      <point x="997" y="-304" type="move" name="parenthesses.w1"/>
    </contour>
    <contour>
      <point x="773" y="1290" type="move" name="top"/>
    </contour>
    <contour>
      <point x="763" y="10" type="move" name="bottom"/>
    </contour>
  </outline>
</glyph>
<glyph name="OE" format="1">
  <advance width="2353"/>
  <unicode hex="0152"/>
  <outline>
    <contour>
      <point x="860" y="1477" type="curve" smooth="yes"/>
      <point x="529" y="1477"/>
      <point x="305" y="1233"/>
      <point x="305" y="880" type="curve"/>
      <point x="305" y="576" type="line"/>
      <point x="305" y="223"/>
      <point x="531" y="-21"/>
      <point x="862" y="-21" type="curve" smooth="yes"/>
      <point x="964" y="-21"/>
      <point x="1064" y="-10"/>
      <point x="1154" y="0" type="curve"/>
      <point x="1154" y="158" type="line"/>
      <point x="1067" y="142"/>
      <point x="965" y="131"/>
      <point x="862" y="131" type="curve" smooth="yes"/>
      <point x="635" y="131"/>
      <point x="490" y="285"/>
      <point x="490" y="576" type="curve"/>
      <point x="490" y="882" type="line"/>
      <point x="490" y="1172"/>
      <point x="633" y="1325"/>
      <point x="860" y="1325" type="curve" smooth="yes"/>
      <point x="965" y="1325"/>
      <point x="1066" y="1314"/>
      <point x="1154" y="1298" type="curve"/>
      <point x="1154" y="1456" type="line"/>
      <point x="1064" y="1467"/>
      <point x="962" y="1477"/>
    </contour>
    <component base="E" xOffset="707"/>
    <contour>
      <point x="2153" y="1602" type="move" name="top0315"/>
    </contour>
    <contour>
      <point x="2153" y="1600" type="move" name="top_dd"/>
    </contour>
    <contour>
      <point x="1153" y="1602" type="move" name="top"/>
    </contour>
    <contour>
      <point x="2153" y="-407" type="move" name="bottom_dd"/>
    </contour>
    <contour>
      <point x="1153" y="0" type="move" name="bottom"/>
    </contour>
  </outline>
</glyph>
<glyph name="oe" format="1">
  <advance width="2260"/>
  <unicode hex="0153"/>
  <outline>
    <contour>
      <point x="1579" y="-21" type="curve"/>
      <point x="1775" y="-21"/>
      <point x="1895" y="49"/>
      <point x="1961" y="113" type="curve"/>
      <point x="1888" y="239" type="line"/>
      <point x="1821" y="179"/>
      <point x="1725" y="131"/>
      <point x="1579" y="131" type="curve" smooth="yes"/>
      <point x="1378" y="131"/>
      <point x="1275" y="306"/>
      <point x="1275" y="520" type="curve" smooth="yes"/>
      <point x="1275" y="564" type="line" smooth="yes"/>
      <point x="1275" y="777"/>
      <point x="1389" y="950"/>
      <point x="1551" y="950" type="curve"/>
      <point x="1728" y="950"/>
      <point x="1807" y="820"/>
      <point x="1807" y="675" type="curve"/>
      <point x="1807" y="649" type="line"/>
      <point x="1199" y="649" type="line"/>
      <point x="1199" y="497" type="line"/>
      <point x="1992" y="497" type="line"/>
      <point x="1992" y="619" type="line" smooth="yes"/>
      <point x="1992" y="902"/>
      <point x="1849" y="1102"/>
      <point x="1551" y="1102" type="curve" smooth="yes"/>
      <point x="1308" y="1104"/>
      <point x="1090" y="880"/>
      <point x="1090" y="564" type="curve" smooth="yes"/>
      <point x="1090" y="520" type="line" smooth="yes"/>
      <point x="1090" y="205"/>
      <point x="1280" y="-21"/>
    </contour>
    <contour>
      <point x="297" y="529" type="line"/>
      <point x="297" y="216"/>
      <point x="478" y="-21"/>
      <point x="781" y="-21" type="curve" smooth="yes"/>
      <point x="1085" y="-21"/>
      <point x="1264" y="216"/>
      <point x="1264" y="529" type="curve"/>
      <point x="1264" y="552" type="line"/>
      <point x="1264" y="865"/>
      <point x="1085" y="1102"/>
      <point x="779" y="1102" type="curve" smooth="yes"/>
      <point x="478" y="1102"/>
      <point x="297" y="865"/>
      <point x="297" y="552" type="curve"/>
    </contour>
    <contour>
      <point x="482" y="552" type="line"/>
      <point x="482" y="764"/>
      <point x="575" y="950"/>
      <point x="779" y="950" type="curve" smooth="yes"/>
      <point x="985" y="950"/>
      <point x="1079" y="764"/>
      <point x="1079" y="552" type="curve"/>
      <point x="1079" y="529" type="line"/>
      <point x="1079" y="315"/>
      <point x="985" y="131"/>
      <point x="781" y="131" type="curve" smooth="yes"/>
      <point x="575" y="131"/>
      <point x="482" y="315"/>
      <point x="482" y="529" type="curve"/>
    </contour>
    <contour>
      <point x="2060" y="1290" type="move" name="top0315"/>
    </contour>
    <contour>
      <point x="2060" y="1600" type="move" name="top_dd"/>
    </contour>
    <contour>
      <point x="1145" y="1290" type="move" name="top"/>
    </contour>
    <contour>
      <point x="2060" y="-407" type="move" name="bottom_dd"/>
    </contour>
    <contour>
      <point x="1145" y="-1" type="move" name="bottom"/>
    </contour>
  </outline>
</glyph>
<glyph name="Bhook" format="1">
  <advance width="1879"/>
  <unicode hex="0181"/>
  <outline>
    <contour>
      <point x="734" y="1298" type="line"/>
      <point x="734" y="1456" type="line"/>
      <point x="577" y="1456" type="line" smooth="yes"/>
      <point x="352" y="1456"/>
      <point x="229" y="1363"/>
      <point x="229" y="1173" type="curve" smooth="yes"/>
      <point x="229" y="1138"/>
      <point x="236" y="1089"/>
      <point x="246" y="1057" type="curve"/>
      <point x="395" y="1058" type="line"/>
      <point x="389" y="1078"/>
      <point x="386" y="1106"/>
      <point x="386" y="1125" type="curve" smooth="yes"/>
      <point x="386" y="1238"/>
      <point x="441" y="1298"/>
      <point x="577" y="1298" type="curve" smooth="yes"/>
    </contour>
    <component base="B" xOffset="204"/>
  </outline>
</glyph>
<glyph name="Tonesix" format="1">
  <advance width="1774"/>
  <unicode hex="0184"/>
  <outline>
    <contour>
      <point x="456" y="1456" type="line"/>
      <point x="456" y="1456"/>
      <point x="298" y="1249"/>
      <point x="298" y="1249" type="curve"/>
      <point x="298" y="1249"/>
      <point x="298" y="1173"/>
      <point x="298" y="1173" type="curve"/>
      <point x="298" y="1173"/>
      <point x="456" y="967"/>
      <point x="456" y="967" type="curve"/>
      <point x="502" y="967" type="line"/>
      <point x="503" y="1456" type="line"/>
    </contour>
    <component base="uni042C" xOffset="93"/>
  </outline>
</glyph>
<glyph name="Chook" format="1">
  <advance width="1848"/>
  <unicode hex="0187"/>
  <outline>
    <contour>
      <point x="1440" y="989" type="line"/>
      <point x="1440" y="1161" type="line" smooth="yes"/>
      <point x="1440" y="1300"/>
      <point x="1506" y="1345"/>
      <point x="1617" y="1345" type="curve" smooth="yes"/>
      <point x="1636" y="1345"/>
      <point x="1664" y="1342"/>
      <point x="1684" y="1336" type="curve"/>
      <point x="1686" y="1491" type="line"/>
      <point x="1654" y="1502"/>
      <point x="1605" y="1509"/>
      <point x="1570" y="1509" type="curve" smooth="yes"/>
      <point x="1380" y="1509"/>
      <point x="1285" y="1386"/>
      <point x="1285" y="1161" type="curve" smooth="yes"/>
      <point x="1285" y="989" type="line"/>
    </contour>
    <component base="C"/>
  </outline>
</glyph>
<glyph name="Eturn" format="1">
  <advance width="1564"/>
  <unicode hex="018E"/>
  <outline>
    <contour>
      <point x="270" y="1298" type="line"/>
      <point x="1041" y="1298" type="line"/>
      <point x="1041" y="1456" type="line"/>
      <point x="270" y="1456" type="line"/>
    </contour>
    <contour>
      <point x="1003" y="0" type="line"/>
      <point x="1195" y="0" type="line"/>
      <point x="1195" y="1456" type="line"/>
      <point x="1003" y="1456" type="line"/>
    </contour>
    <contour>
      <point x="372" y="629" type="line"/>
      <point x="1041" y="629" type="line"/>
      <point x="1041" y="787" type="line"/>
      <point x="372" y="787" type="line"/>
    </contour>
    <contour>
      <point x="280" y="0" type="line"/>
      <point x="1041" y="0" type="line"/>
      <point x="1041" y="158" type="line"/>
      <point x="280" y="158" type="line"/>
    </contour>
  </outline>
</glyph>
<glyph name="florin" format="1">
  <advance width="1098"/>
  <unicode hex="0192"/>
  <outline>
    <contour>
      <point x="808" y="1082" type="line"/>
      <point x="605" y="1082" type="line"/>
      <point x="605" y="1196" type="line" smooth="yes"/>
      <point x="605" y="1326"/>
      <point x="661" y="1399"/>
      <point x="780" y="1399" type="curve" smooth="yes"/>
      <point x="819" y="1399"/>
      <point x="854" y="1395"/>
      <point x="878" y="1389" type="curve"/>
      <point x="901" y="1536" type="line"/>
      <point x="853" y="1548"/>
      <point x="806" y="1557"/>
      <point x="758" y="1557" type="curve" smooth="yes"/>
      <point x="547" y="1557"/>
      <point x="420" y="1429"/>
      <point x="420" y="1196" type="curve" smooth="yes"/>
      <point x="420" y="1082" type="line"/>
      <point x="249" y="1082" type="line"/>
      <point x="249" y="939" type="line"/>
      <point x="420" y="939" type="line"/>
      <point x="420" y="-89" type="line" smooth="yes"/>
      <point x="420" y="-211"/>
      <point x="369" y="-285"/>
      <point x="283" y="-285" type="curve" smooth="yes"/>
      <point x="264" y="-285"/>
      <point x="205" y="-280"/>
      <point x="185" y="-272" type="curve"/>
      <point x="171" y="-420" type="line"/>
      <point x="209" y="-433"/>
      <point x="242" y="-437"/>
      <point x="283" y="-437" type="curve" smooth="yes"/>
      <point x="484" y="-437"/>
      <point x="605" y="-314"/>
      <point x="605" y="-89" type="curve" smooth="yes"/>
      <point x="605" y="939" type="line"/>
      <point x="808" y="939" type="line"/>
    </contour>
  </outline>
</glyph>
<glyph name="Gamma1" format="1">
  <advance width="1686"/>
  <unicode hex="0194"/>
  <outline>
    <contour>
      <point x="221" y="1456" type="curve"/>
      <point x="812" y="107" type="line" smooth="yes"/>
      <point x="885" y="-59"/>
      <point x="913" y="-136"/>
      <point x="913" y="-194" type="curve" smooth="yes"/>
      <point x="913" y="-237"/>
      <point x="895" y="-272"/>
      <point x="842" y="-272" type="curve" smooth="yes"/>
      <point x="791" y="-272"/>
      <point x="771" y="-238"/>
      <point x="771" y="-194" type="curve" smooth="yes"/>
      <point x="771" y="-137"/>
      <point x="805" y="-51"/>
      <point x="874" y="107" type="curve" smooth="yes"/>
      <point x="1464" y="1456" type="line"/>
      <point x="1464" y="1456"/>
      <point x="1252" y="1456"/>
      <point x="1252" y="1456" type="curve"/>
      <point x="757" y="268" type="line" smooth="yes"/>
      <point x="652" y="13"/>
      <point x="587" y="-99"/>
      <point x="587" y="-194" type="curve" smooth="yes"/>
      <point x="587" y="-344"/>
      <point x="682" y="-429"/>
      <point x="842" y="-429" type="curve" smooth="yes"/>
      <point x="1003" y="-429"/>
      <point x="1098" y="-344"/>
      <point x="1098" y="-194" type="curve" smooth="yes"/>
      <point x="1098" y="-99"/>
      <point x="1026" y="13"/>
      <point x="923" y="268" type="curve" smooth="yes"/>
      <point x="435" y="1456" type="line"/>
      <point x="435" y="1456"/>
      <point x="221" y="1456"/>
    </contour>
  </outline>
</glyph>
<glyph name="khook" format="1">
  <advance width="1438"/>
  <unicode hex="0199"/>
  <outline>
    <contour>
      <point x="526" y="1163" type="line"/>
      <point x="341" y="1163" type="line"/>
      <point x="341" y="0" type="line"/>
      <point x="526" y="0" type="line"/>
    </contour>
    <contour>
      <point x="1188" y="1082" type="line"/>
      <point x="962" y="1082" type="line"/>
      <point x="626" y="727" type="line"/>
      <point x="436" y="500" type="line"/>
      <point x="452" y="302" type="line"/>
      <point x="716" y="577" type="line"/>
    </contour>
    <contour>
      <point x="1019" y="0" type="line"/>
      <point x="1236" y="0" type="line"/>
      <point x="728" y="681" type="line"/>
      <point x="632" y="516" type="line"/>
    </contour>
    <contour>
      <point x="526" y="1115" type="line"/>
      <point x="526" y="1255" type="line" smooth="yes"/>
      <point x="526" y="1377"/>
      <point x="583" y="1422"/>
      <point x="681" y="1422" type="curve" smooth="yes"/>
      <point x="698" y="1422"/>
      <point x="723" y="1419"/>
      <point x="740" y="1414" type="curve"/>
      <point x="742" y="1542" type="line"/>
      <point x="713" y="1551"/>
      <point x="671" y="1557"/>
      <point x="641" y="1557" type="curve" smooth="yes"/>
      <point x="476" y="1557"/>
      <point x="341" y="1450"/>
      <point x="341" y="1255" type="curve" smooth="yes"/>
      <point x="341" y="1115" type="line"/>
    </contour>
  </outline>
</glyph>
<glyph name="Ohorn" format="1">
  <advance width="1807"/>
  <unicode hex="01A0"/>
  <outline>
    <contour>
      <point x="1470" y="1592" type="line"/>
      <point x="1470" y="1422"/>
      <point x="1414" y="1321"/>
      <point x="1257" y="1321" type="curve"/>
      <point x="1257" y="1186" type="line"/>
      <point x="1512" y="1186"/>
      <point x="1637" y="1333"/>
      <point x="1637" y="1592" type="curve"/>
    </contour>
    <component base="O" xOffset="-17"/>
    <contour>
      <point x="903" y="1595" type="move" name="top"/>
    </contour>
    <contour>
      <point x="892" y="0" type="move" name="bottom"/>
    </contour>
    <contour>
      <point x="1607" y="1595" type="move" name="top0315"/>
    </contour>
  </outline>
</glyph>
<glyph name="ohorn" format="1">
  <advance width="1570"/>
  <unicode hex="01A1"/>
  <outline>
    <contour>
      <point x="1261" y="1201" type="line"/>
      <point x="1261" y="1058"/>
      <point x="1239" y="962"/>
      <point x="1089" y="962" type="curve"/>
      <point x="1089" y="845" type="line"/>
      <point x="1329" y="845"/>
      <point x="1410" y="981"/>
      <point x="1410" y="1201" type="curve"/>
    </contour>
    <component base="o"/>
    <contour>
      <point x="782" y="1290" type="move" name="top"/>
    </contour>
    <contour>
      <point x="782" y="-10" type="move" name="bottom"/>
    </contour>
    <contour>
      <point x="1370" y="1290" type="move" name="top0315"/>
    </contour>
  </outline>
</glyph>
<glyph name="OI" format="1">
  <advance width="2137"/>
  <unicode hex="01A2"/>
  <outline>
    <contour>
      <point x="1437" y="738" type="line"/>
      <point x="1254" y="738" type="line"/>
      <point x="1254" y="246" type="line"/>
      <point x="1214" y="202"/>
      <point x="1137" y="137"/>
      <point x="934" y="137" type="curve" smooth="yes"/>
      <point x="655" y="137"/>
      <point x="509" y="352"/>
      <point x="509" y="672" type="curve" smooth="yes"/>
      <point x="509" y="774" type="line"/>
      <point x="320" y="772" type="line"/>
      <point x="320" y="672" type="line" smooth="yes"/>
      <point x="320" y="224"/>
      <point x="575" y="-20"/>
      <point x="926" y="-20" type="curve" smooth="yes"/>
      <point x="1253" y="-20"/>
      <point x="1383" y="114"/>
      <point x="1437" y="193" type="curve"/>
    </contour>
    <contour>
      <point x="1437" y="1263" type="line"/>
      <point x="1383" y="1342"/>
      <point x="1253" y="1476"/>
      <point x="926" y="1476" type="curve" smooth="yes"/>
      <point x="573" y="1476"/>
      <point x="320" y="1219"/>
      <point x="320" y="784" type="curve" smooth="yes"/>
      <point x="320" y="693" type="line"/>
      <point x="509" y="691" type="line"/>
      <point x="509" y="784" type="line" smooth="yes"/>
      <point x="509" y="1123"/>
      <point x="675" y="1318"/>
      <point x="926" y="1318" type="curve" smooth="yes"/>
      <point x="1137" y="1318"/>
      <point x="1214" y="1254"/>
      <point x="1254" y="1210" type="curve"/>
      <point x="1254" y="699" type="line"/>
      <point x="1437" y="699" type="line"/>
    </contour>
    <contour>
      <point x="1765" y="1456" type="line"/>
      <point x="1621" y="1456" type="line"/>
      <point x="1351" y="1341" type="line"/>
      <point x="1351" y="1180" type="line"/>
      <point x="1580" y="1270" type="line"/>
      <point x="1580" y="-416" type="line"/>
      <point x="1765" y="-416" type="line"/>
    </contour>
  </outline>
</glyph>
<glyph name="oi" format="1">
  <advance width="1768"/>
  <unicode hex="01A3"/>
  <outline>
    <contour>
      <point x="774" y="132" type="curve" smooth="yes"/>
      <point x="584" y="132"/>
      <point x="478" y="277"/>
      <point x="478" y="520" type="curve" smooth="yes"/>
      <point x="478" y="562" type="line" smooth="yes"/>
      <point x="478" y="750"/>
      <point x="546" y="950"/>
      <point x="774" y="950" type="curve"/>
      <point x="836" y="950"/>
      <point x="889" y="932"/>
      <point x="931" y="901" type="curve"/>
      <point x="931" y="508" type="line"/>
      <point x="1116" y="508" type="line"/>
      <point x="1116" y="951" type="line"/>
      <point x="1041" y="1044"/>
      <point x="922" y="1102"/>
      <point x="774" y="1102" type="curve" smooth="yes"/>
      <point x="449" y="1102"/>
      <point x="293" y="852"/>
      <point x="293" y="562" type="curve" smooth="yes"/>
      <point x="293" y="520" type="line" smooth="yes"/>
      <point x="293" y="230"/>
      <point x="448" y="-20"/>
      <point x="774" y="-20" type="curve"/>
      <point x="912" y="-20"/>
      <point x="1036" y="42"/>
      <point x="1116" y="133" type="curve"/>
      <point x="1116" y="544" type="line"/>
      <point x="931" y="544" type="line"/>
      <point x="931" y="178" type="line"/>
      <point x="887" y="149"/>
      <point x="832" y="132"/>
    </contour>
    <contour>
      <point x="1421" y="1082" type="line"/>
      <point x="1274" y="1082" type="line"/>
      <point x="1027" y="949" type="line"/>
      <point x="1027" y="712" type="line"/>
      <point x="1236" y="837" type="line"/>
      <point x="1236" y="-416" type="line"/>
      <point x="1421" y="-416" type="line"/>
    </contour>
  </outline>
</glyph>
<glyph name="phook" format="1">
  <advance width="1550"/>
  <unicode hex="01A5"/>
  <outline>
    <contour>
      <point x="525" y="930" type="line"/>
      <point x="525" y="1074" type="line" smooth="yes"/>
      <point x="525" y="1195"/>
      <point x="582" y="1240"/>
      <point x="680" y="1240" type="curve" smooth="yes"/>
      <point x="697" y="1240"/>
      <point x="722" y="1238"/>
      <point x="739" y="1233" type="curve"/>
      <point x="740" y="1360" type="line"/>
      <point x="712" y="1370"/>
      <point x="670" y="1376"/>
      <point x="640" y="1376" type="curve" smooth="yes"/>
      <point x="475" y="1376"/>
      <point x="340" y="1268"/>
      <point x="340" y="1074" type="curve" smooth="yes"/>
      <point x="340" y="930" type="line"/>
    </contour>
    <contour>
      <point x="525" y="874" type="line"/>
      <point x="509" y="1082" type="line"/>
      <point x="340" y="1082" type="line"/>
      <point x="340" y="-416" type="line"/>
      <point x="525" y="-416" type="line"/>
    </contour>
    <contour>
      <point x="1255" y="550" type="line"/>
      <point x="1255" y="880"/>
      <point x="1105" y="1102"/>
      <point x="832" y="1102" type="curve" smooth="yes"/>
      <point x="560" y="1102"/>
      <point x="419" y="905"/>
      <point x="387" y="585" type="curve"/>
      <point x="387" y="475" type="line"/>
      <point x="417" y="170"/>
      <point x="559" y="-20"/>
      <point x="835" y="-20" type="curve" smooth="yes"/>
      <point x="1103" y="-20"/>
      <point x="1255" y="213"/>
      <point x="1255" y="529" type="curve" smooth="yes"/>
    </contour>
    <contour>
      <point x="1070" y="529" type="line"/>
      <point x="1070" y="314"/>
      <point x="980" y="132"/>
      <point x="780" y="132" type="curve" smooth="yes"/>
      <point x="597" y="132"/>
      <point x="516" y="259"/>
      <point x="477" y="400" type="curve"/>
      <point x="477" y="659" type="line"/>
      <point x="507" y="806"/>
      <point x="592" y="945"/>
      <point x="778" y="945" type="curve" smooth="yes"/>
      <point x="980" y="945"/>
      <point x="1070" y="765"/>
      <point x="1070" y="550" type="curve" smooth="yes"/>
    </contour>
  </outline>
</glyph>
<glyph name="Tonetwo" format="1">
  <advance width="1615"/>
  <unicode hex="01A7"/>
  <outline>
    <contour>
      <point x="470" y="368" type="curve" smooth="yes"/>
      <point x="470" y="504"/>
      <point x="541" y="570"/>
      <point x="817" y="650" type="curve" smooth="yes"/>
      <point x="1105" y="733"/>
      <point x="1289" y="854"/>
      <point x="1289" y="1079" type="curve" smooth="yes"/>
      <point x="1289" y="1306"/>
      <point x="1092" y="1476"/>
      <point x="794" y="1476" type="curve" smooth="yes"/>
      <point x="465" y="1476"/>
      <point x="280" y="1263"/>
      <point x="280" y="1036" type="curve"/>
      <point x="472" y="1036" type="line"/>
      <point x="472" y="1199"/>
      <point x="576" y="1318"/>
      <point x="794" y="1318" type="curve" smooth="yes"/>
      <point x="1000" y="1318"/>
      <point x="1096" y="1217"/>
      <point x="1096" y="1082" type="curve" smooth="yes"/>
      <point x="1096" y="960"/>
      <point x="995" y="884"/>
      <point x="755" y="818" type="curve"/>
      <point x="425" y="725"/>
      <point x="277" y="596"/>
      <point x="277" y="370" type="curve" smooth="yes"/>
      <point x="277" y="133"/>
      <point x="477" y="-20"/>
      <point x="784" y="-20" type="curve" smooth="yes"/>
      <point x="1053" y="-20"/>
      <point x="1335" y="132"/>
      <point x="1335" y="422" type="curve"/>
      <point x="1143" y="422" type="line"/>
      <point x="1143" y="224"/>
      <point x="972" y="138"/>
      <point x="784" y="138" type="curve" smooth="yes"/>
      <point x="583" y="138"/>
      <point x="470" y="227"/>
    </contour>
  </outline>
</glyph>
<glyph name="eshlooprev" format="1">
  <advance width="1355"/>
  <unicode hex="01AA"/>
  <outline>
    <contour>
      <point x="716" y="1138" type="line"/>
      <point x="716" y="-61" type="line" smooth="yes"/>
      <point x="716" y="-286"/>
      <point x="809" y="-409"/>
      <point x="999" y="-409" type="curve" smooth="yes"/>
      <point x="1034" y="-409"/>
      <point x="1083" y="-402"/>
      <point x="1115" y="-392" type="curve"/>
      <point x="1113" y="-243" type="line"/>
      <point x="1093" y="-249"/>
      <point x="1065" y="-252"/>
      <point x="1046" y="-252" type="curve" smooth="yes"/>
      <point x="953" y="-252"/>
      <point x="901" y="-201"/>
      <point x="901" y="-61" type="curve" smooth="yes"/>
      <point x="901" y="1221" type="line"/>
    </contour>
    <contour>
      <point x="222" y="1221" type="curve" smooth="yes"/>
      <point x="222" y="1032"/>
      <point x="374" y="882"/>
      <point x="561" y="882" type="curve" smooth="yes"/>
      <point x="749" y="882"/>
      <point x="901" y="1034"/>
      <point x="901" y="1221" type="curve" smooth="yes"/>
      <point x="901" y="1410"/>
      <point x="749" y="1562"/>
      <point x="561" y="1562" type="curve" smooth="yes"/>
      <point x="375" y="1562"/>
      <point x="222" y="1410"/>
    </contour>
    <contour>
      <point x="562" y="1054" type="curve" smooth="yes"/>
      <point x="469" y="1054"/>
      <point x="395" y="1112"/>
      <point x="395" y="1222" type="curve" smooth="yes"/>
      <point x="395" y="1333"/>
      <point x="469" y="1393"/>
      <point x="562" y="1393" type="curve" smooth="yes"/>
      <point x="653" y="1393"/>
      <point x="727" y="1333"/>
      <point x="727" y="1222" type="curve" smooth="yes"/>
      <point x="727" y="1112"/>
      <point x="653" y="1054"/>
    </contour>
  </outline>
</glyph>
<glyph name="uhorn" format="1">
  <advance width="1667"/>
  <unicode hex="01B0"/>
  <outline>
    <contour>
      <point x="1354" y="1169" type="line"/>
      <point x="1354" y="1017"/>
      <point x="1347" y="952"/>
      <point x="1168" y="952" type="curve"/>
      <point x="1168" y="837" type="line"/>
      <point x="1424" y="837"/>
      <point x="1496" y="950"/>
      <point x="1496" y="1169" type="curve"/>
    </contour>
    <component base="u"/>
    <contour>
      <point x="1467" y="1269" type="move" name="top0315"/>
    </contour>
    <contour>
      <point x="780" y="1269" type="move" name="top"/>
    </contour>
    <contour>
      <point x="709" y="0" type="move" name="bottomu"/>
    </contour>
    <contour>
      <point x="1214" y="0" type="move" name="right"/>
    </contour>
    <contour>
      <point x="763" y="0" type="move" name="bottom"/>
    </contour>
  </outline>
</glyph>
<glyph name="Yhook" format="1">
  <advance width="1728"/>
  <unicode hex="01B3"/>
  <outline>
    <contour>
      <point x="744" y="580" type="line"/>
      <point x="773" y="507" type="line"/>
      <point x="892" y="507" type="line"/>
      <point x="1186" y="1040" type="line" smooth="yes"/>
      <point x="1281" y="1220"/>
      <point x="1308" y="1301"/>
      <point x="1400" y="1301" type="curve" smooth="yes"/>
      <point x="1451" y="1301"/>
      <point x="1485" y="1285"/>
      <point x="1513" y="1265" type="curve"/>
      <point x="1581" y="1397" type="line"/>
      <point x="1527" y="1444"/>
      <point x="1452" y="1476"/>
      <point x="1369" y="1476" type="curve" smooth="yes"/>
      <point x="1206" y="1476"/>
      <point x="1135" y="1347"/>
      <point x="1023" y="1122" type="curve" smooth="yes"/>
    </contour>
    <contour>
      <point x="435" y="1456" type="line"/>
      <point x="215" y="1456" type="line"/>
      <point x="737" y="507" type="line"/>
      <point x="848" y="507" type="line"/>
      <point x="885" y="577" type="line"/>
    </contour>
    <contour>
      <point x="910" y="677" type="line"/>
      <point x="717" y="677" type="line"/>
      <point x="717" y="0" type="line"/>
      <point x="910" y="0" type="line"/>
    </contour>
  </outline>
</glyph>
<glyph name="yhook" format="1">
  <advance width="1616"/>
  <unicode hex="01B4"/>
  <outline>
    <contour>
      <point x="647" y="117" type="line"/>
      <point x="570" y="-93" type="line" smooth="yes"/>
      <point x="519" y="-232"/>
      <point x="457" y="-275"/>
      <point x="335" y="-275" type="curve" smooth="yes"/>
      <point x="325" y="-275"/>
      <point x="295" y="-273"/>
      <point x="284" y="-271" type="curve"/>
      <point x="285" y="-421" type="line"/>
      <point x="304" y="-426"/>
      <point x="360" y="-437"/>
      <point x="388" y="-437" type="curve" smooth="yes"/>
      <point x="585" y="-437"/>
      <point x="674" y="-275"/>
      <point x="710" y="-167" type="curve" smooth="yes"/>
      <point x="1098" y="983" type="line" smooth="yes"/>
      <point x="1151" y="1143"/>
      <point x="1192" y="1228"/>
      <point x="1282" y="1228" type="curve" smooth="yes"/>
      <point x="1324" y="1228"/>
      <point x="1370" y="1210"/>
      <point x="1409" y="1187" type="curve"/>
      <point x="1453" y="1304" type="line"/>
      <point x="1404" y="1344"/>
      <point x="1331" y="1373"/>
      <point x="1257" y="1373" type="curve" smooth="yes"/>
      <point x="1042" y="1373"/>
      <point x="985" y="1184"/>
      <point x="942" y="1047" type="curve" smooth="yes"/>
    </contour>
    <contour>
      <point x="424" y="1082" type="line"/>
      <point x="222" y="1082" type="line"/>
      <point x="620" y="-21" type="line"/>
      <point x="751" y="47" type="line"/>
      <point x="664" y="364" type="line"/>
    </contour>
  </outline>
</glyph>
<glyph name="Zbar" format="1">
  <advance width="1627"/>
  <unicode hex="01B5"/>
  <outline>
    <contour>
      <point x="1272" y="813" type="line"/>
      <point x="324" y="813" type="line"/>
      <point x="324" y="661" type="line"/>
      <point x="1272" y="661" type="line"/>
    </contour>
    <component base="Z"/>
    <contour>
      <point x="816" y="1601" type="move" name="top"/>
    </contour>
    <contour>
      <point x="813" y="10" type="move" name="bottom"/>
    </contour>
    <contour>
      <point x="1427" y="1601" type="move" name="top0315"/>
    </contour>
  </outline>
</glyph>
<glyph name="uni01B7" format="1">
  <advance width="1719"/>
  <unicode hex="01B7"/>
  <outline>
    <contour>
      <point x="281" y="64" type="line"/>
      <point x="313" y="-209"/>
      <point x="482" y="-418"/>
      <point x="831" y="-418" type="curve" smooth="yes"/>
      <point x="1171" y="-418"/>
      <point x="1401" y="-246"/>
      <point x="1401" y="161" type="curve" smooth="yes"/>
      <point x="1401" y="568"/>
      <point x="1173" y="740"/>
      <point x="813" y="740" type="curve" smooth="yes"/>
      <point x="610" y="740" type="line"/>
      <point x="610" y="588" type="line"/>
      <point x="813" y="588" type="line" smooth="yes"/>
      <point x="1075" y="588"/>
      <point x="1208" y="472"/>
      <point x="1208" y="161" type="curve" smooth="yes"/>
      <point x="1208" y="-123"/>
      <point x="1093" y="-260"/>
      <point x="831" y="-260" type="curve" smooth="yes"/>
      <point x="581" y="-260"/>
      <point x="507" y="-143"/>
      <point x="473" y="64" type="curve"/>
    </contour>
    <contour>
      <point x="1323" y="1318" type="line"/>
      <point x="1323" y="1456" type="line"/>
      <point x="1236" y="1456" type="line"/>
      <point x="589" y="732" type="line"/>
      <point x="589" y="588" type="line"/>
      <point x="675" y="588" type="line"/>
    </contour>
    <contour>
      <point x="1242" y="1456" type="line"/>
      <point x="314" y="1456" type="line"/>
      <point x="314" y="1298" type="line"/>
      <point x="1242" y="1298" type="line"/>
    </contour>
  </outline>
</glyph>
<glyph name="uni01BA" format="1">
  <advance width="1491"/>
  <unicode hex="01BA"/>
  <outline>
    <contour>
      <point x="325" y="1082" type="line" name="hr00"/>
      <point x="325" y="930" type="line"/>
      <point x="919" y="930" type="line"/>
      <point x="530" y="624" type="line"/>
      <point x="530" y="505" type="line"/>
      <point x="675" y="505" type="line"/>
      <point x="1183" y="966" type="line"/>
      <point x="1182" y="1082" type="line"/>
    </contour>
    <contour>
      <point x="462" y="-130" type="curve" smooth="yes"/>
      <point x="462" y="-48"/>
      <point x="505" y="8"/>
      <point x="706" y="51" type="curve" smooth="yes"/>
      <point x="947" y="104"/>
      <point x="1100" y="180"/>
      <point x="1100" y="369" type="curve" smooth="yes"/>
      <point x="1100" y="540"/>
      <point x="943" y="657"/>
      <point x="700" y="657" type="curve" smooth="yes"/>
      <point x="631" y="657" type="line"/>
      <point x="632" y="505" type="line"/>
      <point x="700" y="505" type="line" smooth="yes"/>
      <point x="854" y="505"/>
      <point x="915" y="453"/>
      <point x="915" y="374" type="curve" smooth="yes"/>
      <point x="915" y="282"/>
      <point x="863" y="244"/>
      <point x="679" y="206" type="curve" smooth="yes"/>
      <point x="415" y="150"/>
      <point x="277" y="58"/>
      <point x="277" y="-116" type="curve" smooth="yes"/>
      <point x="277" y="-306"/>
      <point x="442" y="-437"/>
      <point x="694" y="-437" type="curve" smooth="yes"/>
      <point x="981" y="-437"/>
      <point x="1137" y="-262"/>
      <point x="1137" y="-83" type="curve"/>
      <point x="952" y="-83" type="line"/>
      <point x="944" y="-235"/>
      <point x="810" y="-285"/>
      <point x="694" y="-285" type="curve" smooth="yes"/>
      <point x="543" y="-285"/>
      <point x="462" y="-219"/>
    </contour>
  </outline>
</glyph>
<glyph name="tonefive" format="1">
  <advance width="1427"/>
  <unicode hex="01BD"/>
  <outline>
    <contour>
      <point x="516" y="474" type="line" name="hr00"/>
      <point x="554" y="531"/>
      <point x="617" y="585"/>
      <point x="739" y="585" type="curve"/>
      <point x="891" y="585"/>
      <point x="970" y="493"/>
      <point x="970" y="360" type="curve" smooth="yes"/>
      <point x="970" y="228"/>
      <point x="899" y="136"/>
      <point x="730" y="136" type="curve" smooth="yes"/>
      <point x="594" y="136"/>
      <point x="498" y="209"/>
      <point x="498" y="321" type="curve"/>
      <point x="320" y="306" type="line"/>
      <point x="320" y="86"/>
      <point x="545" y="-16"/>
      <point x="730" y="-16" type="curve" smooth="yes"/>
      <point x="1032" y="-16"/>
      <point x="1155" y="148"/>
      <point x="1155" y="362" type="curve" smooth="yes"/>
      <point x="1155" y="601"/>
      <point x="1011" y="740"/>
      <point x="772" y="736" type="curve" smooth="yes"/>
      <point x="685" y="734"/>
      <point x="599" y="703"/>
      <point x="551" y="672" type="curve"/>
      <point x="583" y="920" type="line"/>
      <point x="1100" y="920" type="line"/>
      <point x="1100" y="1082" type="line"/>
      <point x="427" y="1082" type="line"/>
      <point x="359" y="487" type="line"/>
    </contour>
    <contour>
      <point x="532" y="1082" type="line"/>
      <point x="241" y="1082" type="line"/>
      <point x="241" y="920" type="line"/>
      <point x="532" y="920" type="line"/>
    </contour>
  </outline>
</glyph>
<glyph name="uni01C5" format="1">
  <advance width="2627"/>
  <unicode hex="01C5"/>
  <outline>
    <contour>
      <point x="2358" y="152" type="line"/>
      <point x="1570" y="152" type="line"/>
      <point x="1570" y="0" type="line"/>
      <point x="2358" y="0" type="line"/>
    </contour>
    <contour>
      <point x="2329" y="951" type="line"/>
      <point x="2329" y="1082" type="line"/>
      <point x="2211" y="1082" type="line"/>
      <point x="1500" y="136" type="line"/>
      <point x="1500" y="0" type="line"/>
      <point x="1613" y="0" type="line"/>
    </contour>
    <contour>
      <point x="2247" y="1082" type="line"/>
      <point x="1508" y="1082" type="line"/>
      <point x="1508" y="929" type="line"/>
      <point x="2247" y="929" type="line"/>
    </contour>
    <contour>
      <point x="1775" y="1515" type="line"/>
      <point x="1617" y="1515" type="line"/>
      <point x="1617" y="1494" type="line"/>
      <point x="1867" y="1252" type="line"/>
      <point x="1982" y="1252" type="line"/>
      <point x="2236" y="1497" type="line"/>
      <point x="2236" y="1515" type="line"/>
      <point x="2074" y="1515" type="line"/>
      <point x="1925" y="1366" type="line"/>
    </contour>
    <component base="D"/>
  </outline>
</glyph>
<glyph name="uni01EF" format="1">
  <advance width="1592"/>
  <unicode hex="01EF"/>
  <outline>
    <contour>
      <point x="610" y="1515" type="line"/>
      <point x="452" y="1515" type="line"/>
      <point x="452" y="1494" type="line"/>
      <point x="702" y="1252" type="line"/>
      <point x="818" y="1252" type="line"/>
      <point x="1071" y="1497" type="line"/>
      <point x="1071" y="1515" type="line"/>
      <point x="910" y="1515" type="line"/>
      <point x="760" y="1366" type="line"/>
    </contour>
    <contour>
      <point x="348" y="1082" type="line"/>
      <point x="348" y="929" type="line"/>
      <point x="981" y="929" type="line"/>
      <point x="609" y="477" type="line"/>
      <point x="609" y="361" type="line"/>
      <point x="733" y="361" type="line"/>
      <point x="1219" y="964" type="line"/>
      <point x="1217" y="1082" type="line"/>
    </contour>
    <contour>
      <point x="609" y="472" type="line"/>
      <point x="609" y="325" type="line"/>
      <point x="750" y="325" type="line" smooth="yes"/>
      <point x="962" y="325"/>
      <point x="1079" y="239"/>
      <point x="1079" y="27" type="curve" smooth="yes"/>
      <point x="1079" y="-129"/>
      <point x="968" y="-243"/>
      <point x="775" y="-243" type="curve" smooth="yes"/>
      <point x="604" y="-243"/>
      <point x="491" y="-119"/>
      <point x="491" y="29" type="curve"/>
      <point x="306" y="29" type="line"/>
      <point x="306" y="-268"/>
      <point x="546" y="-395"/>
      <point x="775" y="-395" type="curve" smooth="yes"/>
      <point x="1059" y="-395"/>
      <point x="1264" y="-240"/>
      <point x="1264" y="31" type="curve" smooth="yes"/>
      <point x="1264" y="315"/>
      <point x="1076" y="472"/>
      <point x="754" y="472" type="curve" smooth="yes"/>
    </contour>
  </outline>
</glyph>
<glyph name="uni021C" format="1">
  <advance width="1629"/>
  <unicode hex="021C"/>
  <outline>
    <contour>
      <point x="388" y="329" type="line"/>
      <point x="920" y="464"/>
      <point x="1300" y="713"/>
      <point x="1300" y="1061" type="curve" smooth="yes"/>
      <point x="1300" y="1334"/>
      <point x="1100" y="1476"/>
      <point x="784" y="1476" type="curve" smooth="yes"/>
      <point x="517" y="1476"/>
      <point x="293" y="1321"/>
      <point x="293" y="1073" type="curve"/>
      <point x="485" y="1073" type="line"/>
      <point x="485" y="1220"/>
      <point x="622" y="1318"/>
      <point x="784" y="1318" type="curve" smooth="yes"/>
      <point x="1012" y="1318"/>
      <point x="1108" y="1202"/>
      <point x="1108" y="1065" type="curve" smooth="yes"/>
      <point x="1108" y="753"/>
      <point x="849" y="615"/>
      <point x="387" y="474" type="curve"/>
    </contour>
    <contour>
      <point x="964" y="635" type="line"/>
      <point x="1076" y="596"/>
      <point x="1130" y="509"/>
      <point x="1130" y="329" type="curve" smooth="yes"/>
      <point x="1130" y="-27"/>
      <point x="853" y="-179"/>
      <point x="388" y="-279" type="curve"/>
      <point x="388" y="-437" type="line"/>
      <point x="930" y="-321"/>
      <point x="1323" y="-144"/>
      <point x="1323" y="326" type="curve" smooth="yes"/>
      <point x="1323" y="555"/>
      <point x="1225" y="686"/>
      <point x="1059" y="744" type="curve"/>
    </contour>
  </outline>
</glyph>
<glyph name="uni0223" format="1">
  <advance width="1731"/>
  <unicode hex="0223"/>
  <outline>
    <contour>
      <point x="853" y="874" type="line"/>
      <point x="540" y="874"/>
      <point x="305" y="726"/>
      <point x="305" y="431" type="curve" smooth="yes"/>
      <point x="305" y="128"/>
      <point x="540" y="-21"/>
      <point x="853" y="-21" type="curve" smooth="yes"/>
      <point x="877" y="-21" type="line" smooth="yes"/>
      <point x="1190" y="-21"/>
      <point x="1427" y="128"/>
      <point x="1427" y="433" type="curve" smooth="yes"/>
      <point x="1427" y="726"/>
      <point x="1190" y="874"/>
      <point x="877" y="874" type="curve" smooth="yes"/>
    </contour>
    <contour>
      <point x="877" y="732" type="line"/>
      <point x="1091" y="732"/>
      <point x="1242" y="635"/>
      <point x="1242" y="433" type="curve" smooth="yes"/>
      <point x="1242" y="230"/>
      <point x="1091" y="131"/>
      <point x="877" y="131" type="curve" smooth="yes"/>
      <point x="853" y="131" type="line" smooth="yes"/>
      <point x="638" y="131"/>
      <point x="490" y="230"/>
      <point x="490" y="431" type="curve" smooth="yes"/>
      <point x="490" y="635"/>
      <point x="638" y="732"/>
      <point x="853" y="732" type="curve" smooth="yes"/>
    </contour>
    <contour>
      <point x="887" y="884" type="curve" smooth="yes"/>
      <point x="845" y="884" type="line" smooth="yes"/>
      <point x="654" y="884"/>
      <point x="490" y="939"/>
      <point x="490" y="1147" type="curve"/>
      <point x="490" y="1295"/>
      <point x="561" y="1368"/>
      <point x="696" y="1415" type="curve"/>
      <point x="696" y="1557" type="line"/>
      <point x="473" y="1547"/>
      <point x="305" y="1401"/>
      <point x="305" y="1147" type="curve" smooth="yes"/>
      <point x="305" y="850"/>
      <point x="554" y="742"/>
      <point x="845" y="742" type="curve" smooth="yes"/>
      <point x="887" y="742" type="line" smooth="yes"/>
      <point x="1178" y="742"/>
      <point x="1427" y="850"/>
      <point x="1427" y="1148" type="curve"/>
      <point x="1427" y="1402"/>
      <point x="1258" y="1547"/>
      <point x="1038" y="1557" type="curve"/>
      <point x="1038" y="1415" type="line"/>
      <point x="1172" y="1368"/>
      <point x="1242" y="1294"/>
      <point x="1242" y="1148" type="curve" smooth="yes"/>
      <point x="1242" y="939"/>
      <point x="1077" y="884"/>
    </contour>
  </outline>
</glyph>
<glyph name="uni0225" format="1">
  <advance width="1451"/>
  <unicode hex="0225"/>
  <outline>
    <contour>
      <point x="840" y="152" type="line"/>
      <point x="359" y="152" type="line"/>
      <point x="359" y="0" type="line"/>
      <point x="840" y="0" type="line"/>
    </contour>
    <contour>
      <point x="1118" y="951" type="line"/>
      <point x="1118" y="1082" type="line"/>
      <point x="1000" y="1082" type="line"/>
      <point x="289" y="136" type="line"/>
      <point x="289" y="0" type="line"/>
      <point x="402" y="0" type="line"/>
    </contour>
    <contour>
      <point x="1036" y="1082" type="line"/>
      <point x="297" y="1082" type="line"/>
      <point x="297" y="929" type="line"/>
      <point x="1036" y="929" type="line"/>
    </contour>
    <contour>
      <point x="701" y="0" type="line"/>
      <point x="857" y="0" type="line" smooth="yes"/>
      <point x="999" y="0"/>
      <point x="1051" y="-51"/>
      <point x="1051" y="-151" type="curve" smooth="yes"/>
      <point x="1051" y="-170"/>
      <point x="1048" y="-198"/>
      <point x="1042" y="-218" type="curve"/>
      <point x="1188" y="-219" type="line"/>
      <point x="1198" y="-188"/>
      <point x="1205" y="-138"/>
      <point x="1205" y="-103" type="curve" smooth="yes"/>
      <point x="1205" y="77"/>
      <point x="1082" y="152"/>
      <point x="857" y="152" type="curve" smooth="yes"/>
      <point x="701" y="152" type="line"/>
    </contour>
  </outline>
</glyph>
<glyph name="uni0234" format="1">
  <advance width="1275"/>
  <unicode hex="0234"/>
  <outline>
    <contour>
      <point x="439" y="226" type="curve"/>
      <point x="439" y="226"/>
      <point x="439" y="-123"/>
      <point x="439" y="-123" type="curve"/>
      <point x="439" y="-286"/>
      <point x="520" y="-437"/>
      <point x="750" y="-437" type="curve" smooth="yes"/>
      <point x="927" y="-437"/>
      <point x="1045" y="-326"/>
      <point x="1045" y="-173" type="curve" smooth="yes"/>
      <point x="1045" y="-3"/>
      <point x="924" y="89"/>
      <point x="766" y="89" type="curve" smooth="yes"/>
      <point x="649" y="89"/>
      <point x="548" y="35"/>
      <point x="447" y="-46" type="curve"/>
      <point x="220" y="-283" type="line"/>
      <point x="220" y="-283"/>
      <point x="330" y="-395"/>
      <point x="330" y="-395" type="curve"/>
      <point x="474" y="-235" type="line"/>
      <point x="575" y="-129"/>
      <point x="657" y="-63"/>
      <point x="743" y="-63" type="curve" smooth="yes"/>
      <point x="816" y="-63"/>
      <point x="860" y="-111"/>
      <point x="860" y="-173" type="curve" smooth="yes"/>
      <point x="860" y="-236"/>
      <point x="819" y="-285"/>
      <point x="752" y="-285" type="curve" smooth="yes"/>
      <point x="663" y="-285"/>
      <point x="624" y="-233"/>
      <point x="624" y="-164" type="curve" smooth="yes"/>
      <point x="624" y="-101"/>
      <point x="624" y="226"/>
      <point x="624" y="226" type="curve"/>
      <point x="624" y="226"/>
      <point x="439" y="226"/>
    </contour>
    <component base="l" xOffset="83"/>
  </outline>
</glyph>
<glyph name="uni0239" format="1">
  <advance width="2233"/>
  <unicode hex="0239"/>
  <outline>
    <contour>
      <point x="1023" y="-416" type="line"/>
      <point x="1208" y="-416" type="line"/>
      <point x="1208" y="874" type="line"/>
      <point x="1192" y="1082" type="line"/>
      <point x="1038" y="1082" type="line"/>
      <point x="1023" y="874" type="line"/>
    </contour>
    <contour>
      <point x="295" y="529" type="line"/>
      <point x="295" y="213"/>
      <point x="457" y="-20"/>
      <point x="724" y="-20" type="curve" smooth="yes"/>
      <point x="999" y="-20"/>
      <point x="1139" y="177"/>
      <point x="1168" y="494" type="curve"/>
      <point x="1168" y="585" type="line"/>
      <point x="1137" y="905"/>
      <point x="998" y="1102"/>
      <point x="726" y="1102" type="curve" smooth="yes"/>
      <point x="455" y="1102"/>
      <point x="295" y="880"/>
      <point x="295" y="550" type="curve" smooth="yes"/>
    </contour>
    <contour>
      <point x="480" y="550" type="line"/>
      <point x="480" y="765"/>
      <point x="570" y="950"/>
      <point x="772" y="950" type="curve" smooth="yes"/>
      <point x="959" y="950"/>
      <point x="1049" y="805"/>
      <point x="1079" y="659" type="curve"/>
      <point x="1079" y="419" type="line"/>
      <point x="1039" y="269"/>
      <point x="954" y="132"/>
      <point x="770" y="132" type="curve" smooth="yes"/>
      <point x="570" y="132"/>
      <point x="480" y="314"/>
      <point x="480" y="529" type="curve" smooth="yes"/>
    </contour>
    <contour>
      <point x="1938" y="550" type="line"/>
      <point x="1938" y="880"/>
      <point x="1788" y="1102"/>
      <point x="1515" y="1102" type="curve" smooth="yes"/>
      <point x="1243" y="1102"/>
      <point x="1102" y="905"/>
      <point x="1070" y="585" type="curve"/>
      <point x="1070" y="475" type="line"/>
      <point x="1100" y="170"/>
      <point x="1242" y="-20"/>
      <point x="1518" y="-20" type="curve" smooth="yes"/>
      <point x="1786" y="-20"/>
      <point x="1938" y="213"/>
      <point x="1938" y="529" type="curve" smooth="yes"/>
    </contour>
    <contour>
      <point x="1753" y="529" type="line"/>
      <point x="1753" y="314"/>
      <point x="1663" y="132"/>
      <point x="1463" y="132" type="curve" smooth="yes"/>
      <point x="1280" y="132"/>
      <point x="1200" y="259"/>
      <point x="1160" y="400" type="curve"/>
      <point x="1160" y="659" type="line"/>
      <point x="1190" y="806"/>
      <point x="1275" y="945"/>
      <point x="1461" y="945" type="curve" smooth="yes"/>
      <point x="1663" y="945"/>
      <point x="1753" y="765"/>
      <point x="1753" y="550" type="curve" smooth="yes"/>
    </contour>
  </outline>
</glyph>
<glyph name="uni023B" format="1">
  <advance width="1733"/>
  <unicode hex="023B"/>
  <outline>
    <contour>
      <point x="1295" y="1562" type="line"/>
      <point x="1164" y="1562" type="line"/>
      <point x="514" y="-125" type="line"/>
      <point x="645" y="-125" type="line"/>
    </contour>
    <component base="C"/>
  </outline>
</glyph>
<glyph name="uni023F" format="1">
  <advance width="1457"/>
  <unicode hex="023F"/>
  <outline>
    <contour>
      <point x="972" y="287" type="curve" smooth="yes"/>
      <point x="972" y="198"/>
      <point x="891" y="132"/>
      <point x="740" y="132" type="curve" smooth="yes"/>
      <point x="624" y="132"/>
      <point x="495" y="180"/>
      <point x="420" y="316" type="curve"/>
      <point x="290" y="240" type="line"/>
      <point x="532" y="-194" type="line" smooth="yes"/>
      <point x="621" y="-351"/>
      <point x="705" y="-437"/>
      <point x="830" y="-437" type="curve" smooth="yes"/>
      <point x="910" y="-437"/>
      <point x="991" y="-382"/>
      <point x="1034" y="-336" type="curve"/>
      <point x="970" y="-226" type="line"/>
      <point x="938" y="-257"/>
      <point x="887" y="-290"/>
      <point x="833" y="-290" type="curve" smooth="yes"/>
      <point x="751" y="-290"/>
      <point x="705" y="-208"/>
      <point x="601" y="-7" type="curve"/>
      <point x="642" y="-15"/>
      <point x="687" y="-20"/>
      <point x="740" y="-20" type="curve" smooth="yes"/>
      <point x="991" y="-20"/>
      <point x="1157" y="111"/>
      <point x="1157" y="301" type="curve" smooth="yes"/>
      <point x="1157" y="479"/>
      <point x="1015" y="567"/>
      <point x="779" y="622" type="curve" smooth="yes"/>
      <point x="635" y="654"/>
      <point x="519" y="679"/>
      <point x="519" y="791" type="curve" smooth="yes"/>
      <point x="519" y="870"/>
      <point x="580" y="950"/>
      <point x="734" y="950" type="curve" smooth="yes"/>
      <point x="880" y="950"/>
      <point x="961" y="853"/>
      <point x="961" y="764" type="curve"/>
      <point x="1146" y="764" type="line"/>
      <point x="1146" y="950"/>
      <point x="993" y="1102"/>
      <point x="734" y="1102" type="curve" smooth="yes"/>
      <point x="491" y="1102"/>
      <point x="334" y="957"/>
      <point x="334" y="786" type="curve" smooth="yes"/>
      <point x="334" y="603"/>
      <point x="486" y="526"/>
      <point x="727" y="473" type="curve" smooth="yes"/>
      <point x="919" y="431"/>
      <point x="972" y="378"/>
    </contour>
  </outline>
</glyph>
<glyph name="uni0240" format="1">
  <advance width="1418"/>
  <unicode hex="0240"/>
  <outline>
    <contour>
      <point x="359" y="152" type="line"/>
      <point x="359" y="0" type="line"/>
      <point x="538" y="0" type="line" smooth="yes"/>
      <point x="859" y="0"/>
      <point x="817" y="-437"/>
      <point x="1110" y="-437" type="curve" smooth="yes"/>
      <point x="1202" y="-437"/>
      <point x="1277" y="-382"/>
      <point x="1322" y="-337" type="curve"/>
      <point x="1258" y="-227" type="line"/>
      <point x="1220" y="-261"/>
      <point x="1176" y="-290"/>
      <point x="1119" y="-290" type="curve" smooth="yes"/>
      <point x="961" y="-290"/>
      <point x="940" y="152"/>
      <point x="603" y="152" type="curve" smooth="yes"/>
    </contour>
    <contour>
      <point x="1118" y="951" type="line"/>
      <point x="1118" y="1082" type="line"/>
      <point x="1000" y="1082" type="line"/>
      <point x="289" y="136" type="line"/>
      <point x="289" y="0" type="line"/>
      <point x="402" y="0" type="line"/>
    </contour>
    <contour>
      <point x="1036" y="1082" type="line"/>
      <point x="297" y="1082" type="line"/>
      <point x="297" y="929" type="line"/>
      <point x="1036" y="929" type="line"/>
    </contour>
  </outline>
</glyph>
<glyph name="uni0241" format="1">
  <advance width="1503"/>
  <unicode hex="0241"/>
  <outline>
    <contour>
      <point x="656" y="450" type="line"/>
      <point x="656" y="286" type="line"/>
      <point x="699" y="286" type="line" smooth="yes"/>
      <point x="1024" y="286"/>
      <point x="1185" y="535"/>
      <point x="1185" y="826" type="curve" smooth="yes"/>
      <point x="1185" y="936" type="line" smooth="yes"/>
      <point x="1185" y="1226"/>
      <point x="1024" y="1476"/>
      <point x="699" y="1476" type="curve" smooth="yes"/>
      <point x="446" y="1476"/>
      <point x="273" y="1307"/>
      <point x="263" y="1071" type="curve"/>
      <point x="443" y="1071" type="line"/>
      <point x="453" y="1218"/>
      <point x="550" y="1311"/>
      <point x="699" y="1311" type="curve" smooth="yes"/>
      <point x="927" y="1311"/>
      <point x="995" y="1124"/>
      <point x="995" y="936" type="curve" smooth="yes"/>
      <point x="995" y="826" type="line" smooth="yes"/>
      <point x="995" y="636"/>
      <point x="929" y="450"/>
      <point x="699" y="450" type="curve"/>
    </contour>
    <contour>
      <point x="802" y="450" type="line"/>
      <point x="610" y="450" type="line"/>
      <point x="610" y="0" type="line"/>
      <point x="802" y="0" type="line"/>
    </contour>
  </outline>
</glyph>
<glyph name="uni0242" format="1">
  <advance width="1375"/>
  <unicode hex="0242"/>
  <outline>
    <contour>
      <point x="261" y="700" type="curve"/>
      <point x="446" y="700" type="line"/>
      <point x="446" y="844"/>
      <point x="530" y="950"/>
      <point x="660" y="950" type="curve" smooth="yes"/>
      <point x="839" y="950"/>
      <point x="897" y="831"/>
      <point x="897" y="692" type="curve" smooth="yes"/>
      <point x="897" y="549"/>
      <point x="841" y="445"/>
      <point x="674" y="445" type="curve" smooth="yes"/>
      <point x="635" y="445" type="line"/>
      <point x="635" y="325" type="line"/>
      <point x="678" y="325" type="line" smooth="yes"/>
      <point x="973" y="325"/>
      <point x="1082" y="488"/>
      <point x="1082" y="688" type="curve" smooth="yes"/>
      <point x="1082" y="957"/>
      <point x="931" y="1102"/>
      <point x="660" y="1102" type="curve" smooth="yes"/>
      <point x="436" y="1102"/>
      <point x="261" y="948"/>
    </contour>
    <contour>
      <point x="589" y="445" type="line"/>
      <point x="589" y="0" type="line"/>
      <point x="774" y="0" type="line"/>
      <point x="774" y="445" type="line"/>
    </contour>
  </outline>
</glyph>
<glyph name="uni024C" format="1">
  <advance width="1722"/>
  <unicode hex="024C"/>
  <outline>
    <contour>
      <point x="433" y="1456" type="line"/>
      <point x="433" y="0" type="line"/>
      <point x="625" y="0" type="line"/>
      <point x="625" y="1298" type="line"/>
      <point x="915" y="1298" type="line" smooth="yes"/>
      <point x="1137" y="1298"/>
      <point x="1233" y="1186"/>
      <point x="1233" y="1018" type="curve" smooth="yes"/>
      <point x="1233" y="868"/>
      <point x="1128" y="747"/>
      <point x="920" y="747" type="curve" smooth="yes"/>
      <point x="238" y="747" type="line"/>
      <point x="238" y="590" type="line"/>
      <point x="1033" y="590" type="line"/>
      <point x="1087" y="611" type="line"/>
      <point x="1297" y="666"/>
      <point x="1425" y="818"/>
      <point x="1425" y="1018" type="curve" smooth="yes"/>
      <point x="1425" y="1303"/>
      <point x="1242" y="1456"/>
      <point x="915" y="1456" type="curve" smooth="yes"/>
    </contour>
    <contour>
      <point x="1283" y="0" type="line"/>
      <point x="1489" y="0" type="line"/>
      <point x="1489" y="12" type="line"/>
      <point x="1130" y="661" type="line"/>
      <point x="929" y="660" type="line"/>
    </contour>
    <contour>
      <point x="810" y="1601" type="move" name="top"/>
    </contour>
    <contour>
      <point x="810" y="10" type="move" name="bottom"/>
    </contour>
    <contour>
      <point x="1522" y="1601" type="move" name="top0315"/>
    </contour>
  </outline>
</glyph>
<glyph name="aturn" format="1">
  <advance width="1514"/>
  <unicode hex="0250"/>
  <outline>
    <contour>
      <point x="535" y="897" type="line"/>
      <point x="535" y="958"/>
      <point x="524" y="1040"/>
      <point x="505" y="1082" type="curve"/>
      <point x="312" y="1082" type="line"/>
      <point x="312" y="1066" type="line"/>
      <point x="337" y="1008"/>
      <point x="350" y="918"/>
      <point x="350" y="846" type="curve" smooth="yes"/>
      <point x="350" y="342" type="line"/>
      <point x="350" y="100"/>
      <point x="517" y="-20"/>
      <point x="753" y="-20" type="curve" smooth="yes"/>
      <point x="1015" y="-20"/>
      <point x="1182" y="145"/>
      <point x="1182" y="300" type="curve"/>
      <point x="997" y="300" type="line"/>
      <point x="997" y="210"/>
      <point x="903" y="129"/>
      <point x="764" y="129" type="curve" smooth="yes"/>
      <point x="614" y="129"/>
      <point x="535" y="212"/>
      <point x="535" y="340" type="curve"/>
    </contour>
    <contour>
      <point x="503" y="425" type="line"/>
      <point x="719" y="425" type="line"/>
      <point x="1015" y="425"/>
      <point x="1205" y="548"/>
      <point x="1205" y="781" type="curve" smooth="yes"/>
      <point x="1205" y="961"/>
      <point x="1061" y="1102"/>
      <point x="840" y="1102" type="curve" smooth="yes"/>
      <point x="605" y="1102"/>
      <point x="459" y="914"/>
      <point x="438" y="804" type="curve"/>
      <point x="517" y="714" type="line"/>
      <point x="524" y="813"/>
      <point x="643" y="940"/>
      <point x="813" y="940" type="curve" smooth="yes"/>
      <point x="949" y="940"/>
      <point x="1020" y="859"/>
      <point x="1020" y="756" type="curve" smooth="yes"/>
      <point x="1020" y="622"/>
      <point x="900" y="556"/>
      <point x="689" y="556" type="curve"/>
      <point x="501" y="556" type="line"/>
    </contour>
    <contour>
      <point x="1314" y="1290" type="move" name="top0315"/>
    </contour>
    <contour>
      <point x="1116" y="631" type="move" name="rhotichook"/>
    </contour>
    <contour>
      <point x="757" y="1290" type="move" name="top"/>
    </contour>
    <contour>
      <point x="757" y="0" type="move" name="bottom"/>
    </contour>
  </outline>
</glyph>
<glyph name="ascript" format="1">
  <advance width="1605"/>
  <unicode hex="0251"/>
  <outline>
    <contour>
      <point x="298" y="501" type="line"/>
      <point x="298" y="196"/>
      <point x="451" y="-21"/>
      <point x="719" y="-21" type="curve" smooth="yes"/>
      <point x="982" y="-21"/>
      <point x="1109" y="179"/>
      <point x="1139" y="499" type="curve"/>
      <point x="1139" y="581" type="line"/>
      <point x="1108" y="903"/>
      <point x="982" y="1102"/>
      <point x="721" y="1102" type="curve" smooth="yes"/>
      <point x="449" y="1102"/>
      <point x="298" y="863"/>
      <point x="298" y="522" type="curve" smooth="yes"/>
    </contour>
    <contour>
      <point x="483" y="522" type="line"/>
      <point x="483" y="754"/>
      <point x="564" y="950"/>
      <point x="766" y="950" type="curve" smooth="yes"/>
      <point x="962" y="950"/>
      <point x="1043" y="757"/>
      <point x="1076" y="562" type="curve"/>
      <point x="1076" y="497" type="line"/>
      <point x="1033" y="308"/>
      <point x="960" y="131"/>
      <point x="764" y="131" type="curve" smooth="yes"/>
      <point x="564" y="131"/>
      <point x="483" y="296"/>
      <point x="483" y="501" type="curve" smooth="yes"/>
    </contour>
    <contour>
      <point x="1048" y="1082" type="line"/>
      <point x="1019" y="847" type="line"/>
      <point x="1019" y="296" type="line" smooth="yes"/>
      <point x="1019" y="67"/>
      <point x="1093" y="-21"/>
      <point x="1219" y="-21" type="curve" smooth="yes"/>
      <point x="1261" y="-21"/>
      <point x="1300" y="-16"/>
      <point x="1341" y="13" type="curve"/>
      <point x="1319" y="151" type="line"/>
      <point x="1310" y="149"/>
      <point x="1298" y="146"/>
      <point x="1284" y="146" type="curve" smooth="yes"/>
      <point x="1241" y="146"/>
      <point x="1204" y="174"/>
      <point x="1204" y="296" type="curve" smooth="yes"/>
      <point x="1204" y="1082" type="line"/>
    </contour>
    <contour>
      <point x="1405" y="1290" type="move" name="top0315"/>
    </contour>
    <contour>
      <point x="1118" y="675" type="move" name="rhotichook"/>
    </contour>
    <contour>
      <point x="719" y="1290" type="move" name="top"/>
    </contour>
    <contour>
      <point x="719" y="0" type="move" name="bottom"/>
    </contour>
  </outline>
</glyph>
<glyph name="bhook" format="1">
  <advance width="1552"/>
  <unicode hex="0253"/>
  <outline>
    <contour>
      <point x="525" y="1119" type="line"/>
      <point x="525" y="1260" type="line" smooth="yes"/>
      <point x="525" y="1381"/>
      <point x="582" y="1426"/>
      <point x="680" y="1426" type="curve" smooth="yes"/>
      <point x="697" y="1426"/>
      <point x="722" y="1424"/>
      <point x="739" y="1418" type="curve"/>
      <point x="740" y="1546" type="line"/>
      <point x="712" y="1556"/>
      <point x="670" y="1562"/>
      <point x="640" y="1562" type="curve" smooth="yes"/>
      <point x="475" y="1562"/>
      <point x="340" y="1454"/>
      <point x="340" y="1260" type="curve" smooth="yes"/>
      <point x="340" y="1119" type="line"/>
    </contour>
    <contour>
      <point x="340" y="1163" type="line"/>
      <point x="340" y="0" type="line"/>
      <point x="510" y="0" type="line"/>
      <point x="525" y="210" type="line"/>
      <point x="525" y="1163" type="line"/>
    </contour>
    <contour>
      <point x="1256" y="550" type="line"/>
      <point x="1256" y="880"/>
      <point x="1105" y="1102"/>
      <point x="834" y="1102" type="curve" smooth="yes"/>
      <point x="561" y="1102"/>
      <point x="429" y="905"/>
      <point x="397" y="585" type="curve"/>
      <point x="397" y="494" type="line"/>
      <point x="428" y="177"/>
      <point x="561" y="-20"/>
      <point x="836" y="-20" type="curve" smooth="yes"/>
      <point x="1104" y="-20"/>
      <point x="1256" y="213"/>
      <point x="1256" y="529" type="curve" smooth="yes"/>
    </contour>
    <contour>
      <point x="1071" y="529" type="line"/>
      <point x="1071" y="314"/>
      <point x="990" y="138"/>
      <point x="790" y="138" type="curve" smooth="yes"/>
      <point x="606" y="138"/>
      <point x="518" y="278"/>
      <point x="487" y="419" type="curve"/>
      <point x="487" y="659" type="line"/>
      <point x="517" y="806"/>
      <point x="602" y="945"/>
      <point x="788" y="945" type="curve" smooth="yes"/>
      <point x="998" y="945"/>
      <point x="1071" y="765"/>
      <point x="1071" y="550" type="curve" smooth="yes"/>
    </contour>
    <contour>
      <point x="826" y="1700" type="move" name="top"/>
    </contour>
    <contour>
      <point x="798" y="0" type="move" name="bottom"/>
    </contour>
    <contour>
      <point x="1352" y="1700" type="move" name="top0315"/>
    </contour>
  </outline>
</glyph>
<glyph name="ccurl" format="1">
  <advance width="1484"/>
  <unicode hex="0255"/>
  <outline>
    <contour>
      <point x="790" y="132" type="curve" smooth="yes"/>
      <point x="555" y="132"/>
      <point x="489" y="330"/>
      <point x="489" y="520" type="curve" smooth="yes"/>
      <point x="489" y="562" type="line" smooth="yes"/>
      <point x="489" y="750"/>
      <point x="557" y="950"/>
      <point x="785" y="950" type="curve"/>
      <point x="934" y="950"/>
      <point x="1031" y="843"/>
      <point x="1041" y="710" type="curve"/>
      <point x="1216" y="710" type="line"/>
      <point x="1206" y="932"/>
      <point x="1038" y="1102"/>
      <point x="785" y="1102" type="curve" smooth="yes"/>
      <point x="461" y="1102"/>
      <point x="304" y="852"/>
      <point x="304" y="562" type="curve" smooth="yes"/>
      <point x="304" y="520" type="line" smooth="yes"/>
      <point x="304" y="230"/>
      <point x="460" y="-20"/>
      <point x="790" y="-20" type="curve" smooth="yes"/>
      <point x="1015" y="-20"/>
      <point x="1216" y="113"/>
      <point x="1216" y="312" type="curve" smooth="yes"/>
      <point x="1216" y="450"/>
      <point x="1125" y="548"/>
      <point x="937" y="548" type="curve" smooth="yes"/>
      <point x="751" y="548"/>
      <point x="611" y="437"/>
      <point x="397" y="177" type="curve"/>
      <point x="240" y="-25" type="line"/>
      <point x="371" y="-129" type="line"/>
      <point x="488" y="27" type="line"/>
      <point x="674" y="266"/>
      <point x="806" y="393"/>
      <point x="930" y="393" type="curve" smooth="yes"/>
      <point x="986" y="393"/>
      <point x="1043" y="368"/>
      <point x="1043" y="293" type="curve" smooth="yes"/>
      <point x="1043" y="193"/>
      <point x="918" y="132"/>
    </contour>
    <contour>
      <point x="784" y="1290" type="move" name="top"/>
    </contour>
    <contour>
      <point x="784" y="0" type="move" name="bottom"/>
    </contour>
    <contour>
      <point x="1284" y="1290" type="move" name="top0315"/>
    </contour>
  </outline>
</glyph>
<glyph name="erev" format="1">
  <advance width="1486"/>
  <unicode hex="0258"/>
  <outline>
    <contour>
      <point x="696" y="-20" type="curve" smooth="yes"/>
      <point x="998" y="-20"/>
      <point x="1193" y="198"/>
      <point x="1193" y="503" type="curve" smooth="yes"/>
      <point x="1193" y="545" type="line" smooth="yes"/>
      <point x="1193" y="898"/>
      <point x="963" y="1102"/>
      <point x="720" y="1102" type="curve" smooth="yes"/>
      <point x="410" y="1102"/>
      <point x="275" y="874"/>
      <point x="275" y="572" type="curve" smooth="yes"/>
      <point x="275" y="488" type="line"/>
      <point x="1083" y="488" type="line"/>
      <point x="1083" y="640" type="line"/>
      <point x="460" y="640" type="line"/>
      <point x="460" y="654" type="line"/>
      <point x="469" y="797"/>
      <point x="531" y="950"/>
      <point x="720" y="950" type="curve" smooth="yes"/>
      <point x="890" y="950"/>
      <point x="1008" y="805"/>
      <point x="1008" y="545" type="curve" smooth="yes"/>
      <point x="1008" y="503" type="line" smooth="yes"/>
      <point x="1008" y="298"/>
      <point x="888" y="132"/>
      <point x="686" y="132" type="curve" smooth="yes"/>
      <point x="556" y="132"/>
      <point x="469" y="190"/>
      <point x="401" y="278" type="curve"/>
      <point x="289" y="189" type="line"/>
      <point x="359" y="83"/>
      <point x="482" y="-20"/>
    </contour>
    <contour>
      <point x="1286" y="1290" type="move" name="top0315"/>
    </contour>
    <contour>
      <point x="1072" y="654" type="move" name="rhotichook"/>
    </contour>
    <contour>
      <point x="720" y="1290" type="move" name="top"/>
    </contour>
    <contour>
      <point x="696" y="0" type="move" name="bottom"/>
    </contour>
  </outline>
</glyph>
<glyph name="schwa" format="1">
  <advance width="1480"/>
  <unicode hex="0259"/>
  <outline>
    <contour>
      <point x="711" y="1104" type="curve"/>
      <point x="516" y="1104"/>
      <point x="396" y="1034"/>
      <point x="330" y="970" type="curve"/>
      <point x="403" y="844" type="line"/>
      <point x="469" y="904"/>
      <point x="566" y="952"/>
      <point x="711" y="952" type="curve" smooth="yes"/>
      <point x="912" y="952"/>
      <point x="1016" y="777"/>
      <point x="1016" y="563" type="curve" smooth="yes"/>
      <point x="1016" y="519" type="line" smooth="yes"/>
      <point x="1016" y="305"/>
      <point x="901" y="133"/>
      <point x="740" y="133" type="curve"/>
      <point x="563" y="133"/>
      <point x="484" y="263"/>
      <point x="484" y="408" type="curve"/>
      <point x="484" y="433" type="line"/>
      <point x="1092" y="433" type="line"/>
      <point x="1092" y="585" type="line"/>
      <point x="299" y="585" type="line"/>
      <point x="299" y="464" type="line" smooth="yes"/>
      <point x="299" y="181"/>
      <point x="442" y="-19"/>
      <point x="740" y="-19" type="curve" smooth="yes"/>
      <point x="983" y="-21"/>
      <point x="1201" y="203"/>
      <point x="1201" y="519" type="curve" smooth="yes"/>
      <point x="1201" y="563" type="line" smooth="yes"/>
      <point x="1201" y="877"/>
      <point x="1011" y="1104"/>
    </contour>
    <contour>
      <point x="1280" y="1291" type="move" name="top0315"/>
    </contour>
    <contour>
      <point x="1087" y="654" type="move" name="rhotichook"/>
    </contour>
    <contour>
      <point x="759" y="1291" type="move" name="top"/>
    </contour>
    <contour>
      <point x="1098" y="63" type="move" name="right"/>
    </contour>
    <contour>
      <point x="773" y="0" type="move" name="bottom"/>
    </contour>
  </outline>
</glyph>
<glyph name="schwahook" format="1">
  <advance width="1823"/>
  <unicode hex="025A"/>
  <outline>
    <contour>
      <point x="696" y="1102" type="curve" smooth="yes"/>
      <point x="482" y="1102"/>
      <point x="359" y="999"/>
      <point x="289" y="893" type="curve"/>
      <point x="401" y="804" type="line"/>
      <point x="469" y="892"/>
      <point x="556" y="950"/>
      <point x="686" y="950" type="curve" smooth="yes"/>
      <point x="888" y="950"/>
      <point x="1008" y="784"/>
      <point x="1008" y="579" type="curve" smooth="yes"/>
      <point x="1008" y="537" type="line" smooth="yes"/>
      <point x="1008" y="277"/>
      <point x="890" y="132"/>
      <point x="720" y="132" type="curve" smooth="yes"/>
      <point x="531" y="132"/>
      <point x="460" y="285"/>
      <point x="460" y="428" type="curve" smooth="yes"/>
      <point x="460" y="457" type="line"/>
      <point x="1036" y="569" type="line"/>
      <point x="1036" y="724" type="line"/>
      <point x="275" y="575" type="line"/>
      <point x="275" y="510" type="line" smooth="yes"/>
      <point x="275" y="208"/>
      <point x="410" y="-20"/>
      <point x="720" y="-20" type="curve" smooth="yes"/>
      <point x="963" y="-20"/>
      <point x="1193" y="184"/>
      <point x="1193" y="537" type="curve" smooth="yes"/>
      <point x="1193" y="579" type="line" smooth="yes"/>
      <point x="1193" y="883"/>
      <point x="998" y="1102"/>
    </contour>
    <contour>
      <point x="1105" y="583" type="line"/>
      <point x="1238" y="609" type="line"/>
      <point x="1266" y="465"/>
      <point x="1317" y="354"/>
      <point x="1476" y="354" type="curve" smooth="yes"/>
      <point x="1521" y="354"/>
      <point x="1566" y="367"/>
      <point x="1604" y="387" type="curve"/>
      <point x="1580" y="503" type="line"/>
      <point x="1564" y="500"/>
      <point x="1548" y="497"/>
      <point x="1515" y="497" type="curve" smooth="yes"/>
      <point x="1411" y="497"/>
      <point x="1382" y="608"/>
      <point x="1359" y="788" type="curve"/>
      <point x="1105" y="738" type="line"/>
    </contour>
    <contour>
      <point x="759" y="1290" type="move" name="top"/>
    </contour>
    <contour>
      <point x="773" y="0" type="move" name="bottom"/>
    </contour>
    <contour>
      <point x="1623" y="1290" type="move" name="top0315"/>
    </contour>
  </outline>
</glyph>
<glyph name="epsilon1rev" format="1">
  <advance width="1505"/>
  <unicode hex="025C"/>
  <outline>
    <contour>
      <point x="560" y="587" type="line"/>
      <point x="560" y="479" type="line"/>
      <point x="765" y="479" type="line" smooth="yes"/>
      <point x="932" y="479"/>
      <point x="1019" y="424"/>
      <point x="1019" y="305" type="curve" smooth="yes"/>
      <point x="1019" y="211"/>
      <point x="923" y="130"/>
      <point x="753" y="130" type="curve" smooth="yes"/>
      <point x="592" y="130"/>
      <point x="485" y="221"/>
      <point x="485" y="320" type="curve"/>
      <point x="301" y="320" type="line"/>
      <point x="301" y="85"/>
      <point x="531" y="-20"/>
      <point x="753" y="-20" type="curve" smooth="yes"/>
      <point x="1015" y="-20"/>
      <point x="1205" y="101"/>
      <point x="1205" y="305" type="curve" smooth="yes"/>
      <point x="1205" y="486"/>
      <point x="1050" y="587"/>
      <point x="780" y="587" type="curve"/>
    </contour>
    <contour>
      <point x="780" y="517" type="line"/>
      <point x="1026" y="517"/>
      <point x="1186" y="639"/>
      <point x="1186" y="787" type="curve"/>
      <point x="1186" y="991"/>
      <point x="1015" y="1101"/>
      <point x="753" y="1101" type="curve" smooth="yes"/>
      <point x="517" y="1101"/>
      <point x="319" y="978"/>
      <point x="319" y="781" type="curve"/>
      <point x="503" y="781" type="line"/>
      <point x="503" y="876"/>
      <point x="613" y="951"/>
      <point x="753" y="951" type="curve" smooth="yes"/>
      <point x="924" y="951"/>
      <point x="1001" y="871"/>
      <point x="1001" y="787" type="curve"/>
      <point x="1001" y="693"/>
      <point x="934" y="626"/>
      <point x="765" y="626" type="curve" smooth="yes"/>
      <point x="560" y="626" type="line"/>
      <point x="560" y="517" type="line"/>
    </contour>
    <contour>
      <point x="1305" y="1290" type="move" name="top0315"/>
    </contour>
    <contour>
      <point x="1120" y="784" type="move" name="rhotichook"/>
    </contour>
    <contour>
      <point x="753" y="1290" type="move" name="top"/>
    </contour>
    <contour>
      <point x="753" y="0" type="move" name="bottom"/>
    </contour>
  </outline>
</glyph>
<glyph name="ghook" format="1">
  <advance width="1613"/>
  <unicode hex="0260"/>
  <outline>
    <contour>
      <point x="1210" y="930" type="line"/>
      <point x="1210" y="1074" type="line" smooth="yes"/>
      <point x="1210" y="1195"/>
      <point x="1266" y="1240"/>
      <point x="1364" y="1240" type="curve" smooth="yes"/>
      <point x="1381" y="1240"/>
      <point x="1406" y="1238"/>
      <point x="1424" y="1233" type="curve"/>
      <point x="1425" y="1360" type="line"/>
      <point x="1397" y="1370"/>
      <point x="1355" y="1376"/>
      <point x="1325" y="1376" type="curve" smooth="yes"/>
      <point x="1159" y="1376"/>
      <point x="1025" y="1268"/>
      <point x="1025" y="1074" type="curve" smooth="yes"/>
      <point x="1025" y="930" type="line"/>
    </contour>
    <contour>
      <point x="1042" y="1071" type="line"/>
      <point x="1025" y="844" type="line"/>
      <point x="1025" y="14" type="line" smooth="yes"/>
      <point x="1025" y="-174"/>
      <point x="913" y="-275"/>
      <point x="738" y="-275" type="curve" smooth="yes"/>
      <point x="640" y="-275"/>
      <point x="538" y="-239"/>
      <point x="447" y="-128" type="curve"/>
      <point x="351" y="-239" type="line"/>
      <point x="448" y="-380"/>
      <point x="640" y="-427"/>
      <point x="752" y="-427" type="curve" smooth="yes"/>
      <point x="1022" y="-427"/>
      <point x="1210" y="-264"/>
      <point x="1210" y="23" type="curve" smooth="yes"/>
      <point x="1210" y="1071" type="line"/>
    </contour>
    <contour>
      <point x="297" y="529" type="line"/>
      <point x="297" y="213"/>
      <point x="462" y="-20"/>
      <point x="722" y="-20" type="curve" smooth="yes"/>
      <point x="996" y="-20"/>
      <point x="1130" y="177"/>
      <point x="1160" y="494" type="curve"/>
      <point x="1160" y="585" type="line"/>
      <point x="1129" y="905"/>
      <point x="995" y="1102"/>
      <point x="724" y="1102" type="curve" smooth="yes"/>
      <point x="460" y="1102"/>
      <point x="297" y="880"/>
      <point x="297" y="550" type="curve" smooth="yes"/>
    </contour>
    <contour>
      <point x="482" y="550" type="line"/>
      <point x="482" y="765"/>
      <point x="567" y="945"/>
      <point x="769" y="945" type="curve" smooth="yes"/>
      <point x="956" y="945"/>
      <point x="1040" y="806"/>
      <point x="1071" y="659" type="curve"/>
      <point x="1071" y="419" type="line"/>
      <point x="1030" y="269"/>
      <point x="951" y="138"/>
      <point x="767" y="138" type="curve" smooth="yes"/>
      <point x="567" y="138"/>
      <point x="482" y="314"/>
      <point x="482" y="529" type="curve" smooth="yes"/>
    </contour>
    <contour>
      <point x="756" y="1290" type="move" name="top"/>
    </contour>
    <contour>
      <point x="756" y="-447" type="move" name="bottom"/>
    </contour>
    <contour>
      <point x="1413" y="1290" type="move" name="top0315"/>
    </contour>
  </outline>
</glyph>
<glyph name="Gsmallcap" format="1">
  <advance width="1631"/>
  <unicode hex="0262"/>
  <outline>
    <contour>
      <point x="1313" y="548" type="line"/>
      <point x="848" y="548" type="line"/>
      <point x="848" y="397" type="line"/>
      <point x="1112" y="397" type="line"/>
      <point x="1112" y="204" type="line"/>
      <point x="1080" y="176"/>
      <point x="994" y="130"/>
      <point x="831" y="130" type="curve" smooth="yes"/>
      <point x="627" y="130"/>
      <point x="500" y="275"/>
      <point x="500" y="461" type="curve" smooth="yes"/>
      <point x="500" y="625" type="line" smooth="yes"/>
      <point x="500" y="811"/>
      <point x="633" y="952"/>
      <point x="826" y="952" type="curve" smooth="yes"/>
      <point x="1001" y="952"/>
      <point x="1088" y="878"/>
      <point x="1107" y="738" type="curve"/>
      <point x="1291" y="738" type="line"/>
      <point x="1270" y="947"/>
      <point x="1129" y="1102"/>
      <point x="826" y="1102" type="curve" smooth="yes"/>
      <point x="529" y="1102"/>
      <point x="315" y="907"/>
      <point x="315" y="624" type="curve" smooth="yes"/>
      <point x="315" y="461" type="line" smooth="yes"/>
      <point x="315" y="178"/>
      <point x="525" y="-20"/>
      <point x="831" y="-20" type="curve" smooth="yes"/>
      <point x="1097" y="-20"/>
      <point x="1266" y="89"/>
      <point x="1313" y="158" type="curve"/>
    </contour>
    <contour>
      <point x="827" y="1290" type="move" name="top"/>
    </contour>
    <contour>
      <point x="827" y="0" type="move" name="bottom"/>
    </contour>
    <contour>
      <point x="1431" y="1290" type="move" name="top0315"/>
    </contour>
  </outline>
</glyph>
<glyph name="gamma1" format="1">
  <advance width="1515"/>
  <unicode hex="0263"/>
  <outline>
    <contour>
      <point x="757" y="-429" type="curve" smooth="yes"/>
      <point x="918" y="-429"/>
      <point x="1013" y="-344"/>
      <point x="1013" y="-194" type="curve" smooth="yes"/>
      <point x="1013" y="-148"/>
      <point x="1007" y="-97"/>
      <point x="975" y="-31" type="curve" smooth="yes"/>
      <point x="431" y="1082" type="line"/>
      <point x="431" y="1082"/>
      <point x="230" y="1082"/>
      <point x="230" y="1082" type="curve"/>
      <point x="725" y="97" type="line" smooth="yes"/>
      <point x="805" y="-65"/>
      <point x="828" y="-136"/>
      <point x="828" y="-194" type="curve" smooth="yes"/>
      <point x="828" y="-237"/>
      <point x="810" y="-272"/>
      <point x="757" y="-272" type="curve" smooth="yes"/>
      <point x="706" y="-272"/>
      <point x="686" y="-238"/>
      <point x="686" y="-194" type="curve" smooth="yes"/>
      <point x="686" y="-137"/>
      <point x="715" y="-63"/>
      <point x="791" y="91" type="curve" smooth="yes"/>
      <point x="1285" y="1082" type="line"/>
      <point x="1285" y="1082"/>
      <point x="1085" y="1082"/>
      <point x="1085" y="1082" type="curve"/>
      <point x="543" y="-37" type="line" smooth="yes"/>
      <point x="512" y="-101"/>
      <point x="501" y="-148"/>
      <point x="501" y="-194" type="curve" smooth="yes"/>
      <point x="501" y="-344"/>
      <point x="596" y="-429"/>
    </contour>
    <contour>
      <point x="760" y="1290" type="move" name="top"/>
    </contour>
    <contour>
      <point x="760" y="-447" type="move" name="bottom"/>
    </contour>
    <contour>
      <point x="1315" y="1290" type="move" name="top0315"/>
    </contour>
  </outline>
</glyph>
<glyph name="henghook" format="1">
  <advance width="1528"/>
  <unicode hex="0267"/>
  <outline>
    <contour>
      <point x="1007" y="84" type="line"/>
      <point x="1007" y="-64" type="line" smooth="yes"/>
      <point x="1007" y="-185"/>
      <point x="950" y="-230"/>
      <point x="852" y="-230" type="curve" smooth="yes"/>
      <point x="835" y="-230"/>
      <point x="810" y="-228"/>
      <point x="793" y="-223" type="curve"/>
      <point x="792" y="-350" type="line"/>
      <point x="820" y="-360"/>
      <point x="862" y="-366"/>
      <point x="892" y="-366" type="curve" smooth="yes"/>
      <point x="1057" y="-366"/>
      <point x="1192" y="-259"/>
      <point x="1192" y="-64" type="curve" smooth="yes"/>
      <point x="1192" y="84" type="line"/>
    </contour>
    <contour>
      <point x="526" y="1163" type="line"/>
      <point x="341" y="1163" type="line"/>
      <point x="341" y="0" type="line"/>
      <point x="526" y="0" type="line"/>
    </contour>
    <contour>
      <point x="482" y="582" type="line"/>
      <point x="483" y="777"/>
      <point x="606" y="945"/>
      <point x="790" y="945" type="curve" smooth="yes"/>
      <point x="931" y="945"/>
      <point x="1007" y="880"/>
      <point x="1007" y="711" type="curve" smooth="yes"/>
      <point x="1007" y="0" type="line"/>
      <point x="1192" y="0" type="line"/>
      <point x="1192" y="709" type="line" smooth="yes"/>
      <point x="1192" y="993"/>
      <point x="1058" y="1102"/>
      <point x="845" y="1102" type="curve" smooth="yes"/>
      <point x="583" y="1102"/>
      <point x="408" y="882"/>
      <point x="405" y="585" type="curve"/>
    </contour>
    <contour>
      <point x="526" y="1119" type="line"/>
      <point x="526" y="1260" type="line" smooth="yes"/>
      <point x="526" y="1381"/>
      <point x="582" y="1426"/>
      <point x="680" y="1426" type="curve" smooth="yes"/>
      <point x="697" y="1426"/>
      <point x="722" y="1424"/>
      <point x="739" y="1418" type="curve"/>
      <point x="741" y="1546" type="line"/>
      <point x="712" y="1556"/>
      <point x="671" y="1562"/>
      <point x="640" y="1562" type="curve" smooth="yes"/>
      <point x="475" y="1562"/>
      <point x="341" y="1454"/>
      <point x="341" y="1260" type="curve" smooth="yes"/>
      <point x="341" y="1119" type="line"/>
    </contour>
    <contour>
      <point x="822" y="1700" type="move" name="top"/>
    </contour>
    <contour>
      <point x="766" y="-447" type="move" name="bottom"/>
    </contour>
    <contour>
      <point x="1328" y="1700" type="move" name="top0315"/>
    </contour>
  </outline>
</glyph>
<glyph name="iota1" format="1">
  <advance width="981"/>
  <unicode hex="0269"/>
  <outline>
    <contour>
      <point x="337" y="1082" type="line"/>
      <point x="337" y="282" type="line" smooth="yes"/>
      <point x="337" y="87"/>
      <point x="471" y="-20"/>
      <point x="636" y="-20" type="curve" smooth="yes"/>
      <point x="669" y="-20"/>
      <point x="709" y="-15"/>
      <point x="737" y="-7" type="curve"/>
      <point x="735" y="120" type="line"/>
      <point x="720" y="116"/>
      <point x="693" y="114"/>
      <point x="676" y="114" type="curve" smooth="yes"/>
      <point x="578" y="114"/>
      <point x="522" y="160"/>
      <point x="522" y="282" type="curve" smooth="yes"/>
      <point x="522" y="1082" type="line"/>
    </contour>
    <contour>
      <point x="781" y="1290" type="move" name="top0315"/>
    </contour>
    <contour>
      <point x="446" y="640" type="move" name="rhotichook"/>
    </contour>
    <contour>
      <point x="430" y="1290" type="move" name="top"/>
    </contour>
    <contour>
      <point x="430" y="0" type="move" name="bottom"/>
    </contour>
  </outline>
</glyph>
<glyph name="Ismallcap" format="1">
  <advance width="1087"/>
  <unicode hex="026A"/>
  <outline>
    <contour>
      <point x="785" y="1082" type="line"/>
      <point x="301" y="1082" type="line"/>
      <point x="301" y="929" type="line"/>
      <point x="785" y="929" type="line"/>
    </contour>
    <contour>
      <point x="635" y="1082" type="line"/>
      <point x="450" y="1082" type="line"/>
      <point x="450" y="0" type="line"/>
      <point x="635" y="0" type="line"/>
    </contour>
    <contour>
      <point x="785" y="153" type="line"/>
      <point x="301" y="153" type="line"/>
      <point x="301" y="0" type="line"/>
      <point x="785" y="0" type="line"/>
    </contour>
    <contour>
      <point x="541" y="1290" type="move" name="top"/>
    </contour>
    <contour>
      <point x="541" y="0" type="move" name="bottom"/>
    </contour>
    <contour>
      <point x="887" y="1290" type="move" name="top0315"/>
    </contour>
  </outline>
</glyph>
<glyph name="lrthook" format="1">
  <advance width="1065"/>
  <unicode hex="026D"/>
  <outline>
    <contour>
      <point x="414" y="1536" type="line"/>
      <point x="414" y="-135" type="line" smooth="yes"/>
      <point x="414" y="-330"/>
      <point x="548" y="-437"/>
      <point x="714" y="-437" type="curve" smooth="yes"/>
      <point x="747" y="-437"/>
      <point x="787" y="-432"/>
      <point x="814" y="-424" type="curve"/>
      <point x="813" y="-297" type="line"/>
      <point x="797" y="-301"/>
      <point x="770" y="-303"/>
      <point x="753" y="-303" type="curve" smooth="yes"/>
      <point x="655" y="-303"/>
      <point x="599" y="-257"/>
      <point x="599" y="-135" type="curve" smooth="yes"/>
      <point x="599" y="1536" type="line"/>
    </contour>
    <contour>
      <point x="508" y="1600" type="move" name="top"/>
    </contour>
    <contour>
      <point x="508" y="-447" type="move" name="bottom"/>
    </contour>
    <contour>
      <point x="865" y="1600" type="move" name="top0315"/>
    </contour>
  </outline>
</glyph>
<glyph name="mturn" format="1">
  <advance width="2196"/>
  <unicode hex="026F"/>
  <outline>
    <contour>
      <point x="701" y="-20" type="curve" smooth="yes"/>
      <point x="977" y="-20"/>
      <point x="1129" y="200"/>
      <point x="1131" y="436" type="curve"/>
      <point x="1007" y="398" type="line"/>
      <point x="1006" y="257"/>
      <point x="919" y="137"/>
      <point x="755" y="137" type="curve" smooth="yes"/>
      <point x="615" y="136"/>
      <point x="524" y="188"/>
      <point x="524" y="369" type="curve" smooth="yes"/>
      <point x="524" y="1082" type="line"/>
      <point x="339" y="1082" type="line"/>
      <point x="339" y="371" type="line" smooth="yes"/>
      <point x="339" y="98"/>
      <point x="470" y="-20"/>
    </contour>
    <contour>
      <point x="1355" y="-20" type="curve" smooth="yes"/>
      <point x="1644" y="-20"/>
      <point x="1792" y="200"/>
      <point x="1795" y="497" type="curve"/>
      <point x="1709" y="500" type="line"/>
      <point x="1708" y="305"/>
      <point x="1639" y="137"/>
      <point x="1422" y="137" type="curve" smooth="yes"/>
      <point x="1281" y="137"/>
      <point x="1191" y="202"/>
      <point x="1191" y="370" type="curve" smooth="yes"/>
      <point x="1191" y="1082" type="line"/>
      <point x="1006" y="1082" type="line"/>
      <point x="1006" y="361" type="line" smooth="yes"/>
      <point x="1006" y="90"/>
      <point x="1153" y="-20"/>
    </contour>
    <contour>
      <point x="1671" y="214" type="line"/>
      <point x="1681" y="0" type="line"/>
      <point x="1856" y="0" type="line"/>
      <point x="1856" y="1082" type="line"/>
      <point x="1671" y="1082" type="line"/>
    </contour>
    <contour>
      <point x="1103" y="1290" type="move" name="top"/>
    </contour>
    <contour>
      <point x="1103" y="0" type="move" name="bottom"/>
    </contour>
    <contour>
      <point x="1996" y="1290" type="move" name="top0315"/>
    </contour>
  </outline>
</glyph>
<glyph name="mhook" format="1">
  <advance width="2196"/>
  <unicode hex="0271"/>
  <outline>
    <contour>
      <point x="1672" y="323" type="line"/>
      <point x="1672" y="-135" type="line" smooth="yes"/>
      <point x="1672" y="-257"/>
      <point x="1615" y="-302"/>
      <point x="1517" y="-302" type="curve" smooth="yes"/>
      <point x="1500" y="-302"/>
      <point x="1475" y="-299"/>
      <point x="1458" y="-294" type="curve"/>
      <point x="1457" y="-422" type="line"/>
      <point x="1485" y="-431"/>
      <point x="1527" y="-437"/>
      <point x="1557" y="-437" type="curve" smooth="yes"/>
      <point x="1722" y="-437"/>
      <point x="1857" y="-330"/>
      <point x="1857" y="-135" type="curve" smooth="yes"/>
      <point x="1857" y="323" type="line"/>
    </contour>
    <component base="m"/>
    <contour>
      <point x="1109" y="1290" type="move" name="top"/>
    </contour>
    <contour>
      <point x="1109" y="-447" type="move" name="bottom"/>
    </contour>
    <contour>
      <point x="1996" y="1290" type="move" name="top0315"/>
    </contour>
  </outline>
</glyph>
<glyph name="nrthook" format="1">
  <advance width="1595"/>
  <unicode hex="0273"/>
  <outline>
    <contour>
      <point x="1007" y="323" type="line"/>
      <point x="1007" y="-135" type="line" smooth="yes"/>
      <point x="1007" y="-330"/>
      <point x="1141" y="-437"/>
      <point x="1306" y="-437" type="curve" smooth="yes"/>
      <point x="1339" y="-437"/>
      <point x="1379" y="-432"/>
      <point x="1407" y="-424" type="curve"/>
      <point x="1405" y="-297" type="line"/>
      <point x="1390" y="-301"/>
      <point x="1363" y="-303"/>
      <point x="1346" y="-303" type="curve" smooth="yes"/>
      <point x="1248" y="-303"/>
      <point x="1192" y="-257"/>
      <point x="1192" y="-135" type="curve" smooth="yes"/>
      <point x="1192" y="323" type="line"/>
    </contour>
    <component base="n"/>
    <contour>
      <point x="773" y="1290" type="move" name="top"/>
    </contour>
    <contour>
      <point x="773" y="-447" type="move" name="bottom"/>
    </contour>
    <contour>
      <point x="1395" y="1290" type="move" name="top0315"/>
    </contour>
  </outline>
</glyph>
<glyph name="omegaclosed" format="1">
  <advance width="2085"/>
  <unicode hex="0277"/>
  <outline>
    <contour>
      <point x="1043" y="1101" type="line"/>
      <point x="520" y="1101"/>
      <point x="323" y="786"/>
      <point x="323" y="495" type="curve" smooth="yes"/>
      <point x="323" y="255"/>
      <point x="430" y="-21"/>
      <point x="719" y="-21" type="curve" smooth="yes"/>
      <point x="949" y="-21"/>
      <point x="1080" y="156"/>
      <point x="1080" y="473" type="curve" smooth="yes"/>
      <point x="1080" y="666" type="line"/>
      <point x="950" y="666" type="line"/>
      <point x="950" y="471" type="line" smooth="yes"/>
      <point x="950" y="224"/>
      <point x="855" y="131"/>
      <point x="728" y="131" type="curve" smooth="yes"/>
      <point x="568" y="131"/>
      <point x="508" y="330"/>
      <point x="508" y="498" type="curve" smooth="yes"/>
      <point x="508" y="744"/>
      <point x="641" y="949"/>
      <point x="1043" y="949" type="curve"/>
    </contour>
    <contour>
      <point x="1042" y="949" type="line"/>
      <point x="1443" y="949"/>
      <point x="1577" y="744"/>
      <point x="1577" y="498" type="curve" smooth="yes"/>
      <point x="1577" y="330"/>
      <point x="1517" y="131"/>
      <point x="1357" y="131" type="curve" smooth="yes"/>
      <point x="1230" y="131"/>
      <point x="1135" y="224"/>
      <point x="1135" y="471" type="curve" smooth="yes"/>
      <point x="1135" y="666" type="line"/>
      <point x="1005" y="666" type="line"/>
      <point x="1005" y="473" type="line" smooth="yes"/>
      <point x="1005" y="156"/>
      <point x="1136" y="-21"/>
      <point x="1366" y="-21" type="curve" smooth="yes"/>
      <point x="1655" y="-21"/>
      <point x="1762" y="255"/>
      <point x="1762" y="498" type="curve" smooth="yes"/>
      <point x="1762" y="786"/>
      <point x="1564" y="1101"/>
      <point x="1042" y="1101" type="curve"/>
    </contour>
    <contour>
      <point x="1041" y="1290" type="move" name="top"/>
    </contour>
    <contour>
      <point x="1041" y="0" type="move" name="bottom"/>
    </contour>
    <contour>
      <point x="1885" y="1290" type="move" name="top0315"/>
    </contour>
  </outline>
</glyph>
<glyph name="philatin" format="1">
  <advance width="1568"/>
  <unicode hex="0278"/>
  <outline>
    <contour>
      <point x="292" y="529" type="line"/>
      <point x="292" y="216"/>
      <point x="481" y="-20"/>
      <point x="785" y="-20" type="curve" smooth="yes"/>
      <point x="1088" y="-20"/>
      <point x="1276" y="216"/>
      <point x="1276" y="529" type="curve" smooth="yes"/>
      <point x="1276" y="552" type="line" smooth="yes"/>
      <point x="1276" y="865"/>
      <point x="1088" y="1102"/>
      <point x="783" y="1102" type="curve" smooth="yes"/>
      <point x="481" y="1102"/>
      <point x="292" y="865"/>
      <point x="292" y="552" type="curve" smooth="yes"/>
    </contour>
    <contour>
      <point x="477" y="552" type="line"/>
      <point x="477" y="764"/>
      <point x="579" y="950"/>
      <point x="783" y="950" type="curve" smooth="yes"/>
      <point x="989" y="950"/>
      <point x="1091" y="764"/>
      <point x="1091" y="552" type="curve" smooth="yes"/>
      <point x="1091" y="529" type="line" smooth="yes"/>
      <point x="1091" y="315"/>
      <point x="989" y="132"/>
      <point x="785" y="132" type="curve" smooth="yes"/>
      <point x="579" y="132"/>
      <point x="477" y="315"/>
      <point x="477" y="529" type="curve" smooth="yes"/>
    </contour>
    <contour>
      <point x="691" y="-416" type="line"/>
      <point x="876" y="-416" type="line"/>
      <point x="876" y="1536" type="line"/>
      <point x="691" y="1536" type="line"/>
    </contour>
    <contour>
      <point x="784" y="1600" type="move" name="top"/>
    </contour>
    <contour>
      <point x="784" y="-447" type="move" name="bottom"/>
    </contour>
    <contour>
      <point x="1368" y="1600" type="move" name="top0315"/>
    </contour>
  </outline>
</glyph>
<glyph name="rturn" format="1">
  <advance width="1094"/>
  <unicode hex="0279"/>
  <outline>
    <contour>
      <point x="312" y="-20" type="curve" smooth="yes"/>
      <point x="546" y="-20"/>
      <point x="649" y="198"/>
      <point x="649" y="458" type="curve"/>
      <point x="596" y="428" type="line"/>
      <point x="580" y="271"/>
      <point x="493" y="159"/>
      <point x="321" y="159" type="curve" smooth="yes"/>
      <point x="286" y="159"/>
      <point x="262" y="161"/>
      <point x="231" y="167" type="curve"/>
      <point x="230" y="-6" type="line"/>
      <point x="243" y="-12"/>
      <point x="286" y="-20"/>
    </contour>
    <contour>
      <point x="568" y="170" type="line"/>
      <point x="574" y="0" type="line"/>
      <point x="753" y="0" type="line"/>
      <point x="753" y="1082" type="line"/>
      <point x="568" y="1082" type="line"/>
    </contour>
    <contour>
      <point x="436" y="1290" type="move" name="top"/>
    </contour>
    <contour>
      <point x="436" y="0" type="move" name="bottom"/>
    </contour>
    <contour>
      <point x="894" y="1290" type="move" name="top0315"/>
    </contour>
  </outline>
</glyph>
<glyph name="rturnrthook" format="1">
  <advance width="1156"/>
  <unicode hex="027B"/>
  <outline>
    <contour>
      <point x="568" y="246" type="line"/>
      <point x="568" y="-135" type="line" smooth="yes"/>
      <point x="568" y="-330"/>
      <point x="703" y="-437"/>
      <point x="868" y="-437" type="curve" smooth="yes"/>
      <point x="901" y="-437"/>
      <point x="941" y="-432"/>
      <point x="968" y="-424" type="curve"/>
      <point x="967" y="-297" type="line"/>
      <point x="951" y="-301"/>
      <point x="925" y="-303"/>
      <point x="908" y="-303" type="curve" smooth="yes"/>
      <point x="810" y="-303"/>
      <point x="753" y="-257"/>
      <point x="753" y="-135" type="curve" smooth="yes"/>
      <point x="753" y="246" type="line"/>
    </contour>
    <component base="r" xOffset="1094" yOffset="1082" xScale="-1" yScale="-1"/>
    <contour>
      <point x="436" y="1290" type="move" name="top"/>
    </contour>
    <contour>
      <point x="436" y="-447" type="move" name="bottom"/>
    </contour>
    <contour>
      <point x="956" y="1290" type="move" name="top0315"/>
    </contour>
  </outline>
</glyph>
<glyph name="rfishhookrev" format="1">
  <advance width="970"/>
  <unicode hex="027F"/>
  <outline>
    <contour>
      <point x="630" y="-416" type="line"/>
      <point x="630" y="800" type="line" smooth="yes"/>
      <point x="630" y="995"/>
      <point x="496" y="1102"/>
      <point x="330" y="1102" type="curve" smooth="yes"/>
      <point x="297" y="1102"/>
      <point x="257" y="1097"/>
      <point x="230" y="1089" type="curve"/>
      <point x="231" y="962" type="line"/>
      <point x="247" y="966"/>
      <point x="274" y="968"/>
      <point x="291" y="968" type="curve" smooth="yes"/>
      <point x="389" y="968"/>
      <point x="445" y="922"/>
      <point x="445" y="800" type="curve" smooth="yes"/>
      <point x="445" y="-416" type="line"/>
    </contour>
    <contour>
      <point x="540" y="1290" type="move" name="top"/>
    </contour>
    <contour>
      <point x="540" y="-447" type="move" name="bottom"/>
    </contour>
    <contour>
      <point x="770" y="1290" type="move" name="top0315"/>
    </contour>
  </outline>
</glyph>
<glyph name="srthook" format="1">
  <advance width="1457"/>
  <unicode hex="0282"/>
  <outline>
    <contour>
      <point x="295" y="334" type="line"/>
      <point x="295" y="-135" type="line" smooth="yes"/>
      <point x="295" y="-330"/>
      <point x="430" y="-437"/>
      <point x="595" y="-437" type="curve" smooth="yes"/>
      <point x="625" y="-437"/>
      <point x="667" y="-431"/>
      <point x="696" y="-422" type="curve"/>
      <point x="694" y="-294" type="line"/>
      <point x="677" y="-299"/>
      <point x="652" y="-302"/>
      <point x="635" y="-302" type="curve" smooth="yes"/>
      <point x="537" y="-302"/>
      <point x="480" y="-257"/>
      <point x="480" y="-135" type="curve" smooth="yes"/>
      <point x="480" y="334" type="line"/>
    </contour>
    <component base="s"/>
    <contour>
      <point x="743" y="1290" type="move" name="top"/>
    </contour>
    <contour>
      <point x="743" y="-447" type="move" name="bottom"/>
    </contour>
    <contour>
      <point x="1257" y="1290" type="move" name="top0315"/>
    </contour>
  </outline>
</glyph>
<glyph name="eshshortrev" format="1">
  <advance width="1241"/>
  <unicode hex="0285"/>
  <outline>
    <contour>
      <point x="713" y="0" type="line"/>
      <point x="713" y="741" type="line" smooth="yes"/>
      <point x="713" y="974"/>
      <point x="578" y="1102"/>
      <point x="357" y="1102" type="curve" smooth="yes"/>
      <point x="315" y="1102"/>
      <point x="271" y="1096"/>
      <point x="230" y="1086" type="curve"/>
      <point x="240" y="935" type="line"/>
      <point x="268" y="940"/>
      <point x="305" y="944"/>
      <point x="340" y="944" type="curve" smooth="yes"/>
      <point x="459" y="944"/>
      <point x="528" y="871"/>
      <point x="528" y="741" type="curve" smooth="yes"/>
      <point x="528" y="0" type="line"/>
    </contour>
    <contour>
      <point x="528" y="664" type="line"/>
      <point x="528" y="-76" type="line" smooth="yes"/>
      <point x="528" y="-309"/>
      <point x="663" y="-437"/>
      <point x="883" y="-437" type="curve" smooth="yes"/>
      <point x="925" y="-437"/>
      <point x="969" y="-431"/>
      <point x="1011" y="-421" type="curve"/>
      <point x="1001" y="-270" type="line"/>
      <point x="973" y="-275"/>
      <point x="936" y="-279"/>
      <point x="901" y="-279" type="curve" smooth="yes"/>
      <point x="782" y="-279"/>
      <point x="713" y="-206"/>
      <point x="713" y="-76" type="curve" smooth="yes"/>
      <point x="713" y="664" type="line"/>
    </contour>
    <contour>
      <point x="421" y="1290" type="move" name="top"/>
    </contour>
    <contour>
      <point x="802" y="-447" type="move" name="bottom"/>
    </contour>
    <contour>
      <point x="1041" y="1290" type="move" name="top0315"/>
    </contour>
  </outline>
</glyph>
<glyph name="eshcurl" format="1">
  <advance width="1335"/>
  <unicode hex="0286"/>
  <outline>
    <contour>
      <point x="836" y="0" type="line"/>
      <point x="836" y="1196" type="line" smooth="yes"/>
      <point x="836" y="1326"/>
      <point x="905" y="1399"/>
      <point x="1023" y="1399" type="curve" smooth="yes"/>
      <point x="1059" y="1399"/>
      <point x="1095" y="1395"/>
      <point x="1124" y="1390" type="curve"/>
      <point x="1133" y="1541" type="line"/>
      <point x="1092" y="1551"/>
      <point x="1048" y="1557"/>
      <point x="1006" y="1557" type="curve" smooth="yes"/>
      <point x="785" y="1557"/>
      <point x="651" y="1429"/>
      <point x="651" y="1196" type="curve" smooth="yes"/>
      <point x="651" y="0" type="line"/>
    </contour>
    <contour>
      <point x="755" y="-437"/>
      <point x="836" y="-286"/>
      <point x="836" y="-123" type="curve"/>
      <point x="836" y="-123"/>
      <point x="836" y="219"/>
      <point x="836" y="219" type="curve"/>
      <point x="836" y="219"/>
      <point x="651" y="219"/>
      <point x="651" y="219" type="curve"/>
      <point x="651" y="219"/>
      <point x="651" y="-101"/>
      <point x="651" y="-164" type="curve" smooth="yes"/>
      <point x="651" y="-233"/>
      <point x="612" y="-285"/>
      <point x="524" y="-285" type="curve" smooth="yes"/>
      <point x="457" y="-285"/>
      <point x="414" y="-236"/>
      <point x="414" y="-173" type="curve" smooth="yes"/>
      <point x="414" y="-111"/>
      <point x="458" y="-63"/>
      <point x="531" y="-63" type="curve" smooth="yes"/>
      <point x="617" y="-63"/>
      <point x="698" y="-128"/>
      <point x="799" y="-235" type="curve"/>
      <point x="945" y="-395" type="line"/>
      <point x="945" y="-395"/>
      <point x="1054" y="-283"/>
      <point x="1054" y="-283" type="curve"/>
      <point x="826" y="-47" type="line"/>
      <point x="727" y="37"/>
      <point x="626" y="89"/>
      <point x="508" y="89" type="curve" smooth="yes"/>
      <point x="351" y="89"/>
      <point x="229" y="-3"/>
      <point x="229" y="-173" type="curve" smooth="yes"/>
      <point x="229" y="-326"/>
      <point x="348" y="-437"/>
      <point x="526" y="-437" type="curve" smooth="yes"/>
    </contour>
    <contour>
      <point x="951" y="1700" type="move" name="top"/>
    </contour>
    <contour>
      <point x="528" y="-447" type="move" name="bottom"/>
    </contour>
    <contour>
      <point x="1135" y="1700" type="move" name="top0315"/>
    </contour>
  </outline>
</glyph>
<glyph name="trthook" format="1">
  <advance width="1077"/>
  <unicode hex="0288"/>
  <outline>
    <contour>
      <point x="794" y="1082" type="line"/>
      <point x="209" y="1082" type="line"/>
      <point x="209" y="939" type="line"/>
      <point x="794" y="939" type="line"/>
    </contour>
    <contour>
      <point x="407" y="1344" type="line"/>
      <point x="407" y="-135" type="line" smooth="yes"/>
      <point x="407" y="-330"/>
      <point x="541" y="-437"/>
      <point x="706" y="-437" type="curve" smooth="yes"/>
      <point x="739" y="-437"/>
      <point x="779" y="-432"/>
      <point x="807" y="-424" type="curve"/>
      <point x="805" y="-297" type="line"/>
      <point x="790" y="-301"/>
      <point x="763" y="-303"/>
      <point x="746" y="-303" type="curve" smooth="yes"/>
      <point x="648" y="-303"/>
      <point x="592" y="-257"/>
      <point x="592" y="-135" type="curve" smooth="yes"/>
      <point x="592" y="1344" type="line"/>
    </contour>
    <contour>
      <point x="503" y="1600" type="move" name="top"/>
    </contour>
    <contour>
      <point x="600" y="-447" type="move" name="bottom"/>
    </contour>
    <contour>
      <point x="877" y="1600" type="move" name="top0315"/>
    </contour>
  </outline>
</glyph>
<glyph name="ubar" format="1">
  <advance width="1695"/>
  <unicode hex="0289"/>
  <outline>
    <contour>
      <point x="1473" y="645" type="line"/>
      <point x="222" y="645" type="line"/>
      <point x="222" y="493" type="line"/>
      <point x="1473" y="493" type="line"/>
    </contour>
    <component base="u" xOffset="84"/>
    <contour>
      <point x="839" y="1290" type="move" name="top"/>
    </contour>
    <contour>
      <point x="839" y="0" type="move" name="bottom"/>
    </contour>
    <contour>
      <point x="1495" y="1290" type="move" name="top0315"/>
    </contour>
  </outline>
</glyph>
<glyph name="vscript" format="1">
  <advance width="1496"/>
  <unicode hex="028B"/>
  <outline>
    <contour>
      <point x="748" y="137" type="line"/>
      <point x="620" y="137"/>
      <point x="522" y="200"/>
      <point x="522" y="443" type="curve" smooth="yes"/>
      <point x="522" y="1082" type="line"/>
      <point x="337" y="1082" type="line"/>
      <point x="337" y="445" type="line" smooth="yes"/>
      <point x="337" y="115"/>
      <point x="506" y="-20"/>
      <point x="748" y="-20" type="curve"/>
    </contour>
    <contour>
      <point x="748" y="-20" type="line"/>
      <point x="990" y="-20"/>
      <point x="1159" y="115"/>
      <point x="1159" y="445" type="curve" smooth="yes"/>
      <point x="1159" y="801" type="line" smooth="yes"/>
      <point x="1159" y="949"/>
      <point x="1141" y="1101"/>
      <point x="956" y="1101" type="curve" smooth="yes"/>
      <point x="880" y="1101"/>
      <point x="798" y="1079"/>
      <point x="734" y="1057" type="curve"/>
      <point x="759" y="911" type="line"/>
      <point x="806" y="924"/>
      <point x="842" y="932"/>
      <point x="883" y="932" type="curve" smooth="yes"/>
      <point x="942" y="932"/>
      <point x="974" y="897"/>
      <point x="974" y="805" type="curve" smooth="yes"/>
      <point x="974" y="443" type="line" smooth="yes"/>
      <point x="974" y="200"/>
      <point x="876" y="137"/>
      <point x="748" y="137" type="curve"/>
    </contour>
    <contour>
      <point x="747" y="1290" type="move" name="top"/>
    </contour>
    <contour>
      <point x="747" y="0" type="move" name="bottom"/>
    </contour>
    <contour>
      <point x="1296" y="1290" type="move" name="top0315"/>
    </contour>
  </outline>
</glyph>
<glyph name="vturn" format="1">
  <advance width="1393"/>
  <unicode hex="028C"/>
  <outline>
    <contour>
      <point x="720" y="914" type="line"/>
      <point x="749" y="1082" type="line"/>
      <point x="624" y="1082" type="line"/>
      <point x="236" y="0" type="line"/>
      <point x="425" y="0" type="line"/>
    </contour>
    <contour>
      <point x="969" y="0" type="line"/>
      <point x="1158" y="0" type="line"/>
      <point x="765" y="1082" type="line"/>
      <point x="642" y="1082" type="line"/>
      <point x="663" y="919" type="line"/>
    </contour>
    <contour>
      <point x="695" y="1290" type="move" name="top"/>
    </contour>
    <contour>
      <point x="695" y="0" type="move" name="bottom"/>
    </contour>
    <contour>
      <point x="1193" y="1290" type="move" name="top0315"/>
    </contour>
  </outline>
</glyph>
<glyph name="wturn" format="1">
  <advance width="1935"/>
  <unicode hex="028D"/>
  <outline>
    <contour>
      <point x="611" y="689" type="line"/>
      <point x="682" y="1082" type="line"/>
      <point x="558" y="1082" type="line"/>
      <point x="244" y="0" type="line"/>
      <point x="428" y="0" type="line"/>
    </contour>
    <contour>
      <point x="893" y="0" type="line"/>
      <point x="1015" y="0" type="line"/>
      <point x="919" y="419" type="line"/>
      <point x="708" y="1082" type="line"/>
      <point x="589" y="1082" type="line"/>
      <point x="674" y="689" type="line"/>
    </contour>
    <contour>
      <point x="1261" y="689" type="line"/>
      <point x="1345" y="1082" type="line"/>
      <point x="1227" y="1082" type="line"/>
      <point x="1013" y="419" type="line"/>
      <point x="912" y="0" type="line"/>
      <point x="1042" y="0" type="line"/>
    </contour>
    <contour>
      <point x="1507" y="0" type="line"/>
      <point x="1691" y="0" type="line"/>
      <point x="1377" y="1082" type="line"/>
      <point x="1254" y="1082" type="line"/>
      <point x="1333" y="689" type="line"/>
    </contour>
    <contour>
      <point x="966" y="1290" type="move" name="top"/>
    </contour>
    <contour>
      <point x="966" y="0" type="move" name="bottom"/>
    </contour>
    <contour>
      <point x="1735" y="1290" type="move" name="top0315"/>
    </contour>
  </outline>
</glyph>
<glyph name="zrthook" format="1">
  <advance width="1520"/>
  <unicode hex="0290"/>
  <outline>
    <contour>
      <point x="1068" y="152" type="line"/>
      <point x="359" y="152" type="line"/>
      <point x="359" y="0" type="line"/>
      <point x="1068" y="0" type="line"/>
    </contour>
    <contour>
      <point x="1118" y="951" type="line"/>
      <point x="1118" y="1082" type="line"/>
      <point x="1000" y="1082" type="line"/>
      <point x="289" y="136" type="line"/>
      <point x="289" y="0" type="line"/>
      <point x="402" y="0" type="line"/>
    </contour>
    <contour>
      <point x="1036" y="1082" type="line"/>
      <point x="297" y="1082" type="line"/>
      <point x="297" y="929" type="line"/>
      <point x="1036" y="929" type="line"/>
    </contour>
    <contour>
      <point x="988" y="152" type="line"/>
      <point x="988" y="-135" type="line" smooth="yes"/>
      <point x="988" y="-330"/>
      <point x="1066" y="-437"/>
      <point x="1232" y="-437" type="curve" smooth="yes"/>
      <point x="1262" y="-437"/>
      <point x="1304" y="-431"/>
      <point x="1332" y="-422" type="curve"/>
      <point x="1331" y="-294" type="line"/>
      <point x="1313" y="-299"/>
      <point x="1288" y="-302"/>
      <point x="1271" y="-302" type="curve" smooth="yes"/>
      <point x="1174" y="-302"/>
      <point x="1118" y="-257"/>
      <point x="1118" y="-135" type="curve" smooth="yes"/>
      <point x="1118" y="152" type="line"/>
    </contour>
    <contour>
      <point x="702" y="1290" type="move" name="top"/>
    </contour>
    <contour>
      <point x="702" y="-447" type="move" name="bottom"/>
    </contour>
    <contour>
      <point x="1320" y="1290" type="move" name="top0315"/>
    </contour>
  </outline>
</glyph>
<glyph name="zcurl" format="1">
  <advance width="1625"/>
  <unicode hex="0291"/>
  <outline>
    <contour>
      <point x="865" y="0" type="line"/>
      <point x="982" y="0" type="line"/>
      <point x="1205" y="0"/>
      <point x="1395" y="135"/>
      <point x="1395" y="329" type="curve" smooth="yes"/>
      <point x="1395" y="466"/>
      <point x="1306" y="565"/>
      <point x="1140" y="565" type="curve" smooth="yes"/>
      <point x="923" y="565"/>
      <point x="818" y="367"/>
      <point x="577" y="21" type="curve"/>
      <point x="487" y="-104" type="line"/>
      <point x="619" y="-203" type="line"/>
      <point x="765" y="12" type="line"/>
      <point x="923" y="252"/>
      <point x="1018" y="410"/>
      <point x="1129" y="410" type="curve" smooth="yes"/>
      <point x="1184" y="410"/>
      <point x="1222" y="378"/>
      <point x="1222" y="315" type="curve" smooth="yes"/>
      <point x="1222" y="214"/>
      <point x="1109" y="152"/>
      <point x="982" y="152" type="curve" smooth="yes"/>
      <point x="865" y="152" type="line"/>
    </contour>
    <contour>
      <point x="937" y="152" type="line"/>
      <point x="359" y="152" type="line"/>
      <point x="359" y="0" type="line"/>
      <point x="937" y="0" type="line"/>
    </contour>
    <contour>
      <point x="1118" y="951" type="line"/>
      <point x="1118" y="1082" type="line"/>
      <point x="1000" y="1082" type="line"/>
      <point x="289" y="136" type="line"/>
      <point x="289" y="0" type="line"/>
      <point x="402" y="0" type="line"/>
    </contour>
    <contour>
      <point x="1036" y="1082" type="line"/>
      <point x="297" y="1082" type="line"/>
      <point x="297" y="929" type="line"/>
      <point x="1036" y="929" type="line"/>
    </contour>
    <contour>
      <point x="684" y="1290" type="move" name="top"/>
    </contour>
    <contour>
      <point x="684" y="-447" type="move" name="bottom"/>
    </contour>
    <contour>
      <point x="1425" y="1290" type="move" name="top0315"/>
    </contour>
  </outline>
</glyph>
<glyph name="glottalstoprevinv" format="1">
  <advance width="1471"/>
  <unicode hex="0295"/>
  <outline>
    <contour>
      <point x="774" y="544" type="line"/>
      <point x="544" y="544"/>
      <point x="478" y="742"/>
      <point x="478" y="932" type="curve" smooth="yes"/>
      <point x="478" y="1019" type="line" smooth="yes"/>
      <point x="478" y="1206"/>
      <point x="546" y="1407"/>
      <point x="774" y="1407" type="curve" smooth="yes"/>
      <point x="922" y="1407"/>
      <point x="1019" y="1300"/>
      <point x="1029" y="1167" type="curve"/>
      <point x="1205" y="1167" type="line"/>
      <point x="1195" y="1389"/>
      <point x="1027" y="1559"/>
      <point x="774" y="1559" type="curve" smooth="yes"/>
      <point x="449" y="1559"/>
      <point x="293" y="1309"/>
      <point x="293" y="1019" type="curve" smooth="yes"/>
      <point x="293" y="932" type="line" smooth="yes"/>
      <point x="293" y="642"/>
      <point x="448" y="392"/>
      <point x="774" y="392" type="curve" smooth="yes"/>
      <point x="816" y="392" type="line"/>
      <point x="816" y="544" type="line"/>
    </contour>
    <contour>
      <point x="674" y="0" type="line"/>
      <point x="859" y="0" type="line"/>
      <point x="859" y="547" type="line"/>
      <point x="674" y="547" type="line"/>
    </contour>
    <contour>
      <point x="776" y="1633" type="move" name="top"/>
    </contour>
    <contour>
      <point x="768" y="0" type="move" name="bottom"/>
    </contour>
    <contour>
      <point x="1271" y="1633" type="move" name="top0315"/>
    </contour>
  </outline>
</glyph>
<glyph name="glottalstopinv" format="1">
  <advance width="1471"/>
  <unicode hex="0296"/>
  <outline>
    <contour>
      <point x="697" y="995" type="line"/>
      <point x="928" y="995"/>
      <point x="994" y="797"/>
      <point x="994" y="607" type="curve" smooth="yes"/>
      <point x="994" y="520" type="line" smooth="yes"/>
      <point x="994" y="332"/>
      <point x="926" y="132"/>
      <point x="698" y="132" type="curve" smooth="yes"/>
      <point x="549" y="132"/>
      <point x="452" y="239"/>
      <point x="442" y="372" type="curve"/>
      <point x="267" y="372" type="line"/>
      <point x="277" y="150"/>
      <point x="445" y="-20"/>
      <point x="698" y="-20" type="curve" smooth="yes"/>
      <point x="1022" y="-20"/>
      <point x="1179" y="230"/>
      <point x="1179" y="520" type="curve" smooth="yes"/>
      <point x="1179" y="607" type="line" smooth="yes"/>
      <point x="1179" y="897"/>
      <point x="1023" y="1147"/>
      <point x="697" y="1147" type="curve" smooth="yes"/>
      <point x="655" y="1147" type="line"/>
      <point x="655" y="995" type="line"/>
    </contour>
    <contour>
      <point x="797" y="1535" type="line"/>
      <point x="612" y="1535" type="line"/>
      <point x="612" y="992" type="line"/>
      <point x="797" y="992" type="line"/>
    </contour>
    <contour>
      <point x="708" y="1633" type="move" name="top"/>
    </contour>
    <contour>
      <point x="708" y="0" type="move" name="bottom"/>
    </contour>
    <contour>
      <point x="1271" y="1633" type="move" name="top0315"/>
    </contour>
  </outline>
</glyph>
<glyph name="epsilonclosed" format="1">
  <advance width="1469"/>
  <unicode hex="029A"/>
  <outline>
    <contour>
      <point x="823" y="517" type="line"/>
      <point x="823" y="631" type="line"/>
      <point x="710" y="631" type="line" smooth="yes"/>
      <point x="556" y="631"/>
      <point x="505" y="693"/>
      <point x="505" y="787" type="curve" smooth="yes"/>
      <point x="505" y="871"/>
      <point x="565" y="951"/>
      <point x="718" y="951" type="curve" smooth="yes"/>
      <point x="867" y="951"/>
      <point x="988" y="850"/>
      <point x="988" y="556" type="curve"/>
      <point x="1172" y="556" type="line"/>
      <point x="1172" y="981"/>
      <point x="946" y="1101"/>
      <point x="718" y="1101" type="curve" smooth="yes"/>
      <point x="472" y="1101"/>
      <point x="320" y="991"/>
      <point x="320" y="787" type="curve" smooth="yes"/>
      <point x="320" y="639"/>
      <point x="462" y="517"/>
      <point x="696" y="517" type="curve" smooth="yes"/>
    </contour>
    <contour>
      <point x="696" y="587" type="line"/>
      <point x="438" y="587"/>
      <point x="300" y="486"/>
      <point x="300" y="305" type="curve" smooth="yes"/>
      <point x="300" y="101"/>
      <point x="472" y="-20"/>
      <point x="718" y="-20" type="curve" smooth="yes"/>
      <point x="932" y="-20"/>
      <point x="1172" y="94"/>
      <point x="1172" y="557" type="curve"/>
      <point x="988" y="557" type="line"/>
      <point x="988" y="259"/>
      <point x="887" y="130"/>
      <point x="718" y="130" type="curve" smooth="yes"/>
      <point x="565" y="130"/>
      <point x="486" y="211"/>
      <point x="486" y="305" type="curve" smooth="yes"/>
      <point x="486" y="424"/>
      <point x="557" y="474"/>
      <point x="710" y="474" type="curve" smooth="yes"/>
      <point x="823" y="474" type="line"/>
      <point x="823" y="587" type="line"/>
    </contour>
    <contour>
      <point x="718" y="1290" type="move" name="top"/>
    </contour>
    <contour>
      <point x="718" y="0" type="move" name="bottom"/>
    </contour>
    <contour>
      <point x="1269" y="1290" type="move" name="top0315"/>
    </contour>
  </outline>
</glyph>
<glyph name="Gsmallcaphook" format="1">
  <advance width="1672"/>
  <unicode hex="029B"/>
  <outline>
    <contour>
      <point x="1269" y="738" type="line"/>
      <point x="1269" y="851" type="line" smooth="yes"/>
      <point x="1269" y="972"/>
      <point x="1325" y="1017"/>
      <point x="1423" y="1017" type="curve" smooth="yes"/>
      <point x="1440" y="1017"/>
      <point x="1465" y="1015"/>
      <point x="1482" y="1009" type="curve"/>
      <point x="1484" y="1137" type="line"/>
      <point x="1455" y="1146"/>
      <point x="1413" y="1152"/>
      <point x="1383" y="1152" type="curve" smooth="yes"/>
      <point x="1218" y="1152"/>
      <point x="1140" y="1045"/>
      <point x="1140" y="851" type="curve" smooth="yes"/>
      <point x="1140" y="738" type="line"/>
    </contour>
    <component base="Gsmallcap" xOffset="-22"/>
    <contour>
      <point x="805" y="1290" type="move" name="top"/>
    </contour>
    <contour>
      <point x="805" y="0" type="move" name="bottom"/>
    </contour>
    <contour>
      <point x="1472" y="1290" type="move" name="top0315"/>
    </contour>
  </outline>
</glyph>
<glyph name="jcrosstail" format="1">
  <advance width="1246"/>
  <unicode hex="029D"/>
  <outline>
    <contour>
      <point x="1026" y="89" type="curve"/>
      <point x="508" y="89" type="line" smooth="yes"/>
      <point x="351" y="89"/>
      <point x="229" y="-3"/>
      <point x="229" y="-173" type="curve" smooth="yes"/>
      <point x="229" y="-326"/>
      <point x="347" y="-437"/>
      <point x="524" y="-437" type="curve" smooth="yes"/>
      <point x="755" y="-437"/>
      <point x="836" y="-286"/>
      <point x="836" y="-123" type="curve" smooth="yes"/>
      <point x="836" y="-123"/>
      <point x="836" y="219"/>
      <point x="836" y="219" type="curve"/>
      <point x="836" y="219"/>
      <point x="651" y="219"/>
      <point x="651" y="219" type="curve"/>
      <point x="651" y="-164" type="line" smooth="yes"/>
      <point x="651" y="-233"/>
      <point x="612" y="-285"/>
      <point x="522" y="-285" type="curve" smooth="yes"/>
      <point x="456" y="-285"/>
      <point x="414" y="-236"/>
      <point x="414" y="-173" type="curve" smooth="yes"/>
      <point x="414" y="-111"/>
      <point x="458" y="-63"/>
      <point x="531" y="-63" type="curve" smooth="yes"/>
      <point x="1026" y="-63" type="line"/>
      <point x="1026" y="-63"/>
      <point x="1026" y="89"/>
    </contour>
    <component base="i" xOffset="294"/>
    <contour>
      <point x="746" y="1600" type="move" name="top"/>
    </contour>
    <contour>
      <point x="746" y="-447" type="move" name="bottom"/>
    </contour>
    <contour>
      <point x="1046" y="1600" type="move" name="top0315"/>
    </contour>
  </outline>
</glyph>
<glyph name="kturn" format="1">
  <advance width="1438"/>
  <unicode hex="029E"/>
  <outline>
    <contour>
      <point x="912" y="-416" type="line"/>
      <point x="1097" y="-416" type="line"/>
      <point x="1097" y="1082" type="line"/>
      <point x="912" y="1082" type="line"/>
    </contour>
    <contour>
      <point x="251" y="0" type="line"/>
      <point x="476" y="0" type="line"/>
      <point x="812" y="355" type="line"/>
      <point x="1002" y="582" type="line"/>
      <point x="986" y="780" type="line"/>
      <point x="722" y="505" type="line"/>
    </contour>
    <contour>
      <point x="419" y="1082" type="line"/>
      <point x="202" y="1082" type="line"/>
      <point x="710" y="401" type="line"/>
      <point x="806" y="566" type="line"/>
    </contour>
    <contour>
      <point x="696" y="1290" type="move" name="top"/>
    </contour>
    <contour>
      <point x="696" y="-447" type="move" name="bottom"/>
    </contour>
    <contour>
      <point x="1238" y="1290" type="move" name="top0315"/>
    </contour>
  </outline>
</glyph>
<glyph name="qhook" format="1">
  <advance width="1611"/>
  <unicode hex="02A0"/>
  <outline>
    <contour>
      <point x="1208" y="930" type="line"/>
      <point x="1208" y="1074" type="line" smooth="yes"/>
      <point x="1208" y="1195"/>
      <point x="1264" y="1240"/>
      <point x="1362" y="1240" type="curve" smooth="yes"/>
      <point x="1379" y="1240"/>
      <point x="1404" y="1238"/>
      <point x="1421" y="1233" type="curve"/>
      <point x="1423" y="1360" type="line"/>
      <point x="1394" y="1370"/>
      <point x="1352" y="1376"/>
      <point x="1322" y="1376" type="curve" smooth="yes"/>
      <point x="1157" y="1376"/>
      <point x="1023" y="1268"/>
      <point x="1023" y="1074" type="curve" smooth="yes"/>
      <point x="1023" y="930" type="line"/>
    </contour>
    <contour>
      <point x="1023" y="-416" type="line"/>
      <point x="1208" y="-416" type="line"/>
      <point x="1208" y="1073" type="line"/>
      <point x="1038" y="1073" type="line"/>
      <point x="1023" y="874" type="line"/>
    </contour>
    <contour>
      <point x="295" y="529" type="line"/>
      <point x="295" y="213"/>
      <point x="457" y="-20"/>
      <point x="724" y="-20" type="curve" smooth="yes"/>
      <point x="999" y="-20"/>
      <point x="1139" y="177"/>
      <point x="1168" y="494" type="curve"/>
      <point x="1168" y="585" type="line"/>
      <point x="1137" y="905"/>
      <point x="998" y="1102"/>
      <point x="726" y="1102" type="curve" smooth="yes"/>
      <point x="455" y="1102"/>
      <point x="295" y="880"/>
      <point x="295" y="550" type="curve" smooth="yes"/>
    </contour>
    <contour>
      <point x="480" y="550" type="line"/>
      <point x="480" y="765"/>
      <point x="570" y="950"/>
      <point x="772" y="950" type="curve" smooth="yes"/>
      <point x="959" y="950"/>
      <point x="1049" y="805"/>
      <point x="1079" y="659" type="curve"/>
      <point x="1079" y="419" type="line"/>
      <point x="1039" y="269"/>
      <point x="954" y="132"/>
      <point x="770" y="132" type="curve" smooth="yes"/>
      <point x="570" y="132"/>
      <point x="480" y="314"/>
      <point x="480" y="529" type="curve" smooth="yes"/>
    </contour>
    <contour>
      <point x="782" y="1600" type="move" name="top"/>
    </contour>
    <contour>
      <point x="782" y="-447" type="move" name="bottom"/>
    </contour>
    <contour>
      <point x="1411" y="1600" type="move" name="top0315"/>
    </contour>
  </outline>
</glyph>
